<svg viewBox="0 0 80 80" fill="none" xmlns="http://www.w3.org/2000/svg">
<path d="M34.0526 66.5415H65.1288V78.5H14.5V74.7922C14.5 72.7542 14.7107 70.7952 15.1291 68.9127C15.5576 66.9842 16.0509 65.3348 16.602 63.9537C17.2073 62.5458 18.0942 61.0717 19.2839 59.5321C20.5311 57.9181 21.5852 56.6101 22.4491 55.6022C23.2547 54.6624 24.5078 53.4714 26.248 52.0206C28.0832 50.5527 29.4496 49.5114 30.3635 48.8787L30.3944 48.8573L30.4243 48.8344C31.3474 48.1242 32.8311 47.0738 34.8949 45.6733L34.9098 45.6632L34.9245 45.6527C36.9823 44.1829 38.4234 43.1483 39.2439 42.5517C43.446 39.624 46.6779 36.7366 48.8716 33.877C51.0706 31.0104 52.2839 28.0934 52.2839 25.1524C52.2839 21.856 51.2408 19.0312 49.0951 16.7997C46.9052 14.5222 43.9306 13.4585 40.3684 13.4585C36.5606 13.4585 33.3001 14.6452 30.7017 17.0758C28.5285 19.1043 27.3164 21.6184 27.0603 24.5388H14.7569C15.0719 17.9296 17.498 12.5913 21.9985 8.41222L21.9991 8.41166C26.9365 3.82195 33.1331 1.5 40.7008 1.5C47.386 1.5 52.9716 3.52987 57.55 7.55334L57.55 7.55337L57.5584 7.56069C62.1236 11.5127 64.464 17.0146 64.464 24.2659C64.464 30.3302 63.1451 35.1872 60.6197 38.9411L60.6162 38.9464C58.0906 42.7347 54.0689 46.6748 48.4662 50.75C47.9588 51.1123 46.6476 52.023 44.5177 53.4919C42.376 54.8953 40.7297 56.0171 39.5922 56.8513C38.4177 57.7126 37.1126 58.8284 35.6803 60.1853L35.6656 60.1992L35.6513 60.2136C34.2378 61.627 33.1941 63.0589 32.6481 64.5149L31.8881 66.5415H34.0526Z" stroke="#DEE1E5" stroke-width="3"/>
</svg>
