<svg viewBox="0 0 80 80" fill="none" xmlns="http://www.w3.org/2000/svg">
<path d="M14.9554 24.148C15.2821 17.5385 17.8 12.2732 22.4765 8.22868L22.4765 8.22872L22.4851 8.22112C27.5941 3.73348 33.5355 1.5 40.3765 1.5C47.7939 1.5 53.4986 3.59048 57.669 7.62634L57.669 7.62637L57.6781 7.63506C61.8862 11.6395 63.9789 16.5558 63.9789 22.4829C63.9789 25.7997 63.204 28.8173 61.6643 31.5648C60.0856 34.3084 58.1921 36.4224 55.9991 37.9509L53.8598 39.4418L56.2242 40.5415C59.0869 41.873 61.4629 43.9381 63.3577 46.7802C65.21 49.5588 66.1617 52.8623 66.1617 56.7531C66.1617 63.178 63.861 68.3634 59.2522 72.432C54.6349 76.4358 48.5363 78.5 40.8131 78.5C33.356 78.5 27.0106 76.2805 21.6984 71.8684C16.882 67.7457 14.1604 62.2319 13.5893 55.1971H25.5321C26.1212 58.6142 27.6389 61.4125 30.146 63.4771L30.1645 63.4923L30.1834 63.5069C33.0465 65.7156 36.6279 66.766 40.8131 66.766C44.5518 66.766 47.7191 65.8289 50.1638 63.8101C52.7117 61.7672 54.0172 58.9766 54.0998 55.5891L54.1003 55.5708V55.5525C54.1003 51.8913 52.816 48.8882 50.1585 46.7451C47.555 44.6454 44.0902 43.6842 39.94 43.6842H34.8915V34.4604H39.2851C43.0668 34.4604 46.204 33.5734 48.4645 31.5737C50.7083 29.5889 51.8349 26.9191 51.917 23.7223C51.917 23.7222 51.917 23.7221 51.917 23.7219L50.4175 23.6835C50.4902 21.0641 49.5443 18.9177 47.5798 17.2442M14.9554 24.148L48.5633 16.1115M14.9554 24.148H27.029M47.5798 17.2442L48.5737 16.1207C48.5702 16.1176 48.5667 16.1146 48.5633 16.1115M47.5798 17.2442L48.5525 16.1023C48.5561 16.1054 48.5597 16.1085 48.5633 16.1115M47.5798 17.2442C45.688 15.5707 43.2869 14.734 40.3765 14.734C36.884 14.734 34.01 15.7526 31.7544 17.7899C29.6398 19.6999 28.5484 22.1214 28.4802 25.0546V24.148H27.029M48.5633 16.1115C46.3576 14.1651 43.5887 13.234 40.3765 13.234C36.5717 13.234 33.3212 14.3535 30.749 16.6768C28.5271 18.6836 27.2897 21.2026 27.029 24.148" stroke="#DEE1E5" stroke-width="3"/>
</svg>
