<svg width="25" height="24" viewBox="0 0 25 24" fill="none" xmlns="http://www.w3.org/2000/svg">
<path d="M8.30171 21.5996C7.00871 21.5996 5.79771 21.0446 4.92371 20.1596C3.22871 18.4436 2.75671 15.4486 5.13271 13.0436L14.8807 3.17356C15.8687 2.17356 17.1257 1.78656 18.3287 2.11356C19.5117 2.43356 20.4797 3.41456 20.7967 4.61156C21.1187 5.83156 20.7377 7.10456 19.7507 8.10456L10.4277 17.5446C9.89571 18.0836 9.29371 18.4026 8.68971 18.4666C8.09071 18.5306 7.51971 18.3366 7.11971 17.9316C6.39571 17.1956 6.29171 15.8146 7.49771 14.5946L14.0457 7.96456C14.3147 7.69256 14.7507 7.69256 15.0197 7.96456C15.2887 8.23656 15.2887 8.67856 15.0197 8.95056L8.47071 15.5816C7.90471 16.1536 7.85271 16.7006 8.09371 16.9456C8.19971 17.0516 8.35971 17.1006 8.54471 17.0796C8.82771 17.0506 9.15071 16.8636 9.45371 16.5586L18.7767 7.11956C19.4167 6.47156 19.6617 5.70956 19.4667 4.97456C19.3692 4.61514 19.1806 4.28699 18.919 4.02191C18.6574 3.75683 18.3318 3.56382 17.9737 3.46156C17.2477 3.26456 16.4937 3.51356 15.8537 4.16156L6.10571 14.0316C4.28971 15.8706 4.72471 17.9876 5.89671 19.1746C7.06971 20.3616 9.15871 20.8036 10.9757 18.9626L20.7237 9.09256C20.7873 9.02792 20.8631 8.97658 20.9467 8.94153C21.0303 8.90649 21.1201 8.88844 21.2107 8.88844C21.3014 8.88844 21.3911 8.90649 21.4747 8.94153C21.5583 8.97658 21.6341 9.02792 21.6977 9.09256C21.8271 9.22422 21.8996 9.40145 21.8996 9.58606C21.8996 9.77068 21.8271 9.9479 21.6977 10.0796L11.9497 19.9496C10.8007 21.1116 9.51371 21.5996 8.30171 21.5996Z" fill="#132333"/>
</svg>
