<svg id="Слой_1" data-name="Слой 1" xmlns="http://www.w3.org/2000/svg" viewBox="0 0 841.89 595.28"><defs><style>.cls-1{fill:#00e099;}.cls-2{fill:#f50;}</style></defs><title>U</title><path class="cls-1" d="M553.29,232.12l-40.4,132.32c-7,22.94-18,41.66-32.49,55.71a101.13,101.13,0,0,1-51.19,27.07c-19.21,3.8-39.38,2.52-60-3.77-21.17-6.46-38.88-16.74-52.63-30.61a101.18,101.18,0,0,1-27.33-51c-4.27-19.79-2.83-41.41,4.17-64.35l40.41-132.32a26,26,0,0,1,49.81,15.21l-41.23,135c-6.26,20.52-5.47,38.1,2.39,52.25s20.78,24.18,38.54,29.61,33.34,4.37,47.89-3.15c14.31-7.45,24.72-21.61,31-42.13l41.22-135a26,26,0,0,1,49.81,15.21Z"/><circle class="cls-2" cx="404.12" cy="331.9" r="41.59"/></svg>