<svg width="64" height="64" viewBox="0 0 64 64" fill="none" xmlns="http://www.w3.org/2000/svg">
<g clip-path="url(#clip0)">
<rect width="64" height="64" rx="8" fill="#F7F9FA"/>
<path d="M43.7158 20.0355L43.7847 34.4304C43.795 36.9303 43.2904 39.1196 42.2835 40.9631C41.2717 42.816 39.8506 44.2475 38.061 45.2138C36.2786 46.1779 34.2477 46.6632 32.0294 46.6666C29.7406 46.6682 27.6754 46.1863 25.8968 45.225C24.0926 44.2559 22.6663 42.8261 21.6312 40.9786C20.5982 39.1381 20.0841 36.9422 20.069 34.4516L20.0001 20.0567C19.9905 18.5657 21.1912 17.3507 22.6795 17.3456C24.1607 17.3426 25.3753 18.5638 25.3849 20.0549L25.4596 34.7452C25.4729 36.9782 26.0904 38.7043 27.2966 39.8734C28.5051 41.0496 30.0868 41.6492 32.0094 41.6431C33.9178 41.6414 35.4318 41.0652 36.6391 39.8717C37.8203 38.694 38.414 36.97 38.4078 34.7348L38.3331 20.0445C38.3235 18.5535 39.5313 17.3363 41.0126 17.3333C42.4987 17.321 43.7062 18.5445 43.7158 20.0355Z" fill="#5AE0B6"/>
</g>
<defs>
<clipPath id="clip0">
<rect width="64" height="64" rx="8" fill="white"/>
</clipPath>
</defs>
</svg>
