<svg viewBox="0 0 40 40" fill="none" xmlns="http://www.w3.org/2000/svg">
<path opacity="0.5" d="M31.6666 10H8.33325C7.00717 10 5.7354 10.5268 4.79772 11.4645C3.86004 12.4021 3.33325 13.6739 3.33325 15V19.5333L14.7283 23.3333H25.2716L36.6666 19.5333V15C36.6666 13.6739 36.1398 12.4021 35.2021 11.4645C34.2644 10.5268 32.9927 10 31.6666 10Z" fill="#ED622B"/>
<path d="M16.6666 10V8.33333H23.3333V10H26.6666V8.33333C26.6657 7.44955 26.3142 6.60222 25.6893 5.97729C25.0644 5.35236 24.217 5.00088 23.3333 5H16.6666C15.7828 5.00088 14.9355 5.35236 14.3105 5.97729C13.6856 6.60222 13.3341 7.44955 13.3333 8.33333V10H16.6666ZM14.7283 23.3333L3.33325 19.5333V30C3.33458 31.3257 3.86179 32.5967 4.79918 33.5341C5.73658 34.4715 7.00758 34.9987 8.33325 35H31.6666C32.9923 34.9987 34.2633 34.4715 35.2007 33.5341C36.1381 32.5967 36.6653 31.3257 36.6666 30V19.5333L25.2716 23.3333H14.7283Z" fill="#ED622B"/>
</svg>
