<svg width="256" height="265" viewBox="0 0 256 265" fill="none" xmlns="http://www.w3.org/2000/svg">
<path d="M235.744 149.194C233.78 159.513 229.851 169.488 224.23 178.96C215.784 193.145 203.574 204.818 188.218 213.684C172.315 222.866 155.247 227.603 137.543 227.652C119.84 227.701 102.987 223.314 87.6295 214.549C72.1802 205.838 59.6085 193.245 50.3189 177.155C41.0292 161.065 36.4097 143.881 36.5631 126.1C36.6975 108.391 41.3049 91.6748 50.1724 76.3216C59.0933 61.0608 71.7036 48.6019 87.6073 39.4199C102.825 30.6337 118.911 26.0936 135.456 25.7269C146.351 25.6012 156.882 27.1657 166.72 30.4862C171.396 32.0406 175.223 35.5027 177.221 40.0203C179.266 44.5115 179.288 49.6155 177.374 54.1109C173.848 62.2503 164.684 66.4314 156.492 63.6401C149.728 61.3186 142.752 60.106 135.899 60.0558C125.323 59.9968 114.867 62.8894 104.768 68.7205C94.3936 74.7099 86.2382 82.7475 80.6856 92.5496C75.1064 102.306 72.3927 113.119 72.6661 124.675C72.8938 136.256 76.2378 147.642 82.5109 158.507C88.7574 169.326 96.9455 177.915 106.862 183.903C116.705 189.871 127.427 192.928 138.693 193.021C149.931 193.067 160.95 190.095 171.37 184.08C181.47 178.248 189.203 170.64 194.394 161.478C197.823 155.491 200.287 148.89 201.632 141.825C203.284 133.289 211.487 127.443 220.326 128.505C225.294 129.089 229.703 131.66 232.544 135.63C235.483 139.666 236.606 144.566 235.744 149.194Z" fill="#ED622B"/>
</svg>
