<svg width="25" height="24" viewBox="0 0 25 24" fill="none" xmlns="http://www.w3.org/2000/svg">
<path d="M9.5 2H4.5C3.96957 2 3.46086 2.21071 3.08579 2.58579C2.71071 2.96086 2.5 3.46957 2.5 4V9C2.5 9.53043 2.71071 10.0391 3.08579 10.4142C3.46086 10.7893 3.96957 11 4.5 11H9.5C10.0304 11 10.5391 10.7893 10.9142 10.4142C11.2893 10.0391 11.5 9.53043 11.5 9V4C11.5 3.46957 11.2893 2.96086 10.9142 2.58579C10.5391 2.21071 10.0304 2 9.5 2ZM9.5 7H4.5V6H9.5V7ZM20.5 13H15.5C14.9696 13 14.4609 13.2107 14.0858 13.5858C13.7107 13.9609 13.5 14.4696 13.5 15V20C13.5 20.5304 13.7107 21.0391 14.0858 21.4142C14.4609 21.7893 14.9696 22 15.5 22H20.5C21.0304 22 21.5391 21.7893 21.9142 21.4142C22.2893 21.0391 22.5 20.5304 22.5 20V15C22.5 14.4696 22.2893 13.9609 21.9142 13.5858C21.5391 13.2107 21.0304 13 20.5 13ZM20.5 19H15.5V18H20.5V19ZM20.5 17H15.5V16H20.5V17ZM20.5 2H15.5C14.9696 2 14.4609 2.21071 14.0858 2.58579C13.7107 2.96086 13.5 3.46957 13.5 4V9C13.5 9.53043 13.7107 10.0391 14.0858 10.4142C14.4609 10.7893 14.9696 11 15.5 11H20.5C21.0304 11 21.5391 10.7893 21.9142 10.4142C22.2893 10.0391 22.5 9.53043 22.5 9V4C22.5 3.46957 22.2893 2.96086 21.9142 2.58579C21.5391 2.21071 21.0304 2 20.5 2ZM20.5 7H18.5V9H17.5V7H15.5V6H17.5V4H18.5V6H20.5V7ZM9.5 13H4.5C3.96957 13 3.46086 13.2107 3.08579 13.5858C2.71071 13.9609 2.5 14.4696 2.5 15V20C2.5 20.5304 2.71071 21.0391 3.08579 21.4142C3.46086 21.7893 3.96957 22 4.5 22H9.5C10.0304 22 10.5391 21.7893 10.9142 21.4142C11.2893 21.0391 11.5 20.5304 11.5 20V15C11.5 14.4696 11.2893 13.9609 10.9142 13.5858C10.5391 13.2107 10.0304 13 9.5 13ZM9.12 18.91L8.41 19.62L7 18.21L5.59 19.62L4.88 18.91L6.29 17.5L4.88 16.09L5.59 15.38L7 16.79L8.41 15.38L9.12 16.09L7.71 17.5L9.12 18.91Z" fill="white"/>
</svg>
