<svg viewBox="0 0 40 40" fill="none" xmlns="http://www.w3.org/2000/svg">
<path opacity="0.5" d="M36.6666 16.6666H3.33325V31.6666C3.33325 32.9927 3.86004 34.2645 4.79772 35.2022C5.7354 36.1399 7.00717 36.6666 8.33325 36.6666H31.6666C32.9927 36.6666 34.2644 36.1399 35.2021 35.2022C36.1398 34.2645 36.6666 32.9927 36.6666 31.6666V16.6666ZM11.6666 13.3333C11.2246 13.3333 10.8006 13.1577 10.4881 12.8452C10.1755 12.5326 9.99992 12.1087 9.99992 11.6666V4.99998C9.99992 4.55795 10.1755 4.13403 10.4881 3.82147C10.8006 3.50891 11.2246 3.33331 11.6666 3.33331C12.1086 3.33331 12.5325 3.50891 12.8451 3.82147C13.1577 4.13403 13.3333 4.55795 13.3333 4.99998V11.6666C13.3333 12.1087 13.1577 12.5326 12.8451 12.8452C12.5325 13.1577 12.1086 13.3333 11.6666 13.3333ZM28.3333 13.3333C27.8912 13.3333 27.4673 13.1577 27.1547 12.8452C26.8422 12.5326 26.6666 12.1087 26.6666 11.6666V4.99998C26.6666 4.55795 26.8422 4.13403 27.1547 3.82147C27.4673 3.50891 27.8912 3.33331 28.3333 3.33331C28.7753 3.33331 29.1992 3.50891 29.5118 3.82147C29.8243 4.13403 29.9999 4.55795 29.9999 4.99998V11.6666C29.9999 12.1087 29.8243 12.5326 29.5118 12.8452C29.1992 13.1577 28.7753 13.3333 28.3333 13.3333Z" fill="#ED622B"/>
<path d="M31.6666 6.66669H29.9999V11.6667C29.9999 12.1087 29.8243 12.5326 29.5118 12.8452C29.1992 13.1578 28.7753 13.3334 28.3333 13.3334C27.8912 13.3334 27.4673 13.1578 27.1547 12.8452C26.8422 12.5326 26.6666 12.1087 26.6666 11.6667V6.66669H13.3333V11.6667C13.3333 12.1087 13.1577 12.5326 12.8451 12.8452C12.5325 13.1578 12.1086 13.3334 11.6666 13.3334C11.2246 13.3334 10.8006 13.1578 10.4881 12.8452C10.1755 12.5326 9.99992 12.1087 9.99992 11.6667V6.66669H8.33325C7.00717 6.66669 5.7354 7.19347 4.79772 8.13115C3.86004 9.06884 3.33325 10.3406 3.33325 11.6667V16.6667H36.6666V11.6667C36.6666 10.3406 36.1398 9.06884 35.2021 8.13115C34.2644 7.19347 32.9927 6.66669 31.6666 6.66669Z" fill="#ED622B"/>
</svg>
