<svg width="24" height="24" viewBox="0 0 24 24" fill="none" xmlns="http://www.w3.org/2000/svg">
<path d="M12.9 11.1H16.5C16.7387 11.1 16.9676 11.1948 17.1364 11.3636C17.3052 11.5324 17.4 11.7613 17.4 12C17.4 12.2387 17.3052 12.4676 17.1364 12.6364C16.9676 12.8052 16.7387 12.9 16.5 12.9H12C11.7613 12.9 11.5324 12.8052 11.3636 12.6364C11.1948 12.4676 11.1 12.2387 11.1 12V6.6C11.1 6.3613 11.1948 6.13239 11.3636 5.9636C11.5324 5.79482 11.7613 5.7 12 5.7C12.2387 5.7 12.4676 5.79482 12.6364 5.9636C12.8052 6.13239 12.9 6.3613 12.9 6.6V11.1ZM12 21C7.0293 21 3 16.9707 3 12C3 7.0293 7.0293 3 12 3C16.9707 3 21 7.0293 21 12C21 16.9707 16.9707 21 12 21ZM12 19.2C13.9096 19.2 15.7409 18.4414 17.0912 17.0912C18.4414 15.7409 19.2 13.9096 19.2 12C19.2 10.0904 18.4414 8.25909 17.0912 6.90883C15.7409 5.55857 13.9096 4.8 12 4.8C10.0904 4.8 8.25909 5.55857 6.90883 6.90883C5.55857 8.25909 4.8 10.0904 4.8 12C4.8 13.9096 5.55857 15.7409 6.90883 17.0912C8.25909 18.4414 10.0904 19.2 12 19.2Z" fill="#132333"/>
</svg>
