<svg width="32" height="32" viewBox="0 0 32 32" fill="none" xmlns="http://www.w3.org/2000/svg">
<rect width="32" height="32" rx="12" fill="#F7F9FA"/>
<path d="M17.4158 16.0041L21.7158 11.7141C21.9041 11.5258 22.0099 11.2704 22.0099 11.0041C22.0099 10.7378 21.9041 10.4824 21.7158 10.2941C21.5275 10.1058 21.2721 10 21.0058 10C20.7395 10 20.4841 10.1058 20.2958 10.2941L16.0058 14.5941L11.7158 10.2941C11.5275 10.1058 11.2721 10 11.0058 10C10.7395 10 10.4841 10.1058 10.2958 10.2941C10.1075 10.4824 10.0017 10.7378 10.0017 11.0041C10.0017 11.2704 10.1075 11.5258 10.2958 11.7141L14.5958 16.0041L10.2958 20.2941C10.2021 20.3871 10.1277 20.4977 10.0769 20.6195C10.0261 20.7414 10 20.8721 10 21.0041C10 21.1361 10.0261 21.2668 10.0769 21.3887C10.1277 21.5105 10.2021 21.6211 10.2958 21.7141C10.3888 21.8078 10.4994 21.8822 10.6212 21.933C10.7431 21.9838 10.8738 22.0099 11.0058 22.0099C11.1378 22.0099 11.2685 21.9838 11.3904 21.933C11.5122 21.8822 11.6228 21.8078 11.7158 21.7141L16.0058 17.4141L20.2958 21.7141C20.3888 21.8078 20.4994 21.8822 20.6212 21.933C20.7431 21.9838 20.8738 22.0099 21.0058 22.0099C21.1378 22.0099 21.2685 21.9838 21.3904 21.933C21.5122 21.8822 21.6228 21.8078 21.7158 21.7141C21.8095 21.6211 21.8839 21.5105 21.9347 21.3887C21.9855 21.2668 22.0116 21.1361 22.0116 21.0041C22.0116 20.8721 21.9855 20.7414 21.9347 20.6195C21.8839 20.4977 21.8095 20.3871 21.7158 20.2941L17.4158 16.0041Z" fill="#132333"/>
</svg>
