<svg width="476" height="2" viewBox="0 0 476 2" fill="none" xmlns="http://www.w3.org/2000/svg">
<path d="M0 0V-0.5H-0.5V0H0ZM476 0H476.5V-0.5H476V0ZM476 2V2.5H476.5V2H476ZM0 2H-0.5V2.5H0V2ZM-0.5 0V0.5H0.5V0H-0.5ZM-0.5 1.5V2H0.5V1.5H-0.5ZM0 2.5H1.50633V1.5H0V2.5ZM4.51899 2.5H7.53165V1.5H4.51899V2.5ZM10.5443 2.5H13.557V1.5H10.5443V2.5ZM16.5696 2.5H19.5823V1.5H16.5696V2.5ZM22.5949 2.5H25.6076V1.5H22.5949V2.5ZM28.6203 2.5H31.6329V1.5H28.6203V2.5ZM34.6456 2.5H37.6582V1.5H34.6456V2.5ZM40.6709 2.5H43.6835V1.5H40.6709V2.5ZM46.6962 2.5H49.7089V1.5H46.6962V2.5ZM52.7215 2.5H55.7342V1.5H52.7215V2.5ZM58.7468 2.5H61.7595V1.5H58.7468V2.5ZM64.7721 2.5H67.7848V1.5H64.7721V2.5ZM70.7975 2.5H73.8101V1.5H70.7975V2.5ZM76.8228 2.5H79.8354V1.5H76.8228V2.5ZM82.8481 2.5H85.8607V1.5H82.8481V2.5ZM88.8734 2.5H91.8861V1.5H88.8734V2.5ZM94.8987 2.5H97.9114V1.5H94.8987V2.5ZM100.924 2.5H103.937V1.5H100.924V2.5ZM106.949 2.5H109.962V1.5H106.949V2.5ZM112.975 2.5H115.987V1.5H112.975V2.5ZM119 2.5H122.013V1.5H119V2.5ZM125.025 2.5H128.038V1.5H125.025V2.5ZM131.051 2.5H134.063V1.5H131.051V2.5ZM137.076 2.5H140.089V1.5H137.076V2.5ZM143.101 2.5H146.114V1.5H143.101V2.5ZM149.127 2.5H152.139V1.5H149.127V2.5ZM155.152 2.5H158.165V1.5H155.152V2.5ZM161.177 2.5H164.19V1.5H161.177V2.5ZM167.203 2.5H170.215V1.5H167.203V2.5ZM173.228 2.5H176.241V1.5H173.228V2.5ZM179.253 2.5H182.266V1.5H179.253V2.5ZM185.279 2.5H188.291V1.5H185.279V2.5ZM191.304 2.5H194.317V1.5H191.304V2.5ZM197.329 2.5H200.342V1.5H197.329V2.5ZM203.355 2.5H206.367V1.5H203.355V2.5ZM209.38 2.5H212.393V1.5H209.38V2.5ZM215.405 2.5H218.418V1.5H215.405V2.5ZM221.431 2.5H224.443V1.5H221.431V2.5ZM227.456 2.5H230.469V1.5H227.456V2.5ZM233.481 2.5H236.494V1.5H233.481V2.5ZM239.507 2.5H242.519V1.5H239.507V2.5ZM245.532 2.5H248.545V1.5H245.532V2.5ZM251.557 2.5H254.57V1.5H251.557V2.5ZM257.583 2.5H260.595V1.5H257.583V2.5ZM263.608 2.5H266.621V1.5H263.608V2.5ZM269.633 2.5H272.646V1.5H269.633V2.5ZM275.659 2.5H278.671V1.5H275.659V2.5ZM281.684 2.5H284.697V1.5H281.684V2.5ZM287.709 2.5H290.722V1.5H287.709V2.5ZM293.734 2.5H296.747V1.5H293.734V2.5ZM299.76 2.5H302.772V1.5H299.76V2.5ZM305.785 2.5H308.798V1.5H305.785V2.5ZM311.81 2.5H314.823V1.5H311.81V2.5ZM317.836 2.5H320.848V1.5H317.836V2.5ZM323.861 2.5H326.874V1.5H323.861V2.5ZM329.886 2.5H332.899V1.5H329.886V2.5ZM335.912 2.5H338.924V1.5H335.912V2.5ZM341.937 2.5H344.95V1.5H341.937V2.5ZM347.962 2.5H350.975V1.5H347.962V2.5ZM353.988 2.5H357V1.5H353.988V2.5ZM360.013 2.5H363.026V1.5H360.013V2.5ZM366.038 2.5H369.051V1.5H366.038V2.5ZM372.064 2.5H375.076V1.5H372.064V2.5ZM378.089 2.5H381.102V1.5H378.089V2.5ZM384.114 2.5H387.127V1.5H384.114V2.5ZM390.14 2.5H393.152V1.5H390.14V2.5ZM396.165 2.5H399.178V1.5H396.165V2.5ZM402.19 2.5H405.203V1.5H402.19V2.5ZM408.216 2.5H411.228V1.5H408.216V2.5ZM414.241 2.5H417.254V1.5H414.241V2.5ZM420.266 2.5H423.279V1.5H420.266V2.5ZM426.292 2.5H429.304V1.5H426.292V2.5ZM432.317 2.5H435.33V1.5H432.317V2.5ZM438.342 2.5H441.355V1.5H438.342V2.5ZM444.368 2.5H447.38V1.5H444.368V2.5ZM450.393 2.5H453.406V1.5H450.393V2.5ZM456.418 2.5H459.431V1.5H456.418V2.5ZM462.444 2.5H465.456V1.5H462.444V2.5ZM468.469 2.5H471.482V1.5H468.469V2.5ZM474.494 2.5H476V1.5H474.494V2.5ZM476.5 2V1.5H475.5V2H476.5ZM476.5 0.5V0H475.5V0.5H476.5ZM476 -0.5H474.494V0.5H476V-0.5ZM471.481 -0.5H468.468V0.5H471.481V-0.5ZM465.456 -0.5H462.443V0.5H465.456V-0.5ZM459.43 -0.5H456.418V0.5H459.43V-0.5ZM453.405 -0.5H450.392V0.5H453.405V-0.5ZM447.38 -0.5H444.367V0.5H447.38V-0.5ZM441.354 -0.5H438.342V0.5H441.354V-0.5ZM435.329 -0.5H432.316V0.5H435.329V-0.5ZM429.304 -0.5H426.291V0.5H429.304V-0.5ZM423.279 -0.5H420.266V0.5H423.279V-0.5ZM417.253 -0.5H414.241V0.5H417.253V-0.5ZM411.228 -0.5H408.215V0.5H411.228V-0.5ZM405.203 -0.5H402.19V0.5H405.203V-0.5ZM399.177 -0.5H396.165V0.5H399.177V-0.5ZM393.152 -0.5H390.139V0.5H393.152V-0.5ZM387.127 -0.5H384.114V0.5H387.127V-0.5ZM381.101 -0.5H378.089V0.5H381.101V-0.5ZM375.076 -0.5H372.063V0.5H375.076V-0.5ZM369.051 -0.5H366.038V0.5H369.051V-0.5ZM363.025 -0.5H360.013V0.5H363.025V-0.5ZM357 -0.5H353.987V0.5H357V-0.5ZM350.975 -0.5H347.962V0.5H350.975V-0.5ZM344.949 -0.5H341.937V0.5H344.949V-0.5ZM338.924 -0.5H335.911V0.5H338.924V-0.5ZM332.899 -0.5H329.886V0.5H332.899V-0.5ZM326.873 -0.5H323.861V0.5H326.873V-0.5ZM320.848 -0.5H317.835V0.5H320.848V-0.5ZM314.823 -0.5H311.81V0.5H314.823V-0.5ZM308.797 -0.5H305.785V0.5H308.797V-0.5ZM302.772 -0.5H299.759V0.5H302.772V-0.5ZM296.747 -0.5H293.734V0.5H296.747V-0.5ZM290.721 -0.5H287.709V0.5H290.721V-0.5ZM284.696 -0.5H281.683V0.5H284.696V-0.5ZM278.671 -0.5H275.658V0.5H278.671V-0.5ZM272.645 -0.5H269.633V0.5H272.645V-0.5ZM266.62 -0.5H263.607V0.5H266.62V-0.5ZM260.595 -0.5H257.582V0.5H260.595V-0.5ZM254.569 -0.5H251.557V0.5H254.569V-0.5ZM248.544 -0.5H245.531V0.5H248.544V-0.5ZM242.519 -0.5H239.506V0.5H242.519V-0.5ZM236.493 -0.5H233.481V0.5H236.493V-0.5ZM230.468 -0.5H227.455V0.5H230.468V-0.5ZM224.443 -0.5H221.43V0.5H224.443V-0.5ZM218.417 -0.5H215.405V0.5H218.417V-0.5ZM212.392 -0.5H209.379V0.5H212.392V-0.5ZM206.367 -0.5H203.354V0.5H206.367V-0.5ZM200.342 -0.5H197.329V0.5H200.342V-0.5ZM194.316 -0.5H191.303V0.5H194.316V-0.5ZM188.291 -0.5H185.278V0.5H188.291V-0.5ZM182.266 -0.5H179.253V0.5H182.266V-0.5ZM176.24 -0.5H173.227V0.5H176.24V-0.5ZM170.215 -0.5H167.202V0.5H170.215V-0.5ZM164.19 -0.5H161.177V0.5H164.19V-0.5ZM158.164 -0.5H155.152V0.5H158.164V-0.5ZM152.139 -0.5H149.126V0.5H152.139V-0.5ZM146.114 -0.5H143.101V0.5H146.114V-0.5ZM140.088 -0.5H137.076V0.5H140.088V-0.5ZM134.063 -0.5H131.05V0.5H134.063V-0.5ZM128.038 -0.5H125.025V0.5H128.038V-0.5ZM122.012 -0.5H119V0.5H122.012V-0.5ZM115.987 -0.5H112.974V0.5H115.987V-0.5ZM109.962 -0.5H106.949V0.5H109.962V-0.5ZM103.936 -0.5H100.924V0.5H103.936V-0.5ZM97.9109 -0.5H94.8982V0.5H97.9109V-0.5ZM91.8856 -0.5H88.8729V0.5H91.8856V-0.5ZM85.8602 -0.5H82.8476V0.5H85.8602V-0.5ZM79.8349 -0.5H76.8222V0.5H79.8349V-0.5ZM73.8096 -0.5H70.7969V0.5H73.8096V-0.5ZM67.7842 -0.5H64.7716V0.5H67.7842V-0.5ZM61.7589 -0.5H58.7462V0.5H61.7589V-0.5ZM55.7336 -0.5H52.7209V0.5H55.7336V-0.5ZM49.7083 -0.5H46.6956V0.5H49.7083V-0.5ZM43.6829 -0.5H40.6703V0.5H43.6829V-0.5ZM37.6576 -0.5H34.6449V0.5H37.6576V-0.5ZM31.6323 -0.5H28.6196V0.5H31.6323V-0.5ZM25.6069 -0.5H22.5943V0.5H25.6069V-0.5ZM19.5816 -0.5H16.5689V0.5H19.5816V-0.5ZM13.5563 -0.5H10.5436V0.5H13.5563V-0.5ZM7.53096 -0.5H4.51827V0.5H7.53096V-0.5ZM1.50561 -0.5H0V0.5H1.50561V-0.5ZM0 0V-1H-1V0H0ZM476 0H477V-1H476V0ZM476 2V3H477V2H476ZM0 2H-1V3H0V2ZM-1 0V0.5H1V0H-1ZM-1 1.5V2H1V1.5H-1ZM0 3H1.50633V1H0V3ZM4.51899 3H7.53165V1H4.51899V3ZM10.5443 3H13.557V1H10.5443V3ZM16.5696 3H19.5823V1H16.5696V3ZM22.5949 3H25.6076V1H22.5949V3ZM28.6203 3H31.6329V1H28.6203V3ZM34.6456 3H37.6582V1H34.6456V3ZM40.6709 3H43.6835V1H40.6709V3ZM46.6962 3H49.7089V1H46.6962V3ZM52.7215 3H55.7342V1H52.7215V3ZM58.7468 3H61.7595V1H58.7468V3ZM64.7721 3H67.7848V1H64.7721V3ZM70.7975 3H73.8101V1H70.7975V3ZM76.8228 3H79.8354V1H76.8228V3ZM82.8481 3H85.8607V1H82.8481V3ZM88.8734 3H91.8861V1H88.8734V3ZM94.8987 3H97.9114V1H94.8987V3ZM100.924 3H103.937V1H100.924V3ZM106.949 3H109.962V1H106.949V3ZM112.975 3H115.987V1H112.975V3ZM119 3H122.013V1H119V3ZM125.025 3H128.038V1H125.025V3ZM131.051 3H134.063V1H131.051V3ZM137.076 3H140.089V1H137.076V3ZM143.101 3H146.114V1H143.101V3ZM149.127 3H152.139V1H149.127V3ZM155.152 3H158.165V1H155.152V3ZM161.177 3H164.19V1H161.177V3ZM167.203 3H170.215V1H167.203V3ZM173.228 3H176.241V1H173.228V3ZM179.253 3H182.266V1H179.253V3ZM185.279 3H188.291V1H185.279V3ZM191.304 3H194.317V1H191.304V3ZM197.329 3H200.342V1H197.329V3ZM203.355 3H206.367V1H203.355V3ZM209.38 3H212.393V1H209.38V3ZM215.405 3H218.418V1H215.405V3ZM221.431 3H224.443V1H221.431V3ZM227.456 3H230.469V1H227.456V3ZM233.481 3H236.494V1H233.481V3ZM239.507 3H242.519V1H239.507V3ZM245.532 3H248.545V1H245.532V3ZM251.557 3H254.57V1H251.557V3ZM257.583 3H260.595V1H257.583V3ZM263.608 3H266.621V1H263.608V3ZM269.633 3H272.646V1H269.633V3ZM275.659 3H278.671V1H275.659V3ZM281.684 3H284.697V1H281.684V3ZM287.709 3H290.722V1H287.709V3ZM293.734 3H296.747V1H293.734V3ZM299.76 3H302.772V1H299.76V3ZM305.785 3H308.798V1H305.785V3ZM311.81 3H314.823V1H311.81V3ZM317.836 3H320.848V1H317.836V3ZM323.861 3H326.874V1H323.861V3ZM329.886 3H332.899V1H329.886V3ZM335.912 3H338.924V1H335.912V3ZM341.937 3H344.95V1H341.937V3ZM347.962 3H350.975V1H347.962V3ZM353.988 3H357V1H353.988V3ZM360.013 3H363.026V1H360.013V3ZM366.038 3H369.051V1H366.038V3ZM372.064 3H375.076V1H372.064V3ZM378.089 3H381.102V1H378.089V3ZM384.114 3H387.127V1H384.114V3ZM390.14 3H393.152V1H390.14V3ZM396.165 3H399.178V1H396.165V3ZM402.19 3H405.203V1H402.19V3ZM408.216 3H411.228V1H408.216V3ZM414.241 3H417.254V1H414.241V3ZM420.266 3H423.279V1H420.266V3ZM426.292 3H429.304V1H426.292V3ZM432.317 3H435.33V1H432.317V3ZM438.342 3H441.355V1H438.342V3ZM444.368 3H447.38V1H444.368V3ZM450.393 3H453.406V1H450.393V3ZM456.418 3H459.431V1H456.418V3ZM462.444 3H465.456V1H462.444V3ZM468.469 3H471.482V1H468.469V3ZM474.494 3H476V1H474.494V3ZM477 2V1.5H475V2H477ZM477 0.5V0H475V0.5H477ZM476 -1H474.494V1H476V-1ZM471.481 -1H468.468V1H471.481V-1ZM465.456 -1H462.443V1H465.456V-1ZM459.43 -1H456.418V1H459.43V-1ZM453.405 -1H450.392V1H453.405V-1ZM447.38 -1H444.367V1H447.38V-1ZM441.354 -1H438.342V1H441.354V-1ZM435.329 -1H432.316V1H435.329V-1ZM429.304 -1H426.291V1H429.304V-1ZM423.279 -1H420.266V1H423.279V-1ZM417.253 -1H414.241V1H417.253V-1ZM411.228 -1H408.215V1H411.228V-1ZM405.203 -1H402.19V1H405.203V-1ZM399.177 -1H396.165V1H399.177V-1ZM393.152 -1H390.139V1H393.152V-1ZM387.127 -1H384.114V1H387.127V-1ZM381.101 -1H378.089V1H381.101V-1ZM375.076 -1H372.063V1H375.076V-1ZM369.051 -1H366.038V1H369.051V-1ZM363.025 -1H360.013V1H363.025V-1ZM357 -1H353.987V1H357V-1ZM350.975 -1H347.962V1H350.975V-1ZM344.949 -1H341.937V1H344.949V-1ZM338.924 -1H335.911V1H338.924V-1ZM332.899 -1H329.886V1H332.899V-1ZM326.873 -1H323.861V1H326.873V-1ZM320.848 -1H317.835V1H320.848V-1ZM314.823 -1H311.81V1H314.823V-1ZM308.797 -1H305.785V1H308.797V-1ZM302.772 -1H299.759V1H302.772V-1ZM296.747 -1H293.734V1H296.747V-1ZM290.721 -1H287.709V1H290.721V-1ZM284.696 -1H281.683V1H284.696V-1ZM278.671 -1H275.658V1H278.671V-1ZM272.645 -1H269.633V1H272.645V-1ZM266.62 -1H263.607V1H266.62V-1ZM260.595 -1H257.582V1H260.595V-1ZM254.569 -1H251.557V1H254.569V-1ZM248.544 -1H245.531V1H248.544V-1ZM242.519 -1H239.506V1H242.519V-1ZM236.493 -1H233.481V1H236.493V-1ZM230.468 -1H227.455V1H230.468V-1ZM224.443 -1H221.43V1H224.443V-1ZM218.417 -1H215.405V1H218.417V-1ZM212.392 -1H209.379V1H212.392V-1ZM206.367 -1H203.354V1H206.367V-1ZM200.342 -1H197.329V1H200.342V-1ZM194.316 -1H191.303V1H194.316V-1ZM188.291 -1H185.278V1H188.291V-1ZM182.266 -1H179.253V1H182.266V-1ZM176.24 -1H173.227V1H176.24V-1ZM170.215 -1H167.202V1H170.215V-1ZM164.19 -1H161.177V1H164.19V-1ZM158.164 -1H155.152V1H158.164V-1ZM152.139 -1H149.126V1H152.139V-1ZM146.114 -1H143.101V1H146.114V-1ZM140.088 -1H137.076V1H140.088V-1ZM134.063 -1H131.05V1H134.063V-1ZM128.038 -1H125.025V1H128.038V-1ZM122.012 -1H119V1H122.012V-1ZM115.987 -1H112.974V1H115.987V-1ZM109.962 -1H106.949V1H109.962V-1ZM103.936 -1H100.924V1H103.936V-1ZM97.9109 -1H94.8982V1H97.9109V-1ZM91.8856 -1H88.8729V1H91.8856V-1ZM85.8602 -1H82.8476V1H85.8602V-1ZM79.8349 -1H76.8222V1H79.8349V-1ZM73.8096 -1H70.7969V1H73.8096V-1ZM67.7842 -1H64.7716V1H67.7842V-1ZM61.7589 -1H58.7462V1H61.7589V-1ZM55.7336 -1H52.7209V1H55.7336V-1ZM49.7083 -1H46.6956V1H49.7083V-1ZM43.6829 -1H40.6703V1H43.6829V-1ZM37.6576 -1H34.6449V1H37.6576V-1ZM31.6323 -1H28.6196V1H31.6323V-1ZM25.6069 -1H22.5943V1H25.6069V-1ZM19.5816 -1H16.5689V1H19.5816V-1ZM13.5563 -1H10.5436V1H13.5563V-1ZM7.53096 -1H4.51827V1H7.53096V-1ZM1.50561 -1H0V1H1.50561V-1Z" fill="#DEE1E5"/>
</svg>
