<svg width="16" height="16" viewBox="0 0 16 16" fill="none" xmlns="http://www.w3.org/2000/svg">
<g clip-path="url(#clip0)">
<path d="M-9.33325 0H22.6667V16H-9.33325V0Z" fill="#00AFCA"/>
<path d="M-7.44557 4.67414C-7.44557 4.99851 -7.15447 5.16513 -6.92557 5.16513C-6.6173 5.16513 -6.45314 4.9808 -6.45314 4.73952C-6.45314 4.60278 -6.47821 4.51691 -6.54125 4.38603C-6.54125 4.38603 -7.04973 3.32854 -7.2477 2.91958C-7.27234 2.86859 -7.28034 2.81046 -7.28034 2.72534C-7.28034 2.59382 -7.15287 2.48641 -7.01911 2.4831C-6.89719 2.48001 -6.76439 2.5967 -6.76439 2.72971C-6.76439 2.89121 -6.84823 2.96321 -6.93421 2.96321C-7.04013 2.96321 -7.08226 2.91969 -7.08226 2.84534C-7.08226 2.79361 -7.05719 2.7711 -7.02125 2.7711C-6.93047 2.7711 -6.95597 2.89334 -6.95597 2.89334C-6.91095 2.88342 -6.87383 2.83745 -6.89506 2.77985C-6.8621 2.77249 -6.83117 2.75521 -6.80685 2.72747C-6.83127 2.7039 -6.85911 2.68566 -6.89506 2.67947C-6.87383 2.60929 -6.90221 2.57494 -6.96365 2.56054C-6.95127 2.58753 -6.95074 2.61238 -6.9549 2.63585C-7.05165 2.60833 -7.19981 2.65206 -7.19981 2.81921C-7.19981 2.98507 -7.08471 3.1247 -6.86882 3.08982C-6.92013 3.11435 -6.94626 3.16459 -6.95149 3.22081C-6.91234 3.20555 -6.86882 3.20331 -6.86882 3.20331C-6.8941 3.24779 -6.92909 3.28619 -6.92759 3.37355C-6.88759 3.35531 -6.85037 3.32171 -6.79917 3.34305C-6.87959 3.50134 -6.78082 3.71926 -6.52919 3.77078C-6.62125 3.66283 -6.66637 3.54635 -6.66637 3.4303C-6.66637 3.05441 -6.56194 2.99115 -6.56194 2.72982C-6.56194 2.62049 -6.61815 2.50241 -6.72951 2.42209V2.42646C-6.65591 2.40673 -6.60877 2.37046 -6.58157 2.32118C-6.74978 2.2735 -6.99437 2.27435 -7.12567 2.32598C-7.27661 2.34347 -7.38199 2.45931 -7.41303 2.51809C-7.44407 2.57686 -7.50434 2.78934 -7.41303 2.9807C-7.31309 3.19009 -6.84173 4.18966 -6.69474 4.5039C-6.66359 4.57056 -6.64461 4.64118 -6.64461 4.71777C-6.64461 4.91019 -6.82093 4.97739 -6.92109 4.97739C-7.04077 4.97739 -7.16269 4.88619 -7.16269 4.77227C-7.16269 4.70006 -7.12354 4.65664 -7.0669 4.65664C-6.93154 4.65664 -6.93975 4.77174 -6.96674 4.84438C-6.88247 4.80651 -6.83351 4.73888 -6.84695 4.66763C-6.79927 4.66112 -6.75383 4.63851 -6.71202 4.59126C-6.74498 4.54966 -6.78519 4.51819 -6.84695 4.51702C-6.81997 4.40641 -6.89399 4.35969 -6.96674 4.33377C-6.94381 4.41494 -6.92866 4.50827 -7.0669 4.50827C-7.1677 4.50827 -7.24695 4.52576 -7.29335 4.59126C-7.29602 4.504 -7.30423 4.15915 -7.30423 4.15915C-7.30999 4.02955 -7.13079 4.03329 -7.01687 4.0719C-7.05986 3.92267 -7.14797 3.84193 -7.35213 3.86241C-7.30263 3.84171 -7.24983 3.7951 -7.24983 3.70529C-7.24983 3.58379 -7.34839 3.44918 -7.41314 3.40939L-7.44557 4.67414ZM8.43134 4.32171C8.5571 4.34507 8.61982 4.27606 8.63849 4.18187C8.66345 4.05643 8.60979 3.42443 8.60979 3.42443C8.60979 3.42443 8.31838 3.98774 8.29342 4.11318C8.27465 4.20747 8.30579 4.29675 8.43134 4.32171ZM8.89001 4.46091C9.00883 4.50838 9.08371 4.45291 9.12051 4.36427C9.16947 4.24609 9.24009 3.61579 9.24009 3.61579C9.24009 3.61579 8.84446 4.11137 8.7955 4.22966C8.75881 4.31819 8.77182 4.41195 8.89001 4.46091ZM9.31283 4.68683C9.42003 4.75659 9.50441 4.7168 9.55774 4.63702C9.62878 4.53067 9.82099 3.9263 9.82099 3.9263C9.82099 3.9263 9.33619 4.33515 9.26515 4.44161C9.21182 4.52129 9.20638 4.61579 9.31283 4.68683ZM9.68329 4.99094C9.77491 5.08022 9.86537 5.05761 9.93321 4.98976C10.0237 4.89931 10.3301 4.34411 10.3301 4.34411C10.3301 4.34411 9.77491 4.65056 9.68446 4.74102C9.61662 4.80886 9.59283 4.90049 9.68329 4.99094ZM9.9875 5.3615C10.0599 5.46699 10.153 5.4624 10.2328 5.40918C10.3392 5.33814 10.7481 4.85334 10.7481 4.85334C10.7481 4.85334 10.1438 5.04555 10.0374 5.1167C9.95753 5.16993 9.91635 5.25515 9.9875 5.3615ZM10.2134 5.78422C10.2639 5.90187 10.356 5.91552 10.4448 5.87883C10.563 5.82987 11.0585 5.43424 11.0585 5.43424C11.0585 5.43424 10.4282 5.50486 10.3101 5.55382C10.2214 5.59051 10.1645 5.66603 10.2134 5.78422ZM10.3525 6.24299C10.3791 6.36811 10.4669 6.39958 10.5609 6.38091C10.6864 6.35595 11.2497 6.06454 11.2497 6.06454C11.2497 6.06454 10.6178 6.01088 10.4922 6.03584C10.3983 6.05451 10.3277 6.11744 10.3525 6.24299ZM10.3996 6.72C10.4012 6.8479 10.4812 6.8959 10.577 6.8959C10.705 6.8959 11.3143 6.72 11.3143 6.72C11.3143 6.72 10.705 6.54411 10.577 6.54411C10.4812 6.54411 10.3996 6.59211 10.3996 6.72ZM10.3525 7.19702C10.3292 7.32278 10.3982 7.3855 10.4924 7.40416C10.6178 7.42912 11.2498 7.37547 11.2498 7.37547C11.2498 7.37547 10.6865 7.08406 10.561 7.0591C10.4669 7.04043 10.3775 7.07158 10.3525 7.19702ZM10.2134 7.65579C10.166 7.77462 10.2214 7.8495 10.3101 7.88619C10.4282 7.93515 11.0585 8.00576 11.0585 8.00576C11.0585 8.00576 10.563 7.61014 10.4448 7.56118C10.356 7.52449 10.2624 7.5376 10.2134 7.65579ZM9.9875 8.07851C9.91774 8.18571 9.95753 8.27008 10.0373 8.32342C10.1437 8.39456 10.748 8.58678 10.748 8.58678C10.748 8.58678 10.3392 8.10198 10.2327 8.03094C10.1529 7.9776 10.0585 7.97216 9.9875 8.07851ZM9.68329 8.44907C9.59401 8.54059 9.61662 8.63115 9.68446 8.69899C9.77491 8.78944 10.3301 9.0959 10.3301 9.0959C10.3301 9.0959 10.0237 8.54059 9.93321 8.45024C9.86547 8.3823 9.77385 8.35851 9.68329 8.44907ZM9.31283 8.75318C9.20734 8.8256 9.21182 8.91872 9.26515 8.99851C9.33619 9.10496 9.82099 9.51382 9.82099 9.51382C9.82099 9.51382 9.62878 8.90944 9.55774 8.8031C9.50441 8.7232 9.41918 8.68214 9.31283 8.75318ZM8.89001 8.9791C8.77235 9.02955 8.7587 9.12182 8.79539 9.21046C8.84435 9.32865 9.23998 9.82432 9.23998 9.82432C9.23998 9.82432 9.16937 9.19403 9.12041 9.07584C9.08382 8.9871 9.00819 8.93014 8.89001 8.9791ZM6.59582 8.75318C6.48862 8.68342 6.40425 8.72331 6.35091 8.8031C6.27987 8.90944 6.08766 9.51382 6.08766 9.51382C6.08766 9.51382 6.57235 9.10496 6.6435 8.99851C6.69673 8.91872 6.70217 8.82422 6.59582 8.75318ZM6.22526 8.44907C6.13363 8.35968 6.04318 8.3823 5.97534 8.45024C5.88489 8.5407 5.57843 9.0959 5.57843 9.0959C5.57843 9.0959 6.13363 8.78944 6.22409 8.69899C6.29203 8.63115 6.31571 8.53952 6.22526 8.44907ZM5.92115 8.07851C5.84873 7.97302 5.75561 7.9776 5.67582 8.03083C5.56947 8.10198 5.16051 8.58667 5.16051 8.58667C5.16051 8.58667 5.76478 8.39446 5.87123 8.32331C5.95113 8.27008 5.99219 8.18486 5.92115 8.07851ZM5.69523 7.65579C5.64478 7.53814 5.55262 7.52449 5.46387 7.56118C5.34569 7.61014 4.85011 8.00576 4.85011 8.00576C4.85011 8.00576 5.48041 7.93515 5.59859 7.88619C5.68723 7.8495 5.74419 7.77398 5.69523 7.65579ZM5.55603 7.19702C5.52947 7.0719 5.44169 7.04043 5.34761 7.0591C5.22217 7.08406 4.65886 7.37547 4.65886 7.37547C4.65886 7.37547 5.29075 7.42912 5.4163 7.40416C5.51038 7.3855 5.58099 7.32256 5.55603 7.19702ZM5.5091 6.72C5.5075 6.59211 5.4275 6.54411 5.33161 6.54411C5.20361 6.54411 4.59433 6.72 4.59433 6.72C4.59433 6.72 5.20361 6.8959 5.33161 6.8959C5.4275 6.8959 5.5091 6.8479 5.5091 6.72ZM5.55603 6.24299C5.57939 6.11723 5.51038 6.05451 5.41619 6.03584C5.29075 6.01088 4.65875 6.06454 4.65875 6.06454C4.65875 6.06454 5.22206 6.35595 5.3475 6.38091C5.44169 6.39958 5.53107 6.36843 5.55603 6.24299ZM5.69523 5.78422C5.7427 5.66539 5.68723 5.59051 5.59859 5.55382C5.48041 5.50486 4.85011 5.43424 4.85011 5.43424C4.85011 5.43424 5.34569 5.82987 5.46387 5.87883C5.55252 5.91552 5.64627 5.90241 5.69523 5.78422ZM5.92115 5.3615C5.99091 5.25419 5.95113 5.16992 5.87134 5.11659C5.76489 5.04544 5.16062 4.85323 5.16062 4.85323C5.16062 4.85323 5.56947 5.33803 5.67593 5.40907C5.75561 5.4624 5.85011 5.46784 5.92115 5.3615ZM6.22526 4.99094C6.31454 4.89931 6.29203 4.80886 6.22409 4.74102C6.13363 4.65056 5.57843 4.34411 5.57843 4.34411C5.57843 4.34411 5.88489 4.89931 5.97534 4.98976C6.04318 5.05771 6.13481 5.08139 6.22526 4.99094Z" fill="#FEC50C"/>
<path d="M7.95157 8.87552C9.1405 8.87552 10.1043 7.91171 10.1043 6.72278C10.1043 5.53385 9.1405 4.57003 7.95157 4.57003C6.76264 4.57003 5.79883 5.53385 5.79883 6.72278C5.79883 7.91171 6.76264 8.87552 7.95157 8.87552Z" fill="#FEC50C"/>
<path d="M7.95431 4.27477C8.08231 4.27317 8.13021 4.19317 8.13021 4.09727C8.13021 3.96938 7.95431 3.35999 7.95431 3.35999C7.95431 3.35999 7.77842 3.96927 7.77842 4.09727C7.77842 4.19317 7.82631 4.27477 7.95431 4.27477ZM8.43133 9.11818C8.3061 9.14474 8.27463 9.23253 8.29341 9.32661C8.31837 9.45215 8.60978 10.0154 8.60978 10.0154C8.60978 10.0154 8.66343 9.38346 8.63847 9.25791C8.61981 9.16394 8.55677 9.09333 8.43133 9.11818ZM7.95431 9.16522C7.82642 9.16693 7.77842 9.24682 7.77842 9.34282C7.77842 9.47082 7.95431 10.0801 7.95431 10.0801C7.95431 10.0801 8.13021 9.47082 8.13021 9.34282C8.13021 9.24671 8.08221 9.16522 7.95431 9.16522ZM7.47719 9.11818C7.35143 9.09482 7.28871 9.16394 7.27005 9.25802C7.24509 9.38357 7.29874 10.0155 7.29874 10.0155C7.29874 10.0155 7.59015 9.45226 7.61511 9.32671C7.63389 9.23263 7.60274 9.14325 7.47719 9.11818ZM7.01853 8.97909C6.8997 8.93162 6.82482 8.98719 6.78802 9.07583C6.73906 9.19402 6.66845 9.82431 6.66845 9.82431C6.66845 9.82431 7.06418 9.32874 7.11303 9.21045C7.14983 9.12181 7.13671 9.02805 7.01853 8.97909ZM6.59581 4.68682C6.7013 4.61439 6.69682 4.52127 6.64349 4.44149C6.57234 4.33514 6.08765 3.92618 6.08765 3.92618C6.08765 3.92618 6.27986 4.53055 6.3509 4.6369C6.40423 4.71679 6.48946 4.75797 6.59581 4.68682ZM7.01853 4.4609C7.13618 4.41045 7.14983 4.31818 7.11314 4.22954C7.06418 4.11135 6.66855 3.61567 6.66855 3.61567C6.66855 3.61567 6.73917 4.24597 6.78813 4.36415C6.82482 4.4529 6.90034 4.50986 7.01853 4.4609ZM7.47719 4.3217C7.60231 4.29514 7.63378 4.20735 7.61511 4.11327C7.59015 3.98773 7.29874 3.42453 7.29874 3.42453C7.29874 3.42453 7.24509 4.05642 7.27005 4.18197C7.28882 4.27605 7.35175 4.34666 7.47719 4.3217Z" fill="#FEC50C"/>
<path d="M7.87947 10.4791L7.84235 10.5535L7.80107 10.6484L7.77633 10.6939L7.75574 10.7351L7.7392 10.7682L7.71862 10.7888L7.66913 10.7475L7.61547 10.7103L7.55766 10.6814L7.49579 10.6566L7.42977 10.6401L7.36374 10.6236L7.29771 10.6112L7.22753 10.603L7.08299 10.5906L6.93857 10.5864L6.79819 10.5781L6.66614 10.5617L6.5919 10.5493L6.52171 10.5328L6.48459 10.5204L6.44747 10.508L6.41441 10.4915L6.3855 10.4751L6.34006 10.4462L6.29473 10.4131L6.24523 10.376L6.19979 10.3347L6.10486 10.2439L6.00993 10.1531L5.91499 10.0663L5.82827 9.98794L5.78699 9.95903L5.74571 9.93013L5.70859 9.91359L5.67147 9.90122L5.60128 9.88479L5.53942 9.86421L5.47745 9.84351L5.41547 9.81461L5.36182 9.78986L5.30817 9.75679L5.25867 9.72373L5.21323 9.69066L5.16374 9.65354L5.12246 9.61631L5.08118 9.57503L5.0399 9.53375L4.9615 9.44703L4.88715 9.35615L4.73857 9.16223L4.58177 8.96415L4.49099 8.86922L4.39606 8.77429L4.34241 8.72479L4.28875 8.67935L4.23094 8.63807L4.16907 8.59263L4.1567 8.59679L4.14433 8.60917L4.13195 8.6257L4.12374 8.64629L4.11137 8.68341L4.10721 8.69994L4.0783 8.68757L4.05355 8.67519L4.02465 8.66282L3.9999 8.6545H3.94625L3.91734 8.66282L3.88843 8.67519L3.91734 8.71242L3.95446 8.76191L3.99158 8.81973L4.02465 8.8817L4.05771 8.94773L4.08246 9.0097L4.09078 9.04277L4.09899 9.06751L4.10315 9.09642V9.12117H3.88022L3.91329 9.17066L3.95041 9.22015L3.99169 9.26965L4.03713 9.31509L4.08257 9.36053L4.1279 9.40586L4.17334 9.44298L4.21462 9.47189L4.16929 9.47605L4.10731 9.48021L4.04534 9.48842L4.00001 9.49258L4.03713 9.52565L4.08257 9.55871L4.13206 9.59583L4.18571 9.63306L4.23937 9.66613L4.29302 9.69503L4.34251 9.71157L4.38795 9.72394L4.40854 9.7281L4.42507 9.73226L4.43745 9.73631L4.44566 9.74463L4.44982 9.74879V9.76533L4.44566 9.77354L4.43745 9.79829L4.43329 9.82293L4.42913 9.83946V9.85183L4.43329 9.87242L4.43745 9.88885L4.44566 9.89717L4.45803 9.90549L4.47457 9.9137L4.49515 9.91786L4.51574 9.92607L4.53633 9.93429L4.55702 9.94261L4.57355 9.95498L4.57771 9.95914V9.96735L4.57355 9.97151L4.55702 9.98389L4.54049 9.99626L4.52395 10.0128L4.50742 10.0334V10.0499L4.50326 10.0664L4.50742 10.087L4.51158 10.1118L4.58177 10.1365L4.65611 10.1612L4.68918 10.1695L4.72214 10.1819L4.74689 10.1942L4.76747 10.2066L4.63126 10.3139L4.66838 10.347L4.71382 10.3717L4.77163 10.4006L4.82945 10.4213L4.89547 10.4419L4.95734 10.4543L5.01099 10.4667H5.06049L5.01505 10.4997L4.95723 10.5368L4.89537 10.5699L4.84993 10.603L4.89121 10.6319L4.94891 10.6608L5.01494 10.6939L5.09334 10.731L5.27489 10.8094L5.47297 10.8878L5.67937 10.962L5.88161 11.028L5.97249 11.057L6.05505 11.0775L6.12929 11.0982L6.19531 11.1106L6.06326 11.0982L5.93942 11.0817L5.81558 11.0611L5.70006 11.0364L5.58454 11.0033L5.47307 10.9702L5.36577 10.9331L5.26262 10.8918L5.06038 10.8093L4.87051 10.7268L4.77974 10.6896L4.68897 10.6525L4.60225 10.6194L4.51552 10.5863L4.53622 10.574L4.56097 10.5656L4.59403 10.5533L4.63115 10.545L4.70955 10.5202L4.77974 10.4955L4.6559 10.4749L4.48673 10.4418L4.40417 10.4171L4.33398 10.3965L4.30507 10.3841L4.28033 10.3717L4.25974 10.3594L4.24737 10.347V10.3429L4.25153 10.3388L4.2639 10.3346L4.27627 10.3263L4.30934 10.3139L4.35478 10.3015L4.45387 10.2726L4.53643 10.2437L4.33419 10.2065L4.17729 10.1818L4.11947 10.1694L4.07403 10.1528L4.0575 10.1446L4.04097 10.1323L4.02859 10.124L4.02027 10.1117L4.03265 10.1035L4.06977 10.0951L4.12342 10.0868L4.18539 10.0744L4.25142 10.0662L4.30913 10.0497L4.33803 10.0414L4.36278 10.0332L4.37931 10.0208L4.39585 10.0084L4.36278 9.99605L4.32971 9.98367L4.28843 9.97535L4.24715 9.96714L4.15222 9.95477L4.05729 9.94239L4.00779 9.93002L3.96246 9.9217L3.91702 9.90527L3.87158 9.88874L3.8303 9.86815L3.79318 9.83925L3.76011 9.81034L3.73537 9.77322L3.74369 9.76906L3.76022 9.76501H3.78081L3.81387 9.76906L3.88811 9.77322L3.97067 9.77738L4.06145 9.7857H4.17697L4.21003 9.78154L4.23478 9.77333L4.25131 9.76511L4.15222 9.72383L4.02017 9.66602L3.94593 9.62879L3.86753 9.59167L3.78913 9.55039L3.71073 9.50911L3.63638 9.46367L3.56619 9.41418L3.50017 9.36458L3.44246 9.31509L3.41771 9.28618L3.39297 9.26143L3.37643 9.23669L3.3599 9.20778L3.34337 9.18303L3.33505 9.15413L3.33089 9.12938L3.32673 9.10047H3.35563L3.3887 9.10463L3.42177 9.11701L3.45483 9.12938L3.52086 9.17066L3.5951 9.21194L3.62817 9.23253L3.66529 9.25322L3.70241 9.26975L3.73547 9.28213L3.77259 9.29034L3.80566 9.2945H3.84289L3.87595 9.28213L3.77686 9.20789L3.66539 9.11285L3.5375 9.00149L3.4095 8.87765L3.2815 8.74559L3.16182 8.61354L3.10817 8.54335L3.05451 8.47733L3.00907 8.4113L2.96779 8.34933L2.95947 8.3329V8.30399L2.96363 8.29162L2.96779 8.27925L2.98017 8.27093L2.99254 8.25855L3.00491 8.25023L3.02145 8.24618L3.03798 8.24202H3.07105L3.09163 8.24618L3.10817 8.25023L3.1247 8.26261L3.13707 8.27498L3.21131 8.34922L3.29803 8.43594L3.38891 8.53087L3.48801 8.62581L3.58699 8.71253L3.68609 8.79498L3.73558 8.82805L3.78102 8.85695L3.83051 8.8817L3.87595 8.89823L3.84289 8.87765L3.80566 8.84042L3.75617 8.79093L3.70251 8.72895L3.58283 8.58453L3.45078 8.41525L3.38475 8.32447L3.32289 8.2337L3.26507 8.14282L3.20737 8.0561L3.15787 7.97354L3.11659 7.89919L3.08769 7.82901L3.06294 7.77119L3.05878 7.75061V7.71754L3.06294 7.70517L3.07126 7.69279L3.07947 7.68042L3.08779 7.67221L3.10017 7.66389L3.12907 7.65567L3.15382 7.64735H3.21163L3.22817 7.65151L3.24054 7.65567L3.25707 7.66389L3.26945 7.67626L3.30251 7.70517L3.33558 7.74645L3.40982 7.84138L3.48822 7.96106L3.57899 8.08895L3.67393 8.22101L3.72342 8.28287L3.77291 8.34485L3.82657 8.3985L3.88427 8.44799L3.81409 8.31178L3.73569 8.15498L3.69441 8.06826L3.65729 7.98154L3.62006 7.89077L3.58699 7.79999L3.55809 7.70506L3.52918 7.61429L3.50859 7.52351L3.49206 7.43274L3.48374 7.34602L3.47958 7.26346L3.48374 7.22218L3.4879 7.18506L3.49206 7.14794L3.50027 7.11082L3.50859 7.09845L3.51275 7.08607L3.52513 7.0737L3.53334 7.06549L3.56225 7.05311L3.59115 7.0449H3.62006L3.64481 7.04906L3.65718 7.05322L3.66539 7.05738L3.66955 7.0657L3.67371 7.07807L3.71499 7.21013L3.75211 7.35039L3.78923 7.49482L3.82646 7.63519L3.86358 7.77557L3.91307 7.90762L3.93782 7.96959L3.96673 8.03146L3.99979 8.08927L4.03691 8.14709L4.01217 8.02741L3.99563 7.9201L3.9791 7.82101L3.97078 7.73023L3.96257 7.65183L3.95841 7.58165L3.96257 7.52383L3.96673 7.47434L3.97494 7.43306L3.98731 7.39999L3.99563 7.38762L4.00385 7.37525L4.01217 7.36703L4.02454 7.35882L4.03691 7.35466H4.07403L4.1071 7.36703L4.14017 7.38357L4.16907 7.51562L4.19798 7.64351L4.23105 7.76319L4.26817 7.87871L4.30945 7.99423L4.35489 8.10975L4.40438 8.22943L4.46209 8.34911L4.50337 8.42751L4.54465 8.50591L4.59009 8.58431L4.63552 8.66271L4.68502 8.73706L4.73451 8.8113L4.78817 8.88554L4.84182 8.95978L4.94091 9.08362L5.04406 9.19914L5.15137 9.31477L5.26283 9.42207L5.37835 9.52938L5.49803 9.62847L5.62187 9.72341L5.74987 9.81429L5.83659 9.8721L5.92737 9.92575L6.0223 9.97941L6.11307 10.0289L6.2575 10.0991L6.39777 10.1651L6.54635 10.2229L6.69494 10.2766L6.83531 10.3219L6.97974 10.359L7.12833 10.3921L7.27275 10.421L7.4255 10.4416L7.57409 10.4581L7.72683 10.4705L7.87947 10.4791ZM8.25547 11.734L8.32566 11.7422L8.35873 11.7546L8.36694 11.7586V11.7628H8.35873L8.35041 11.7669L8.28438 11.7793H8.23073L8.05739 11.7669L7.84683 11.7628L7.61985 11.7586L7.38454 11.7628L7.27307 11.7669L7.16161 11.7752L7.06262 11.7835L6.96769 11.7917L6.88929 11.804L6.8191 11.8206L6.79435 11.8288L6.76961 11.837L6.74902 11.8453L6.73249 11.8577L6.74081 11.8164L6.75723 11.7751L6.72833 11.7834L6.69942 11.7916L6.67467 11.8039L6.64993 11.8163L6.62934 11.8287L6.61281 11.8452L6.60043 11.8658L6.59627 11.8865L6.5839 11.8576L6.57569 11.8328L6.57153 11.8039L6.56737 11.7792L6.57153 11.7585L6.57569 11.7339L6.57985 11.7132L6.59222 11.6925L6.60043 11.676L6.61697 11.6555L6.6335 11.6389L6.65003 11.6225L6.69547 11.5936L6.74497 11.5647C6.77174 11.5809 6.80182 11.5927 6.83169 11.6019C6.85761 11.6053 6.88843 11.6011 6.91841 11.5936C6.96875 11.638 7.03617 11.6325 7.07937 11.5853C7.08848 11.5758 7.09552 11.5645 7.10006 11.5522C7.10689 11.5284 7.10561 11.4972 7.10006 11.4698L7.14955 11.4656L7.20726 11.4574L7.26923 11.4408L7.33526 11.4243L7.40129 11.4119L7.46315 11.3954L7.52097 11.3871L7.57046 11.383L7.54977 11.3995L7.50027 11.4367L7.44246 11.4821L7.40118 11.511L7.45483 11.5234L7.50017 11.5316L7.4671 11.5688L7.43414 11.606L7.40107 11.6432L7.37633 11.6763L7.40939 11.6886L7.44246 11.6968L7.47958 11.7051H7.55393L7.59105 11.6968L7.62817 11.6886L7.65707 11.6721L7.69014 11.6886L7.72321 11.701L7.75627 11.7092L7.78934 11.7174L7.86358 11.7256L7.94198 11.734H8.25547Z" fill="#FEC50C"/>
<path d="M6.9884 11.4988L7.00077 11.5028L7.01314 11.507L7.0173 11.5194L7.02146 11.5317L7.0173 11.5441L7.01314 11.5565L7.00077 11.5648H6.97187L6.96365 11.5565L6.95533 11.5441L6.95117 11.5317L6.95533 11.5194L6.96365 11.507L6.97187 11.5028L6.9884 11.4988Z" fill="#FEC50C"/>
<path d="M6.98356 11.5152L6.99188 11.5194L6.99605 11.5277L6.99188 11.5359L6.98356 11.5401L6.97535 11.5359L6.97119 11.5277L6.97535 11.5194L6.98356 11.5152Z" fill="#FEC50C"/>
<path d="M6.98684 11.5719C6.98188 11.572 6.97697 11.571 6.97238 11.5691C6.9678 11.5672 6.96363 11.5645 6.96011 11.561C6.95659 11.5575 6.9538 11.5533 6.95189 11.5487C6.94998 11.5442 6.94899 11.5393 6.94897 11.5343C6.94896 11.5293 6.94992 11.5244 6.95181 11.5198C6.95369 11.5153 6.95646 11.5111 6.95996 11.5076C6.96345 11.504 6.96761 11.5013 6.97219 11.4993C6.97676 11.4974 6.98167 11.4964 6.98663 11.4964C6.99664 11.4964 7.00626 11.5004 7.01336 11.5074C7.02046 11.5145 7.02447 11.5241 7.02449 11.5341C7.02452 11.5441 7.02057 11.5537 7.01351 11.5608C7.00645 11.5679 6.99686 11.5719 6.98684 11.5719Z" fill="#FEC50C"/>
<path d="M10.0619 11.9361L10.0331 11.9485L10.0042 11.9526L9.97942 11.9567L9.95883 11.9526L9.93824 11.9485L9.91765 11.9403L9.90112 11.9319L9.88054 11.9196L9.84747 11.8948L9.8144 11.8701L9.79787 11.8577L9.77717 11.8495L9.76064 11.8453H9.74006L9.70293 11.9237L9.65344 12.0228L9.63691 12.0476L9.62037 12.0682L9.60384 12.0805L9.58731 12.0929L9.56672 12.1011H9.54613L9.52555 12.0929L9.5008 12.0805L9.49259 12.0682L9.48427 12.0558L9.47605 12.0394L9.46773 12.0187L9.45952 11.9815L9.45536 11.9568L9.43062 11.9774L9.40587 12.0063L9.38528 12.0394L9.36054 12.0765L9.33163 12.1137L9.30272 12.1426L9.28619 12.1591L9.2656 12.1715L9.24501 12.1797L9.22027 12.1879H9.2079L9.1872 12.1921L9.16661 12.1879L9.15008 12.1797L9.10059 12.1219L9.04694 12.0641L9.00981 12.1219L8.96854 12.1715L8.94795 12.1921L8.92736 12.2127L8.90678 12.2291L8.88619 12.2415L8.86966 12.2498L8.84896 12.254H8.82838L8.81184 12.2498L8.79531 12.2415L8.78293 12.2291L8.7664 12.2085L8.75819 12.1838L8.74987 12.159L8.73333 12.1178L8.72917 12.0972L8.72096 12.0806L8.71264 12.0724H8.704L8.59253 12.254L8.576 12.2705L8.54709 12.2829L8.51403 12.2912L8.48107 12.2994H8.44384L8.41504 12.2912L8.40672 12.287L8.39435 12.2747L8.39019 12.2664V12.2499L8.40672 12.0683L8.39435 12.0724L8.37782 12.0806L8.36128 12.0888L8.34475 12.1054L8.31168 12.1425L8.27456 12.1838L8.23744 12.2291L8.192 12.2663L8.17141 12.2828L8.15083 12.2993L8.12608 12.3117L8.10549 12.3157L8.07659 12.32L8.056 12.3158L8.04779 12.3118L8.03947 12.3035L8.03531 12.2911V12.2787L8.03947 12.2251L8.04779 12.1714L8.05195 12.1425L8.04779 12.1178L8.04363 12.093L8.02709 12.0641L8.00235 12.1012L7.96107 12.1549L7.91158 12.2085L7.85792 12.2622L7.82902 12.2828L7.80011 12.3035L7.77536 12.3118L7.75467 12.32L7.74646 12.3158H7.73408L7.72587 12.3076L7.72171 12.3035L7.71349 12.2911L7.70933 12.2787V12.2622L7.70517 12.2416L7.70933 12.0848L7.60619 12.155L7.48235 12.2334L7.45355 12.2458L7.42048 12.2622L7.39158 12.2705L7.35851 12.2788L7.3296 12.287H7.3008L7.27189 12.2829L7.24715 12.2746L7.25952 12.2415L7.27189 12.2126L7.28427 12.1837L7.3008 12.1589L7.31734 12.1342L7.33387 12.1094L7.35445 12.0888L7.37504 12.0683L7.42048 12.0352L7.47414 12.0021L7.52779 11.9774L7.58976 11.9568L7.65163 11.9404L7.72181 11.928L7.792 11.9156L7.86219 11.9074L8.01493 11.8991L8.17174 11.8949H8.48544L8.56384 11.8908L8.63808 11.8867L8.71232 11.8826L8.78251 11.8743L8.8527 11.862L8.91456 11.8496L8.97653 11.8331L9.03435 11.8083L9.088 11.7836L9.13334 11.7505L9.17877 11.7174L9.2159 11.672L9.17461 11.5895L9.20768 11.5854L9.24075 11.5772L9.27382 11.5606L9.30262 11.5399L9.31499 11.5317L9.32736 11.5194L9.33557 11.5029L9.34389 11.4906L9.34805 11.474V11.4451L9.33984 11.4286L9.41003 11.4162L9.48427 11.4079L9.56267 11.4037H9.64523L9.8144 11.4119L9.98773 11.4243L10.1652 11.4449L10.3386 11.4614L10.5077 11.478L10.6646 11.4862V11.544L10.6605 11.5687L10.6523 11.5935L10.6439 11.6182L10.6357 11.6388L10.6234 11.6554L10.6068 11.6759L10.578 11.7048L10.5408 11.7296L10.5037 11.7461L10.4624 11.7544L10.417 11.7627L10.3715 11.7585L10.3302 11.7544L10.2848 11.7421L10.2435 11.7215L10.2022 11.7009L10.1692 11.672L10.1361 11.6389V11.7091L10.1237 11.7999L10.1154 11.8453L10.103 11.8866L10.0948 11.903L10.0825 11.9154L10.0742 11.9278L10.0619 11.9361ZM6.74347 11.5482L6.8384 11.5894L6.86315 11.5688L6.89621 11.5441L6.93333 11.5235L6.9664 11.5029L7.09024 11.4533L7.19755 11.4038L7.2512 11.3832L7.29653 11.3585L7.34197 11.3338L7.3791 11.309L7.47403 11.247L7.56896 11.1852L7.65973 11.1274L7.74229 11.0695L7.80427 11.02L7.85376 10.9746L7.90742 10.9251L7.96523 10.8715L7.98582 10.8509L8.01056 10.8343L8.03936 10.8178L8.07243 10.8013L8.14262 10.7682L8.2128 10.7435L8.30773 10.7187L8.41088 10.694L8.51819 10.6734L8.63787 10.6527L8.78229 10.6362L8.92672 10.6156L9.07531 10.599L9.21973 10.5743L9.26923 10.566L9.31467 10.5536L9.36416 10.5412L9.41366 10.5288L9.46315 10.4669L9.54155 10.3802L9.5952 10.3265L9.65707 10.277L9.72725 10.2234L9.80971 10.1697L9.93355 10.0954L10.0656 10.0293L10.2018 9.95914L10.3339 9.89728L10.4577 9.8353L10.5732 9.7776L10.6682 9.728L10.7425 9.6785L10.7631 9.61653L10.792 9.55466L10.8291 9.4928L10.8746 9.43082L10.9241 9.3648L10.986 9.29877L11.0521 9.22442L11.1346 9.14602L11.2089 9.08L11.2873 9.01397L11.3285 8.98506L11.3698 8.95616L11.4153 8.93141L11.4606 8.90666L11.506 8.88608L11.5515 8.86965L11.601 8.85728L11.6463 8.8449L11.6958 8.84074L11.7412 8.83669L11.7907 8.84074L11.8362 8.84906L11.832 8.89856L11.8196 8.94805L11.8031 8.99754L11.7824 9.0512L11.7536 9.10485L11.7164 9.1585L11.671 9.21632L11.6174 9.27413L11.6587 9.26997L11.6958 9.26176L11.7247 9.25344L11.7536 9.24106L11.7783 9.23274L11.8073 9.22442L11.8444 9.22037L11.8857 9.21621L11.8898 9.24512V9.27402L11.8857 9.30293L11.8774 9.32768L11.8651 9.35242L11.8485 9.37717L11.832 9.39786L11.8114 9.41845L11.7247 9.50101L11.638 9.57941L11.6875 9.58357L11.7411 9.6001L11.7948 9.61653L11.8361 9.62485L11.7866 9.66197L11.7287 9.6992L11.6709 9.73632L11.6049 9.77344L11.5389 9.81056L11.4729 9.85184L11.4068 9.89728L11.3449 9.94677L11.3738 9.95093L11.4109 9.96736L11.4274 9.97152L11.4439 9.97973L11.4563 9.98389L11.4687 9.97973L11.3861 10.0252L11.283 10.0747L11.2335 10.0994L11.1922 10.1242L11.1716 10.1365L11.1593 10.1489L11.151 10.1613L11.1427 10.1736L11.1469 10.1902L11.1551 10.2026L11.1716 10.2149L11.184 10.2273L11.1798 10.2438L11.1715 10.2562L11.155 10.2686L11.1385 10.281L11.1013 10.3016L11.0518 10.3222L11.0023 10.3387L10.9569 10.3552L10.9238 10.3716L10.8991 10.384L10.9817 10.4666L10.9527 10.4955L10.9238 10.516L10.8991 10.5284L10.8702 10.5408L10.8124 10.549H10.734L10.7423 10.5861L10.7547 10.6232L10.763 10.6645L10.7712 10.7059L10.701 10.7596L10.6143 10.8214L10.5194 10.8833L10.4121 10.9453L10.3501 10.9783L10.2882 11.0072L10.2222 11.032L10.152 11.0567L10.0777 11.0815L9.99925 11.098L9.91669 11.1144L9.82998 11.1268L9.98272 11.131H10.1148L10.2386 11.1186L10.35 11.1062L10.4531 11.0856L10.544 11.0609L10.6348 11.0278L10.7215 10.9948L10.837 10.9411L10.9485 10.8792L11.0558 10.8132L11.1673 10.7472L11.1012 10.7141L11.0352 10.6935L11.0021 10.6812L10.9691 10.6646L10.9319 10.6482L10.8948 10.6276L10.9279 10.6029L10.965 10.5863L11.0103 10.5698L11.0598 10.5574L11.1589 10.5368L11.2621 10.5245L11.353 10.5121L11.4355 10.5039L11.4686 10.4957L11.4975 10.4875L11.514 10.4791L11.5264 10.4668L11.5222 10.4626L11.5139 10.4544L11.5015 10.4502L11.485 10.442L11.4396 10.4337L11.3818 10.4254L11.3241 10.4213L11.2662 10.413L11.2167 10.4006L11.1837 10.3883L11.295 10.3635L11.4065 10.3388L11.5056 10.3182L11.5882 10.2976L11.6583 10.277L11.7203 10.2523L11.7492 10.2399L11.7698 10.2275L11.7905 10.2151L11.807 10.1986L11.8029 10.1944L11.7947 10.1861L11.7781 10.182L11.7575 10.1778L11.7039 10.1736H11.6419L11.5759 10.1696L11.5139 10.1654L11.4603 10.1572L11.4272 10.1489L11.4561 10.1365L11.485 10.1242L11.584 10.0952L11.6707 10.0705L11.7491 10.0499L11.8235 10.0252L11.9019 10.0004L11.9803 9.96736L12.0174 9.94677L12.0505 9.92618L12.0628 9.91381L12.0752 9.89738L12.0876 9.88501L12.0917 9.87264L12.0876 9.86026L12.0752 9.85205L12.0628 9.84789H11.9473L11.8937 9.85205H11.8193L11.7987 9.84789L11.7822 9.83968L11.7657 9.83146L11.9308 9.72416L12.0835 9.62506L12.2197 9.53834L12.3394 9.45578L12.3889 9.4145L12.4343 9.37322L12.4715 9.33194L12.5045 9.29066L12.5293 9.24522L12.55 9.19989L12.5623 9.1504V9.09674H12.5335L12.5046 9.1009L12.4716 9.11328L12.4385 9.12565L12.3725 9.16693L12.3023 9.20821L12.2652 9.2288L12.2321 9.24938L12.195 9.26592L12.1578 9.27829L12.1248 9.28661L12.0917 9.29077H12.0545L12.0214 9.2784L12.1205 9.20416L12.232 9.10922L12.3599 8.99776L12.4879 8.87392L12.6159 8.74186L12.7356 8.60981L12.7892 8.53962L12.8429 8.4736L12.8883 8.40757L12.9296 8.3457L12.9379 8.32917L12.9421 8.3168L12.9379 8.30037L12.9338 8.288L12.9296 8.27562L12.9172 8.26741L12.9049 8.25504L12.8925 8.25088L12.8759 8.24266L12.8594 8.2385H12.8263L12.8098 8.24266L12.7892 8.24682L12.7769 8.2592L12.7603 8.27157L12.6861 8.34592L12.5994 8.43264L12.5085 8.52757L12.4094 8.6225L12.3103 8.70922L12.2113 8.79178L12.1618 8.82485L12.1164 8.85376L12.0669 8.8785L12.0256 8.89909L12.0545 8.87434L12.0916 8.83722L12.1411 8.78762L12.1948 8.72576L12.3145 8.58133L12.4465 8.41216L12.5125 8.32128L12.5745 8.2304L12.6365 8.14368L12.6901 8.0529L12.7396 7.97034L12.7809 7.896L12.814 7.82581L12.8346 7.768L12.8387 7.74741V7.71434L12.8346 7.70197L12.8263 7.6896L12.818 7.67722L12.8098 7.66901L12.7974 7.66485L12.7727 7.65248L12.7438 7.64416H12.6861L12.6695 7.64832L12.6572 7.65248L12.6406 7.66069L12.6283 7.67306L12.5952 7.70197L12.5621 7.74325L12.4879 7.83818L12.4095 7.95786L12.3228 8.08576L12.2278 8.21781L12.1742 8.27978L12.1247 8.34165L12.071 8.3953L12.0132 8.4448L12.0875 8.30858L12.1617 8.15178L12.203 8.06506L12.2401 7.97845L12.2772 7.88768L12.3103 7.7969L12.3392 7.70197L12.3681 7.6112L12.3887 7.52042L12.4052 7.42965L12.4134 7.34293L12.4176 7.26037L12.4134 7.21909L12.4093 7.18197L12.4051 7.14485L12.3968 7.10773L12.3926 7.09536L12.3844 7.08298L12.3721 7.07061L12.3637 7.0624L12.3349 7.05002L12.306 7.04181H12.2771L12.2524 7.04597L12.2441 7.05013L12.2317 7.05429L12.2275 7.06261L12.2234 7.07498L12.1821 7.2112L12.1449 7.34741L12.1077 7.49184L12.0706 7.63221L12.0335 7.77258L11.984 7.90464L11.9593 7.97066L11.9303 8.02848L11.8973 8.09034L11.8602 8.144L11.8849 8.02432L11.9014 7.91701L11.918 7.81792L11.9262 7.72714L11.9345 7.64874L11.9387 7.57856L11.9345 7.52074L11.9303 7.47125L11.922 7.42997L11.9097 7.3969L11.9014 7.38453L11.8932 7.37216L11.8849 7.36394L11.8725 7.35978L11.8602 7.35562L11.8478 7.35146H11.8354L11.823 7.35562L11.79 7.36384L11.7569 7.38037L11.728 7.51242L11.6991 7.64042L11.666 7.7601L11.6289 7.87562L11.5876 7.99114L11.5423 8.10666L11.4928 8.22634L11.435 8.34602L11.3937 8.42442L11.3524 8.50282L11.3071 8.58122L11.2617 8.65962L11.2122 8.73386L11.1627 8.8081L11.109 8.88245L11.0554 8.9568L10.9563 9.08053L10.8531 9.19616L10.7458 9.31168L10.6345 9.41898L10.5188 9.52629L10.3991 9.62538L10.2753 9.72032L10.1473 9.81109L10.0606 9.8689L9.96971 9.92672L9.87894 9.98037L9.78816 10.034L9.64374 10.1L9.49931 10.1661L9.35072 10.2197L9.20214 10.2734L9.07829 10.3106L8.95445 10.3477L8.82656 10.3766L8.69856 10.4055L8.57067 10.4261L8.43861 10.4427L8.31062 10.4591L8.17856 10.4673L8.16619 10.4715L8.15382 10.4756L8.12907 10.488L8.10016 10.5086L8.05888 10.5457L8.00523 10.5953L7.9392 10.6613L7.8608 10.748L7.78656 10.8348L7.69984 10.9297L7.6544 10.9751L7.60907 11.0206L7.55542 11.0619L7.50176 11.1031L7.46048 11.132L7.4192 11.1568L7.37387 11.1775L7.32843 11.1981L7.22933 11.2394L7.13024 11.2765L7.03115 11.3137L6.94443 11.3468L6.90731 11.3633L6.87019 11.3839L6.83712 11.4004L6.81237 11.417L6.78763 11.4417L6.76704 11.4623L6.75467 11.483L6.74635 11.5036L6.74219 11.5325L6.74347 11.5482Z" fill="#FEC50C"/>
<path d="M6.98348 11.5436C6.97938 11.5436 6.97545 11.5419 6.97255 11.539C6.96965 11.5361 6.96802 11.5322 6.96802 11.5281C6.96802 11.524 6.96965 11.5201 6.97255 11.5172C6.97545 11.5143 6.97938 11.5126 6.98348 11.5126C6.98759 11.5126 6.99152 11.5143 6.99442 11.5172C6.99732 11.5201 6.99895 11.524 6.99895 11.5281C6.99895 11.5322 6.99732 11.5361 6.99442 11.539C6.99152 11.5419 6.98759 11.5436 6.98348 11.5436Z" fill="#FEC50C" stroke="#00AFCA" stroke-width="0.191"/>
</g>
<defs>
<clipPath id="clip0">
<path d="M0 8C0 3.58172 3.58172 0 8 0C12.4183 0 16 3.58172 16 8C16 12.4183 12.4183 16 8 16C3.58172 16 0 12.4183 0 8Z" fill="white"/>
</clipPath>
</defs>
</svg>
