<svg width="121" height="44" viewBox="0 0 121 44" fill="none" xmlns="http://www.w3.org/2000/svg">
<path d="M120.881 9.05235L116.628 23.0878C115.887 25.5247 114.739 27.5048 113.205 28.9974C111.664 30.4977 109.851 31.4648 107.818 31.8685C105.794 32.2721 103.671 32.135 101.51 31.4725C99.2811 30.7871 97.415 29.698 95.972 28.2282C94.5063 26.7432 93.5468 24.9231 93.0935 22.8136C92.6402 20.7117 92.7989 18.4195 93.5317 15.9901L97.7852 1.95468C98.2234 0.500117 99.7571 -0.322339 101.208 0.119361C102.651 0.561061 103.467 2.11463 103.028 3.56919L98.6918 17.894C98.0345 20.072 98.1176 21.9378 98.9411 23.4381C99.7646 24.946 101.125 26.0045 102.998 26.5757C104.857 27.1468 106.504 27.0402 108.037 26.2406C109.541 25.4486 110.636 23.9483 111.301 21.7703L115.638 7.44549C116.076 5.99092 117.617 5.16845 119.06 5.61015C120.511 6.04423 121.319 7.59779 120.881 9.05235Z" fill="#5AE0B6"/>
<path d="M24.9922 27.9312C24.01 29.066 22.8087 30.0179 21.4337 30.7871C19.3712 31.937 17.0216 32.5082 14.4831 32.5082C11.8539 32.5082 9.39849 31.8761 7.19997 30.6195C5.00145 29.363 3.22602 27.619 1.94922 25.441C0.657303 23.2629 0 20.8107 0 18.1605C0 15.5103 0.657303 13.0581 1.94922 10.8725C3.23358 8.69444 5.00145 6.95809 7.19997 5.69391C9.39849 4.44496 11.8539 3.80527 14.4831 3.80527C16.9989 3.80527 19.3183 4.39165 21.3959 5.52637C22.7558 6.28792 23.9495 7.23225 24.9317 8.34412C25.4001 8.86959 25.6268 9.57022 25.5512 10.2708C25.4832 10.9715 25.1206 11.6036 24.5615 12.0224C23.5416 12.7763 22.1061 12.6393 21.2902 11.7102C20.6178 10.941 19.8396 10.2937 18.9934 9.79869C17.6864 9.03714 16.1829 8.64874 14.5133 8.64874C12.7983 8.64874 11.2117 9.05999 9.82158 9.87485C8.43145 10.6821 7.32086 11.8244 6.52758 13.2714C5.72675 14.7183 5.32633 16.3633 5.32633 18.1529C5.32633 19.9349 5.72675 21.5799 6.52758 23.0268C7.32086 24.4662 8.43145 25.6085 9.82158 26.4234C11.2117 27.2306 12.7907 27.6495 14.5133 27.6495C16.1829 27.6495 17.6864 27.2611 18.9859 26.4995C19.8396 26.0045 20.6178 25.3648 21.2902 24.588C22.1061 23.6513 23.5416 23.5142 24.5615 24.2758C25.1357 24.7023 25.4983 25.3344 25.5663 26.0274C25.6419 26.7356 25.4303 27.421 24.9922 27.9312Z" fill="#ED622B"/>
<path d="M44.4464 12.982C42.8825 11.4741 40.7973 10.7049 38.2286 10.7049C36.4305 10.7049 34.7759 11.0781 33.3027 11.8016C32.3659 12.2661 31.497 12.8906 30.7339 13.6598C30.2958 14.1091 30.0465 14.7107 30.0465 15.3276C30.0465 15.9292 30.2807 16.5004 30.6962 16.9192C31.5423 17.795 32.9098 17.8407 33.8164 17.0258C34.2395 16.6374 34.6626 16.3328 35.0932 16.0967C35.879 15.6398 36.7931 15.4189 37.8282 15.4189C39.0521 15.4189 40.004 15.7464 40.6537 16.3937C41.3035 17.0258 41.6284 17.9854 41.6284 19.2496V20.1101H36.4531C34.1262 20.1101 32.2374 20.6584 30.8397 21.755C29.4118 22.8821 28.6941 24.3976 28.6941 26.2711C28.6941 28.1445 29.3816 29.6676 30.7491 30.8175C32.1014 31.937 33.8769 32.5082 36.0527 32.5082C37.4504 32.5082 38.7272 32.2645 39.868 31.7771C40.6991 31.4191 41.4395 30.9394 42.0741 30.353C42.1874 30.7261 42.3914 31.0688 42.6634 31.343C43.1167 31.7999 43.7438 32.0588 44.3784 32.0588C45.7156 32.0588 46.8036 30.9698 46.8036 29.6219V19.5009C46.8036 16.6907 46.0103 14.4975 44.4464 12.982ZM36.9367 28.312C36.0074 28.312 35.2519 28.1064 34.6777 27.7028C34.1488 27.322 33.892 26.8194 33.892 26.1187C33.892 25.4486 34.1186 24.9764 34.6022 24.6566C35.1461 24.2986 35.9469 24.1159 36.9744 24.1159H41.6208C41.5981 25.3191 41.1599 26.2863 40.2685 27.0859C39.3543 27.9084 38.2664 28.312 36.9367 28.312Z" fill="#ED622B"/>
<path d="M66.2201 25.9512C66.2201 28.015 65.4571 29.6524 63.9461 30.8175C62.4653 31.9446 60.6067 32.5158 58.4158 32.5158C56.6554 32.5158 55.0387 32.1426 53.6032 31.4115C52.7797 30.9927 52.0393 30.4824 51.3744 29.9037C50.9211 29.5 50.6492 28.9365 50.6189 28.3272C50.5812 27.7028 50.7927 27.1088 51.2082 26.6518L51.2687 26.5833C52.0695 25.6923 53.437 25.5857 54.3587 26.3396C54.8044 26.6899 55.2426 27.0021 55.6959 27.2382C56.527 27.6875 57.4412 27.916 58.4158 27.916C59.2468 27.916 59.9343 27.7409 60.4632 27.4058C60.9391 27.1088 61.1658 26.6975 61.1658 26.1111C61.1658 25.6542 61.0071 25.3344 60.6823 25.0983C60.2667 24.786 59.5868 24.4357 58.6424 24.0397L56.6177 23.1868C54.8195 22.4328 53.4597 21.5875 52.5682 20.6813C51.6389 19.7293 51.1705 18.4728 51.1705 16.9421C51.1705 15.0077 51.8958 13.4618 53.3237 12.3499C54.7138 11.2609 56.4892 10.7049 58.6122 10.7049C60.8409 10.7049 62.7675 11.3218 64.3465 12.5403C64.8451 12.9211 65.1624 13.4922 65.2229 14.1243C65.2833 14.7564 65.0793 15.3961 64.6638 15.8683C63.9309 16.7136 62.6844 16.8963 61.7551 16.2871C61.468 16.1119 61.1658 15.9444 60.8561 15.8073C60.1081 15.4799 59.3224 15.3123 58.5291 15.3123C57.7887 15.3123 57.207 15.4494 56.7914 15.7236C56.4288 15.9673 56.2701 16.3099 56.2701 16.7821C56.2701 17.1705 56.3986 17.4523 56.6932 17.696C57.0483 18.0006 57.698 18.3433 58.6197 18.7317L60.5236 19.5009C62.4577 20.3081 63.8932 21.2067 64.7998 22.1587C65.7442 23.1487 66.2201 24.4281 66.2201 25.9512Z" fill="#ED622B"/>
<path d="M88.4697 19.0972V29.4772C88.4697 30.9089 87.3213 32.0665 85.901 32.0665C84.4806 32.0665 83.3323 30.9089 83.3323 29.4772V19.7065C83.3323 18.4271 82.9923 17.4294 82.2745 16.6527C81.5719 15.8835 80.6502 15.5103 79.449 15.5103C78.2402 15.5103 77.2807 15.8911 76.5101 16.6755C75.7394 17.4675 75.3617 18.4575 75.3617 19.7065V29.4772C75.3617 30.9089 74.2133 32.0665 72.793 32.0665C71.3726 32.0665 70.2242 30.9089 70.2242 29.4772V3.17317C70.2242 1.74146 71.3726 0.5839 72.793 0.5839C74.2133 0.5839 75.3617 1.74146 75.3617 3.17317V12.5174C75.9132 12.0529 76.5403 11.6569 77.2278 11.3599C78.2628 10.9182 79.4188 10.6973 80.6653 10.6973C83.0527 10.6973 84.9717 11.4893 86.377 13.0429C87.072 13.8197 87.5933 14.7183 87.9408 15.7312C88.2959 16.7364 88.4697 17.8635 88.4697 19.0972Z" fill="#ED622B"/>
<path d="M105.182 24.0473C107.597 24.0473 109.556 22.0732 109.556 19.6379C109.556 17.2027 107.597 15.2286 105.182 15.2286C102.766 15.2286 100.807 17.2027 100.807 19.6379C100.807 22.0732 102.766 24.0473 105.182 24.0473Z" fill="#ED622B"/>
<path d="M24.7277 38.9661C24.7277 39.0651 24.7201 39.187 24.7126 39.3393C24.705 39.4916 24.6823 39.6591 24.6521 39.8495C24.6219 40.0399 24.5841 40.2379 24.5312 40.4435C24.4784 40.6492 24.4179 40.8548 24.3348 41.0604C24.2517 41.266 24.1535 41.4564 24.0326 41.6392C23.9117 41.822 23.7757 41.9819 23.6095 42.1266C23.4433 42.2636 23.2544 42.3779 23.0429 42.4616C22.8238 42.5454 22.582 42.5835 22.3101 42.5835C22.0683 42.5835 21.8567 42.553 21.6905 42.4845C21.5243 42.416 21.3883 42.3246 21.2826 42.2027C21.1768 42.0809 21.1012 41.9362 21.0559 41.7686C21.0106 41.6011 20.9879 41.4107 20.9879 41.2127C20.9879 41.0376 21.003 40.8548 21.0332 40.6568C21.0635 40.4588 21.1164 40.2608 21.1844 40.0628C21.2523 39.8648 21.3355 39.6744 21.4412 39.4916C21.547 39.3088 21.6754 39.1489 21.8265 39.0118C21.9776 38.8747 22.1438 38.7605 22.3403 38.6767C22.5292 38.593 22.7482 38.5549 22.99 38.5549C23.1335 38.5549 23.262 38.5701 23.3753 38.6082C23.4886 38.6463 23.5944 38.692 23.6851 38.7529C23.7757 38.8138 23.8513 38.8824 23.9117 38.9661C23.9722 39.0499 24.025 39.1413 24.0553 39.2403C24.0628 39.2098 24.0628 39.1794 24.0628 39.1489C24.0628 39.1185 24.0628 39.0651 24.0628 39.0042C24.0628 38.7834 24.0402 38.5777 23.9948 38.3797C23.9495 38.1817 23.874 38.0142 23.7606 37.8695C23.6549 37.7248 23.5113 37.6106 23.33 37.5192C23.1487 37.4354 22.922 37.3897 22.65 37.3897C22.5669 37.3897 22.5141 37.3821 22.4914 37.3593C22.4687 37.3364 22.4536 37.306 22.4536 37.2679C22.4536 37.2526 22.4536 37.2374 22.4612 37.2146C22.4612 37.1917 22.4687 37.1689 22.4763 37.1384C22.4838 37.1079 22.4914 37.0851 22.4914 37.0546C22.4989 37.0242 22.5065 36.9937 22.5141 36.9709C22.5216 36.948 22.5291 36.9176 22.5443 36.8947C22.5518 36.8719 22.5669 36.8566 22.5745 36.849C22.5896 36.8338 22.6123 36.8186 22.6425 36.8109C22.6727 36.8033 22.718 36.8033 22.7785 36.8033C23.0731 36.8033 23.3451 36.8414 23.5793 36.9252C23.8211 37.0089 24.0251 37.1308 24.1913 37.3059C24.3575 37.4811 24.4859 37.702 24.5766 37.9837C24.6823 38.2503 24.7277 38.5777 24.7277 38.9661ZM23.8135 40.2608C23.8135 39.9028 23.7455 39.6211 23.6095 39.4231C23.4735 39.2251 23.2771 39.1184 23.0202 39.1184C22.8465 39.1184 22.6954 39.1565 22.5594 39.2251C22.4309 39.3012 22.3101 39.3926 22.2194 39.5068C22.1287 39.6211 22.0381 39.7581 21.9776 39.9028C21.9096 40.0475 21.8568 40.1998 21.819 40.3445C21.7812 40.4968 21.751 40.6339 21.7283 40.7786C21.7132 40.9157 21.6981 41.0299 21.6981 41.1289C21.6981 41.4107 21.7585 41.6239 21.8719 41.7763C21.9852 41.9286 22.1665 42.0047 22.4083 42.0047C22.5745 42.0047 22.718 41.9743 22.854 41.921C22.99 41.86 23.1033 41.7915 23.2091 41.6925C23.3149 41.6011 23.4056 41.4945 23.4811 41.3726C23.5567 41.2508 23.6171 41.1289 23.67 40.9995C23.7229 40.87 23.7606 40.7405 23.7833 40.6111C23.7984 40.4892 23.8135 40.3674 23.8135 40.2608Z" fill="#ED622B"/>
<path d="M29.1928 39.4688C29.1928 39.6591 29.1474 39.8267 29.0643 39.979C28.9812 40.1313 28.8452 40.2608 28.6563 40.3674C28.475 40.474 28.2333 40.5578 27.9462 40.6111C27.6591 40.672 27.3116 40.6949 26.9111 40.6949H26.4805C26.4578 40.7863 26.4503 40.87 26.4427 40.9538C26.4352 41.0376 26.4352 41.1213 26.4352 41.1899C26.4352 41.464 26.5032 41.6697 26.6392 41.8143C26.7752 41.959 26.9942 42.0352 27.2889 42.0352C27.4627 42.0352 27.6213 42.02 27.7573 41.9971C27.8933 41.9743 28.0142 41.9438 28.1199 41.9133C28.2182 41.8829 28.3013 41.8524 28.3693 41.8296C28.4373 41.8067 28.4826 41.7915 28.5053 41.7915C28.5279 41.7915 28.5506 41.7991 28.5582 41.8143C28.5733 41.8296 28.5733 41.86 28.5733 41.8905C28.5733 41.9209 28.5732 41.9514 28.5657 41.9895C28.5581 42.0276 28.5506 42.0656 28.543 42.1037C28.5355 42.1418 28.5204 42.1799 28.4977 42.218C28.4826 42.256 28.4599 42.2865 28.4373 42.3094C28.407 42.3398 28.3466 42.3779 28.2635 42.4084C28.1804 42.4388 28.0822 42.4693 27.9689 42.4921C27.8555 42.515 27.7271 42.5378 27.5911 42.5531C27.4551 42.5683 27.3191 42.5759 27.1831 42.5759C26.9414 42.5759 26.7298 42.5454 26.5485 42.4921C26.3672 42.4388 26.2161 42.355 26.0952 42.2408C25.9743 42.1266 25.8836 41.9895 25.8232 41.8143C25.7628 41.6392 25.7325 41.4488 25.7325 41.2127C25.7325 41.0376 25.7477 40.8472 25.7854 40.6416C25.8157 40.4359 25.8761 40.2379 25.9441 40.0399C26.0196 39.8419 26.1103 39.6515 26.2312 39.4688C26.3521 39.286 26.4881 39.1261 26.6467 38.9814C26.8054 38.8443 26.9942 38.7301 27.2058 38.6463C27.4173 38.5625 27.6591 38.5168 27.9235 38.5168C28.1502 38.5168 28.3466 38.5473 28.5053 38.6006C28.6639 38.6615 28.7923 38.73 28.8981 38.8214C28.9963 38.9128 29.0719 39.0118 29.1172 39.1261C29.1701 39.2479 29.1928 39.3621 29.1928 39.4688ZM28.5053 39.5297C28.5053 39.3926 28.4524 39.2784 28.339 39.1946C28.2333 39.1108 28.0746 39.0651 27.8782 39.0651C27.7044 39.0651 27.5458 39.0956 27.4098 39.1565C27.2738 39.2174 27.1529 39.3012 27.0471 39.4078C26.9414 39.5145 26.8507 39.6363 26.7751 39.7734C26.6996 39.9105 26.6392 40.0552 26.5938 40.2075H27.0094C27.2964 40.2075 27.5307 40.1922 27.7195 40.1541C27.9084 40.1161 28.0671 40.0704 28.1804 40.0095C28.2937 39.9485 28.3768 39.8724 28.4221 39.7962C28.4826 39.7048 28.5053 39.6211 28.5053 39.5297Z" fill="#ED622B"/>
<path d="M33.2045 42.4007C33.1969 42.4236 33.1894 42.4388 33.1743 42.4541C33.1591 42.4693 33.1365 42.4845 33.1138 42.4921C33.0836 42.4997 33.0458 42.515 33.008 42.515C32.9627 42.5226 32.9098 42.5226 32.8418 42.5226C32.7738 42.5226 32.721 42.5226 32.6832 42.515C32.6379 42.5073 32.6076 42.4997 32.585 42.4921C32.5623 42.4845 32.5472 42.4693 32.5396 42.4541C32.5321 42.4388 32.5321 42.4236 32.5396 42.4007L32.8569 40.7786H31.0588L30.734 42.4007C30.7264 42.4236 30.7189 42.4388 30.7038 42.4541C30.6886 42.4693 30.6735 42.4845 30.6433 42.4921C30.6131 42.4997 30.5829 42.515 30.5375 42.515C30.4922 42.5226 30.4393 42.5226 30.3713 42.5226C30.3033 42.5226 30.2505 42.5226 30.2051 42.515C30.1598 42.5073 30.1296 42.4997 30.1069 42.4921C30.0842 42.4845 30.0691 42.4693 30.0616 42.4541C30.054 42.4388 30.054 42.4236 30.0616 42.4007L30.7869 38.7148C30.7869 38.692 30.7944 38.6767 30.8095 38.6615C30.8246 38.6463 30.8473 38.6311 30.87 38.6234C30.9002 38.6082 30.938 38.6006 30.9833 38.6006C31.0286 38.593 31.0815 38.593 31.1495 38.593C31.2175 38.593 31.2704 38.593 31.3082 38.6006C31.3535 38.6082 31.3837 38.6158 31.4064 38.6234C31.429 38.6387 31.4441 38.6463 31.4517 38.6615C31.4593 38.6767 31.4593 38.692 31.4593 38.7148L31.1646 40.2151H32.9703L33.2649 38.7148C33.2649 38.692 33.2725 38.6767 33.2876 38.6615C33.3027 38.6463 33.3254 38.6311 33.348 38.6234C33.3783 38.6082 33.416 38.6006 33.4614 38.6006C33.5067 38.593 33.5596 38.593 33.6276 38.593C33.6956 38.593 33.7484 38.593 33.7862 38.6006C33.8315 38.6082 33.8618 38.6158 33.8844 38.6234C33.9071 38.6387 33.9222 38.6463 33.9298 38.6615C33.9373 38.6767 33.9373 38.692 33.9373 38.7148L33.2045 42.4007Z" fill="#ED622B"/>
<path d="M38.0774 40.969C38.0774 41.2356 38.0321 41.4716 37.9339 41.6697C37.8357 41.8677 37.7072 42.0352 37.541 42.1723C37.3748 42.3094 37.1859 42.4084 36.9668 42.4769C36.7477 42.5454 36.5135 42.5759 36.2718 42.5759C36.0149 42.5759 35.7958 42.5378 35.622 42.4693C35.4483 42.4007 35.3047 42.3017 35.2065 42.1723C35.1083 42.0428 35.0479 41.8981 35.0176 41.7229C34.9874 41.5478 34.995 41.3498 35.0403 41.1366L35.5238 38.7148C35.5238 38.692 35.5314 38.6767 35.5465 38.6615C35.5616 38.6463 35.5843 38.631 35.6069 38.6158C35.6372 38.6006 35.6749 38.593 35.7203 38.593C35.7656 38.5854 35.8185 38.5854 35.8865 38.5854C35.9545 38.5854 36.0074 38.5854 36.0527 38.593C36.098 38.6006 36.1282 38.6082 36.1509 38.6158C36.1736 38.631 36.1887 38.6387 36.1962 38.6615C36.2038 38.6767 36.2038 38.692 36.1962 38.7148L35.9469 40.0018C36.0527 39.9714 36.1736 39.9409 36.3096 39.9257C36.4455 39.9105 36.5815 39.9028 36.7175 39.9028C36.9291 39.9028 37.118 39.9257 37.2842 39.979C37.4504 40.0323 37.5939 40.1009 37.7148 40.1922C37.8357 40.2836 37.9263 40.3979 37.9868 40.5273C38.0472 40.6644 38.0774 40.8091 38.0774 40.969ZM37.3748 41.0452C37.3748 40.9538 37.3597 40.87 37.3219 40.7938C37.2842 40.7177 37.2388 40.6568 37.1708 40.6035C37.1028 40.5502 37.0197 40.5121 36.9291 40.4892C36.8309 40.4588 36.7251 40.4512 36.6042 40.4512C36.4682 40.4512 36.3322 40.4588 36.1962 40.4816C36.0602 40.5045 35.9394 40.5273 35.8336 40.5654L35.7203 41.1518C35.6598 41.4488 35.6901 41.6773 35.8034 41.8219C35.9167 41.9666 36.098 42.0428 36.3473 42.0428C36.4984 42.0428 36.6344 42.02 36.7629 41.9743C36.8913 41.9286 36.9971 41.86 37.0877 41.7763C37.1784 41.6925 37.2539 41.5859 37.3068 41.464C37.3446 41.3346 37.3748 41.1975 37.3748 41.0452Z" fill="#ED622B"/>
<path d="M42.0665 39.4916C42.0665 39.6439 42.0439 39.781 41.9834 39.9028C41.9306 40.0247 41.8474 40.1389 41.7417 40.2379C41.6359 40.3369 41.4999 40.4359 41.3337 40.5197C41.1675 40.6035 40.9711 40.6796 40.7444 40.7406C40.5329 40.8015 40.3516 40.8624 40.2156 40.9233C40.0796 40.9842 39.9662 41.0452 39.8831 41.1137C39.8 41.1823 39.7396 41.2432 39.7094 41.3193C39.6791 41.3879 39.664 41.464 39.664 41.5478C39.664 41.7077 39.7245 41.822 39.8453 41.8981C39.9662 41.9743 40.14 42.0123 40.3667 42.0123C40.5329 42.0123 40.684 41.9971 40.82 41.959C40.956 41.9286 41.0693 41.8829 41.1675 41.8448C41.2657 41.7991 41.3488 41.761 41.4244 41.7306C41.4924 41.6925 41.5528 41.6773 41.5906 41.6773C41.6133 41.6773 41.6359 41.6849 41.6435 41.7077C41.6586 41.7306 41.6586 41.7534 41.6586 41.7915C41.6586 41.8144 41.6586 41.8448 41.651 41.8905C41.6435 41.9362 41.6359 41.9819 41.6284 42.0352C41.6208 42.0809 41.6057 42.1342 41.583 42.1799C41.5604 42.2256 41.5453 42.256 41.515 42.2865C41.4848 42.317 41.4319 42.3474 41.3488 42.3855C41.2657 42.4236 41.1675 42.454 41.0542 42.4845C40.9408 42.515 40.8124 42.5378 40.6764 42.5607C40.5404 42.5835 40.3969 42.5911 40.2609 42.5911C40.0418 42.5911 39.8529 42.5683 39.6943 42.5226C39.5281 42.4769 39.3921 42.416 39.2863 42.3322C39.173 42.2484 39.0974 42.1494 39.037 42.0352C38.9841 41.921 38.9539 41.7915 38.9539 41.6468C38.9539 41.4793 38.9841 41.327 39.0445 41.1899C39.105 41.0528 39.1881 40.9309 39.3089 40.8243C39.4298 40.7177 39.5734 40.6187 39.7547 40.5273C39.936 40.4359 40.14 40.3598 40.3818 40.2912C40.5631 40.2379 40.7217 40.1846 40.8502 40.1313C40.9786 40.078 41.0768 40.0247 41.1599 39.9638C41.2355 39.9105 41.2959 39.8495 41.3262 39.781C41.3564 39.7125 41.379 39.6363 41.379 39.5601C41.379 39.4078 41.3186 39.2936 41.2053 39.2098C41.0919 39.1261 40.9333 39.088 40.7369 39.088C40.5782 39.088 40.4422 39.1032 40.3213 39.1337C40.2004 39.1641 40.1022 39.2022 40.0191 39.2403C39.9285 39.2784 39.8605 39.3164 39.8 39.3469C39.7396 39.3774 39.7018 39.4002 39.6716 39.4002C39.6414 39.4002 39.6263 39.3926 39.6111 39.3697C39.6036 39.3469 39.596 39.3241 39.596 39.2784C39.596 39.2479 39.596 39.2174 39.6036 39.1794C39.6112 39.1413 39.6187 39.1032 39.6338 39.0575C39.6489 39.0194 39.664 38.9738 39.6792 38.9357C39.7018 38.8976 39.7245 38.8595 39.7472 38.8367C39.7849 38.7986 39.8454 38.7605 39.9209 38.7224C39.9965 38.6843 40.0796 38.6539 40.1778 38.631C40.2684 38.6082 40.3742 38.5854 40.4875 38.5701C40.6009 38.5549 40.7066 38.5473 40.8124 38.5473C41.0164 38.5473 41.1977 38.5701 41.3488 38.6158C41.5075 38.6615 41.6359 38.7301 41.7417 38.8138C41.8474 38.8976 41.9306 38.9966 41.9834 39.1184C42.0363 39.2174 42.0665 39.3469 42.0665 39.4916Z" fill="#ED622B"/>
<path d="M45.9347 42.4007C45.9347 42.4236 45.9271 42.4388 45.912 42.4616C45.8969 42.4769 45.8818 42.4921 45.8516 42.4997C45.8289 42.5074 45.7987 42.515 45.7534 42.5226C45.7156 42.5302 45.6627 42.5302 45.6098 42.5302C45.5569 42.5302 45.5116 42.5302 45.4738 42.5226C45.436 42.515 45.4058 42.5074 45.3907 42.4997C45.3681 42.4921 45.3605 42.4769 45.3529 42.4616C45.3454 42.4464 45.3454 42.4236 45.3529 42.4007L45.4889 41.7077C45.4436 41.7991 45.3756 41.8981 45.2849 41.9971C45.1943 42.0961 45.081 42.1951 44.9525 42.2789C44.8241 42.3627 44.6881 42.4388 44.537 42.4921C44.3859 42.5454 44.2348 42.5759 44.0761 42.5759C43.8948 42.5759 43.7362 42.553 43.6077 42.4997C43.4793 42.4464 43.3811 42.3779 43.3055 42.2941C43.23 42.2027 43.1695 42.1037 43.1393 41.9819C43.1091 41.86 43.0864 41.7306 43.0864 41.5859C43.0864 41.4945 43.094 41.4031 43.1016 41.3117C43.1167 41.2203 43.1318 41.1213 43.1469 41.03L43.6002 38.7148C43.6077 38.692 43.6153 38.6767 43.6304 38.6615C43.6455 38.6463 43.6682 38.6311 43.6908 38.6234C43.7211 38.6158 43.7588 38.6082 43.8042 38.6006C43.8495 38.593 43.9024 38.593 43.9704 38.593C44.0384 38.593 44.0913 38.593 44.129 38.6006C44.1744 38.6082 44.2046 38.6158 44.2272 38.6234C44.2499 38.6311 44.265 38.6463 44.2726 38.6615C44.2801 38.6767 44.2801 38.692 44.2801 38.7148L43.8344 40.9995C43.8193 41.068 43.8042 41.1442 43.7966 41.2203C43.789 41.2965 43.7815 41.3726 43.7815 41.4564C43.7815 41.5402 43.7891 41.6163 43.8042 41.6773C43.8193 41.7458 43.8419 41.7991 43.8797 41.8524C43.9175 41.8981 43.9628 41.9362 44.0233 41.9666C44.0837 41.9971 44.1517 42.0047 44.2348 42.0047C44.3784 42.0047 44.5219 41.9667 44.673 41.8829C44.8241 41.7991 44.9601 41.6849 45.0961 41.5402C45.2245 41.3955 45.3454 41.2203 45.4436 41.0147C45.5418 40.8091 45.6174 40.5882 45.6703 40.3522L45.9951 38.7224C45.9951 38.6996 46.0102 38.6844 46.0254 38.6691C46.0405 38.6539 46.0631 38.6387 46.0933 38.631C46.1236 38.6234 46.1613 38.6158 46.2067 38.6082C46.252 38.6006 46.3049 38.6006 46.3729 38.6006C46.4409 38.6006 46.4938 38.6006 46.5315 38.6082C46.5769 38.6158 46.6071 38.6234 46.6297 38.631C46.6524 38.6387 46.6675 38.6539 46.6751 38.6691C46.6826 38.6844 46.6826 38.6996 46.6826 38.7224L45.9347 42.4007Z" fill="#ED622B"/>
<path d="M53.0667 41.167C53.0667 41.2813 53.0516 41.4031 53.0214 41.5173C52.9912 41.6316 52.9459 41.7458 52.8779 41.8524C52.8174 41.959 52.7343 42.058 52.6286 42.1418C52.5303 42.2332 52.4095 42.3093 52.281 42.3779C52.145 42.4464 51.9939 42.4921 51.8277 42.5302C51.654 42.5683 51.4651 42.5835 51.2611 42.5835C50.9891 42.5835 50.77 42.553 50.5887 42.4845C50.4074 42.416 50.2638 42.3246 50.1581 42.2103C50.0523 42.0961 49.9767 41.959 49.9314 41.8067C49.8861 41.6544 49.8634 41.4869 49.8634 41.3193C49.8634 41.1975 49.871 41.0452 49.8936 40.87C49.9163 40.6872 49.9541 40.4969 50.0145 40.2836C50.075 40.078 50.1505 39.8648 50.2487 39.6591C50.3469 39.4535 50.4829 39.2631 50.6416 39.0956C50.8002 38.9281 50.9967 38.791 51.2158 38.6844C51.4424 38.5777 51.7068 38.5244 52.009 38.5244C52.2281 38.5244 52.4095 38.5473 52.5681 38.6006C52.7268 38.6539 52.8552 38.7148 52.9534 38.7986C53.0516 38.8824 53.1272 38.9737 53.1801 39.0804C53.2254 39.187 53.2556 39.3012 53.2556 39.4154C53.2556 39.5449 53.233 39.6591 53.1952 39.7581C53.1499 39.8648 53.097 39.9561 53.0214 40.0399C52.9459 40.1237 52.8552 40.1922 52.757 40.2532C52.6588 40.3141 52.5455 40.3598 52.4246 40.3902C52.553 40.4207 52.6512 40.4664 52.7343 40.5197C52.8174 40.573 52.8854 40.6339 52.9308 40.7025C52.9761 40.771 53.0139 40.8472 53.029 40.9233C53.0592 41.0147 53.0667 41.0909 53.0667 41.167ZM52.3792 41.2051C52.3792 41.1366 52.3641 41.068 52.3415 41.0071C52.3188 40.9462 52.2659 40.8853 52.1979 40.8396C52.1299 40.7939 52.0393 40.7558 51.9259 40.7253C51.8126 40.6948 51.6615 40.6796 51.4877 40.6796H50.6189C50.5962 40.7862 50.5811 40.8929 50.5736 40.9919C50.566 41.0909 50.5585 41.1822 50.5585 41.2736C50.5585 41.5402 50.6189 41.7382 50.7398 41.8753C50.8607 42.0047 51.0571 42.0733 51.3366 42.0733C51.5255 42.0733 51.6842 42.0504 51.8202 41.9971C51.9562 41.9438 52.0619 41.8829 52.145 41.7991C52.2281 41.7153 52.2886 41.6239 52.3264 41.5173C52.3641 41.4107 52.3792 41.3041 52.3792 41.2051ZM52.5908 39.4992C52.5908 39.4383 52.5757 39.3774 52.553 39.3241C52.5303 39.2707 52.4926 39.2174 52.4397 39.1794C52.3868 39.1413 52.3188 39.1032 52.2432 39.088C52.1677 39.0651 52.0695 39.0575 51.9562 39.0575C51.8202 39.0575 51.6917 39.0804 51.5633 39.1261C51.4349 39.1718 51.3215 39.2403 51.2158 39.3393C51.11 39.4383 51.0118 39.5525 50.9287 39.6972C50.8456 39.8419 50.77 40.0171 50.7171 40.2151H51.6011C51.7673 40.2151 51.9184 40.1998 52.0393 40.1618C52.1677 40.1237 52.2659 40.078 52.349 40.0171C52.4321 39.9561 52.4926 39.88 52.5303 39.7962C52.5757 39.6972 52.5908 39.5982 52.5908 39.4992Z" fill="#ED622B"/>
<path d="M57.4109 39.0347C57.4109 39.0804 57.4034 39.1337 57.3958 39.187C57.3883 39.2403 57.3731 39.286 57.3505 39.3317C57.3278 39.3774 57.3127 39.4154 57.2825 39.4459C57.2598 39.4764 57.2296 39.4916 57.1918 39.4916C57.1541 39.4916 57.1163 39.4688 57.0709 39.4307C57.0332 39.3926 56.9803 39.3469 56.9123 39.3012C56.8443 39.2555 56.7612 39.2098 56.663 39.1641C56.5647 39.1261 56.4288 39.1032 56.2776 39.1032C56.1039 39.1032 55.9528 39.1413 55.8168 39.2098C55.6808 39.286 55.5675 39.3774 55.4693 39.4916C55.3711 39.6058 55.2879 39.7429 55.2199 39.8876C55.152 40.0323 55.0991 40.1846 55.0613 40.3369C55.0235 40.4892 54.9933 40.6339 54.9706 40.771C54.9555 40.9081 54.9404 41.0376 54.9404 41.1366C54.9404 41.4183 55.0008 41.6316 55.1217 41.7763C55.2426 41.921 55.4239 41.9971 55.6657 41.9971C55.8395 41.9971 55.9906 41.9743 56.119 41.9286C56.2474 41.8829 56.3532 41.8372 56.4439 41.7763C56.5345 41.7229 56.6025 41.6697 56.663 41.624C56.7234 41.5783 56.7687 41.5554 56.8141 41.5554C56.8367 41.5554 56.8519 41.563 56.867 41.5859C56.8821 41.6087 56.8821 41.6392 56.8821 41.6773C56.8821 41.7077 56.8821 41.7458 56.8745 41.7915C56.867 41.8372 56.8594 41.8829 56.8518 41.9286C56.8367 41.9743 56.8216 42.02 56.8065 42.0657C56.7914 42.1113 56.7612 42.1418 56.731 42.1799C56.7007 42.218 56.6403 42.256 56.5572 42.3017C56.4741 42.3474 56.3834 42.3931 56.2776 42.4312C56.1719 42.4693 56.051 42.4997 55.9301 42.5302C55.8017 42.553 55.6733 42.5683 55.5448 42.5683C55.1066 42.5683 54.7818 42.454 54.5702 42.2332C54.3511 42.0123 54.2454 41.6773 54.2454 41.2356C54.2454 41.068 54.2605 40.8852 54.2907 40.6872C54.3209 40.4892 54.3662 40.2912 54.4342 40.0856C54.5022 39.8876 54.5853 39.6896 54.6911 39.4992C54.7969 39.3088 54.9253 39.1413 55.084 38.9966C55.2351 38.8519 55.4164 38.7301 55.6204 38.6463C55.8244 38.5625 56.0586 38.5168 56.323 38.5168C56.4288 38.5168 56.5345 38.5244 56.6327 38.5473C56.731 38.5625 56.8292 38.5854 56.9123 38.6158C57.003 38.6463 57.0785 38.6844 57.154 38.73C57.222 38.7757 57.2825 38.8138 57.3203 38.8519C57.358 38.89 57.3807 38.9204 57.3958 38.9433C57.4034 38.9814 57.4109 39.0042 57.4109 39.0347Z" fill="#ED622B"/>
<path d="M61.5435 39.4688C61.5435 39.6591 61.4981 39.8267 61.415 39.979C61.3319 40.1313 61.1959 40.2608 61.0071 40.3674C60.8257 40.474 60.584 40.5578 60.2969 40.6111C60.0098 40.672 59.6623 40.6949 59.2618 40.6949H58.8312C58.8085 40.7863 58.801 40.87 58.7934 40.9538C58.7859 41.0376 58.7859 41.1213 58.7859 41.1899C58.7859 41.464 58.8539 41.6697 58.9899 41.8143C59.1259 41.959 59.3449 42.0352 59.6396 42.0352C59.8134 42.0352 59.972 42.02 60.108 41.9971C60.244 41.9743 60.3649 41.9438 60.4707 41.9133C60.5689 41.8829 60.652 41.8524 60.72 41.8296C60.788 41.8067 60.8333 41.7915 60.856 41.7915C60.8786 41.7915 60.9013 41.7991 60.9088 41.8143C60.9239 41.8296 60.924 41.86 60.924 41.8905C60.924 41.9209 60.924 41.9514 60.9164 41.9895C60.9088 42.0276 60.9013 42.0656 60.8937 42.1037C60.8862 42.1418 60.8711 42.1799 60.8484 42.218C60.8333 42.256 60.8106 42.2865 60.788 42.3094C60.7577 42.3398 60.6973 42.3779 60.6142 42.4084C60.5311 42.4388 60.4329 42.4693 60.3195 42.4921C60.2062 42.515 60.0778 42.5378 59.9418 42.5531C59.8058 42.5683 59.6698 42.5759 59.5338 42.5759C59.2921 42.5759 59.0805 42.5454 58.8992 42.4921C58.7179 42.4388 58.5668 42.355 58.4459 42.2408C58.325 42.1266 58.2343 41.9895 58.1739 41.8143C58.1135 41.6392 58.0833 41.4488 58.0833 41.2127C58.0833 41.0376 58.0984 40.8472 58.1361 40.6416C58.1664 40.4359 58.2268 40.2379 58.2948 40.0399C58.3703 39.8419 58.461 39.6515 58.5819 39.4688C58.7028 39.286 58.8388 39.1261 58.9974 38.9814C59.1561 38.8443 59.345 38.7301 59.5565 38.6463C59.768 38.5625 60.0098 38.5168 60.2742 38.5168C60.5009 38.5168 60.6973 38.5473 60.856 38.6006C61.0146 38.6615 61.1431 38.73 61.2488 38.8214C61.347 38.9128 61.4226 39.0118 61.4679 39.1261C61.5208 39.2479 61.5435 39.3621 61.5435 39.4688ZM60.856 39.5297C60.856 39.3926 60.8031 39.2784 60.6898 39.1946C60.584 39.1108 60.4253 39.0651 60.2289 39.0651C60.0551 39.0651 59.8965 39.0956 59.7605 39.1565C59.6245 39.2174 59.5036 39.3012 59.3978 39.4078C59.2921 39.5145 59.2014 39.6363 59.1259 39.7734C59.0503 39.9105 58.9899 40.0552 58.9445 40.2075H59.3601C59.6472 40.2075 59.8814 40.1922 60.0702 40.1541C60.2591 40.1161 60.4178 40.0704 60.5311 40.0095C60.6444 39.9485 60.7275 39.8724 60.7729 39.7962C60.8333 39.7048 60.856 39.6211 60.856 39.5297Z" fill="#ED622B"/>
<path d="M65.3815 39.4916C65.3815 39.6439 65.3588 39.781 65.2984 39.9028C65.2455 40.0247 65.1624 40.1389 65.0566 40.2379C64.9509 40.3369 64.8149 40.4359 64.6486 40.5197C64.4824 40.6035 64.286 40.6796 64.0593 40.7406C63.8478 40.8015 63.6665 40.8624 63.5305 40.9233C63.3945 40.9842 63.2812 41.0452 63.1981 41.1137C63.115 41.1823 63.0545 41.2432 63.0243 41.3193C62.9941 41.3879 62.979 41.464 62.979 41.5478C62.979 41.7077 63.0394 41.822 63.1603 41.8981C63.2812 41.9743 63.4549 42.0123 63.6816 42.0123C63.8478 42.0123 63.9989 41.9971 64.1349 41.959C64.2709 41.9286 64.3842 41.8829 64.4824 41.8448C64.5806 41.7991 64.6637 41.761 64.7393 41.7306C64.8073 41.6925 64.8677 41.6773 64.9055 41.6773C64.9282 41.6773 64.9508 41.6849 64.9584 41.7077C64.9735 41.7306 64.9735 41.7534 64.9735 41.7915C64.9735 41.8144 64.9735 41.8448 64.9659 41.8905C64.9584 41.9362 64.9508 41.9819 64.9433 42.0352C64.9357 42.0809 64.9206 42.1342 64.8979 42.1799C64.8753 42.2256 64.8602 42.256 64.83 42.2865C64.7997 42.317 64.7468 42.3474 64.6637 42.3855C64.5806 42.4236 64.4824 42.454 64.3691 42.4845C64.2558 42.515 64.1273 42.5378 63.9914 42.5607C63.8554 42.5835 63.7118 42.5911 63.5758 42.5911C63.3567 42.5911 63.1678 42.5683 63.0092 42.5226C62.843 42.4769 62.707 42.416 62.6012 42.3322C62.4879 42.2484 62.4123 42.1494 62.3519 42.0352C62.299 41.921 62.2688 41.7915 62.2688 41.6468C62.2688 41.4793 62.299 41.327 62.3595 41.1899C62.4199 41.0528 62.503 40.9309 62.6239 40.8243C62.7448 40.7177 62.8883 40.6187 63.0696 40.5273C63.251 40.4359 63.4549 40.3598 63.6967 40.2912C63.878 40.2379 64.0367 40.1846 64.1651 40.1313C64.2935 40.078 64.3918 40.0247 64.4749 39.9638C64.5504 39.9105 64.6109 39.8495 64.6411 39.781C64.6713 39.7125 64.694 39.6363 64.694 39.5601C64.694 39.4078 64.6335 39.2936 64.5202 39.2098C64.4069 39.1261 64.2482 39.088 64.0518 39.088C63.8931 39.088 63.7571 39.1032 63.6363 39.1337C63.5154 39.1641 63.4172 39.2022 63.3341 39.2403C63.2434 39.2784 63.1754 39.3164 63.115 39.3469C63.0545 39.3774 63.0167 39.4002 62.9865 39.4002C62.9563 39.4002 62.9412 39.3926 62.9261 39.3697C62.9185 39.3469 62.911 39.3241 62.911 39.2784C62.911 39.2479 62.911 39.2174 62.9185 39.1794C62.9261 39.1413 62.9336 39.1032 62.9488 39.0575C62.9639 39.0194 62.979 38.9738 62.9941 38.9357C63.0167 38.8976 63.0394 38.8595 63.0621 38.8367C63.0998 38.7986 63.1603 38.7605 63.2358 38.7224C63.3114 38.6843 63.3945 38.6539 63.4927 38.631C63.5834 38.6082 63.6892 38.5854 63.8025 38.5701C63.9158 38.5549 64.0216 38.5473 64.1273 38.5473C64.3313 38.5473 64.5126 38.5701 64.6637 38.6158C64.8224 38.6615 64.9509 38.7301 65.0566 38.8138C65.1624 38.8976 65.2455 38.9966 65.2984 39.1184C65.3513 39.2174 65.3815 39.3469 65.3815 39.4916Z" fill="#ED622B"/>
<path d="M70.0051 38.9661C70.0051 39.0651 69.9976 39.187 69.99 39.3393C69.9825 39.4916 69.9598 39.6591 69.9296 39.8495C69.8994 40.0399 69.8616 40.2379 69.8087 40.4435C69.7558 40.6492 69.6954 40.8548 69.6123 41.0604C69.5292 41.266 69.4309 41.4564 69.3101 41.6392C69.1892 41.822 69.0532 41.9819 68.887 42.1266C68.7208 42.2636 68.5319 42.3779 68.3204 42.4616C68.1013 42.5454 67.8595 42.5835 67.5875 42.5835C67.3458 42.5835 67.1342 42.553 66.968 42.4845C66.8018 42.416 66.6658 42.3246 66.56 42.2027C66.4543 42.0809 66.3787 41.9362 66.3334 41.7686C66.2881 41.6011 66.2654 41.4107 66.2654 41.2127C66.2654 41.0376 66.2805 40.8548 66.3107 40.6568C66.341 40.4588 66.3938 40.2608 66.4618 40.0628C66.5298 39.8648 66.6129 39.6744 66.7187 39.4916C66.8245 39.3088 66.9529 39.1489 67.104 39.0118C67.2551 38.8747 67.4213 38.7605 67.6177 38.6767C67.8066 38.593 68.0257 38.5549 68.2675 38.5549C68.411 38.5549 68.5395 38.5701 68.6528 38.6082C68.7661 38.6463 68.8719 38.692 68.9625 38.7529C69.0532 38.8138 69.1288 38.8824 69.1892 38.9661C69.2496 39.0499 69.3025 39.1413 69.3328 39.2403C69.3403 39.2098 69.3403 39.1794 69.3403 39.1489C69.3403 39.1185 69.3403 39.0651 69.3403 39.0042C69.3403 38.7834 69.3176 38.5777 69.2723 38.3797C69.227 38.1817 69.1514 38.0142 69.0381 37.8695C68.9323 37.7248 68.7888 37.6106 68.6075 37.5192C68.4261 37.4354 68.1995 37.3897 67.9275 37.3897C67.8444 37.3897 67.7915 37.3821 67.7689 37.3593C67.7462 37.3364 67.7311 37.306 67.7311 37.2679C67.7311 37.2526 67.7311 37.2374 67.7386 37.2146C67.7386 37.1917 67.7462 37.1689 67.7537 37.1384C67.7613 37.1079 67.7689 37.0851 67.7689 37.0546C67.7764 37.0242 67.784 36.9937 67.7915 36.9709C67.7991 36.948 67.8066 36.9176 67.8217 36.8947C67.8293 36.8719 67.8444 36.8566 67.8519 36.849C67.8671 36.8338 67.8897 36.8186 67.9199 36.8109C67.9502 36.8033 67.9955 36.8033 68.0559 36.8033C68.3506 36.8033 68.6226 36.8414 68.8568 36.9252C69.0985 37.0089 69.3025 37.1308 69.4687 37.3059C69.635 37.4811 69.7634 37.702 69.854 37.9837C69.9598 38.2503 70.0051 38.5777 70.0051 38.9661ZM69.091 40.2608C69.091 39.9028 69.023 39.6211 68.887 39.4231C68.751 39.2251 68.5546 39.1184 68.2977 39.1184C68.1239 39.1184 67.9728 39.1565 67.8368 39.2251C67.7084 39.3012 67.5875 39.3926 67.4969 39.5068C67.4062 39.6211 67.3156 39.7581 67.2551 39.9028C67.1871 40.0475 67.1342 40.1998 67.0964 40.3445C67.0587 40.4968 67.0284 40.6339 67.0058 40.7786C66.9907 40.9157 66.9756 41.0299 66.9756 41.1289C66.9756 41.4107 67.036 41.6239 67.1493 41.7763C67.2627 41.9286 67.444 42.0047 67.6857 42.0047C67.8519 42.0047 67.9955 41.9743 68.1315 41.921C68.2675 41.86 68.3808 41.7915 68.4866 41.6925C68.5923 41.5935 68.683 41.4945 68.7586 41.3726C68.8341 41.2508 68.8946 41.1289 68.9474 40.9995C69.0003 40.87 69.0381 40.7405 69.0608 40.6111C69.0759 40.4892 69.091 40.3674 69.091 40.2608Z" fill="#ED622B"/>
<path d="M74.0093 42.4007C74.0017 42.4464 73.9715 42.4769 73.9186 42.4997C73.8733 42.5226 73.7902 42.5302 73.6769 42.5302C73.624 42.5302 73.5787 42.5302 73.5409 42.5226C73.5031 42.515 73.4805 42.5074 73.4578 42.4997C73.4351 42.4921 73.42 42.4769 73.4125 42.4616C73.4049 42.4464 73.4049 42.4236 73.4125 42.4007L73.5484 41.7001C73.5107 41.7839 73.4502 41.8829 73.3596 41.9895C73.2689 42.0961 73.1556 42.1875 73.0347 42.2789C72.9063 42.3627 72.7703 42.4388 72.6116 42.4997C72.453 42.5607 72.3019 42.5835 72.1432 42.5835C71.9241 42.5835 71.7503 42.5454 71.6068 42.4693C71.4632 42.3931 71.3499 42.2941 71.2668 42.1647C71.1837 42.0352 71.1233 41.8981 71.0931 41.7382C71.0628 41.5783 71.0477 41.4183 71.0477 41.2508C71.0477 41.0985 71.0628 40.9233 71.0931 40.7329C71.1233 40.5425 71.1686 40.3445 71.229 40.1389C71.2895 39.9333 71.3726 39.7429 71.4784 39.5449C71.5766 39.3545 71.705 39.1794 71.8486 39.0271C71.9921 38.8748 72.1583 38.7529 72.3472 38.6615C72.5361 38.5701 72.7552 38.5244 72.9969 38.5244C73.2387 38.5244 73.4427 38.5701 73.6164 38.6691C73.7902 38.7681 73.9413 38.9052 74.0773 39.0728L74.1528 38.6996C74.1604 38.6539 74.1982 38.6234 74.2435 38.6082C74.2888 38.593 74.3719 38.5778 74.4853 38.5778C74.5381 38.5778 74.5835 38.5777 74.6213 38.5854C74.659 38.593 74.6893 38.6006 74.7119 38.6082C74.7346 38.6158 74.7497 38.6311 74.7497 38.6463C74.7572 38.6615 74.7573 38.6767 74.7573 38.6996L74.0093 42.4007ZM73.8884 39.6744C73.76 39.484 73.624 39.3469 73.4729 39.2479C73.3218 39.1565 73.1556 39.1032 72.9743 39.1032C72.8307 39.1032 72.6947 39.1413 72.5814 39.2098C72.4605 39.2784 72.3623 39.3697 72.2716 39.484C72.181 39.5982 72.1054 39.7277 72.0374 39.8724C71.9694 40.0171 71.9166 40.1694 71.8712 40.3217C71.8259 40.474 71.7957 40.6339 71.7806 40.7786C71.7579 40.9309 71.7503 41.0604 71.7503 41.1822C71.7503 41.2812 71.7579 41.3726 71.773 41.464C71.7881 41.5554 71.8183 41.6468 71.8561 41.7229C71.9015 41.7991 71.9543 41.86 72.0299 41.9133C72.1054 41.959 72.1961 41.9819 72.317 41.9819C72.4681 41.9819 72.6192 41.9438 72.7627 41.86C72.9138 41.7763 73.0498 41.662 73.1858 41.5173C73.3142 41.3726 73.4276 41.1975 73.5333 40.9995C73.6316 40.8015 73.7071 40.5806 73.76 40.3369L73.8884 39.6744Z" fill="#ED622B"/>
<path d="M80.9978 42.4007C80.9978 42.4236 80.9827 42.4388 80.9676 42.4541C80.9525 42.4693 80.9298 42.4845 80.9071 42.4921C80.8769 42.4997 80.8467 42.515 80.8014 42.515C80.756 42.5226 80.7032 42.5226 80.6352 42.5226C80.5672 42.5226 80.5143 42.5226 80.4765 42.515C80.4312 42.5073 80.401 42.4997 80.3783 42.4921C80.3556 42.4845 80.3405 42.4693 80.333 42.4541C80.3254 42.4388 80.3254 42.4236 80.3254 42.4007L80.9676 39.1794H79.2224L78.5802 42.4007C78.5726 42.4236 78.5651 42.4388 78.55 42.4541C78.5348 42.4693 78.5122 42.4845 78.4895 42.4921C78.4593 42.4997 78.4215 42.515 78.3762 42.515C78.3308 42.5226 78.278 42.5226 78.21 42.5226C78.142 42.5226 78.0891 42.5226 78.0513 42.515C78.006 42.5073 77.9758 42.4997 77.9531 42.4921C77.9304 42.4845 77.9153 42.4693 77.9078 42.4541C77.9002 42.4388 77.9002 42.4236 77.9078 42.4007L78.6104 38.8443C78.6255 38.7605 78.6557 38.6996 78.7011 38.6615C78.7464 38.6234 78.7993 38.6006 78.8673 38.6006H81.5493C81.6173 38.6006 81.6626 38.6234 81.6929 38.6615C81.7231 38.6996 81.7306 38.7605 81.708 38.8443L80.9978 42.4007Z" fill="#ED622B"/>
<path d="M86.3317 39.9333C86.3317 40.1389 86.309 40.3445 86.2712 40.5502C86.2335 40.7558 86.173 40.9614 86.0975 41.1594C86.0219 41.3574 85.9237 41.5402 85.8028 41.7077C85.6819 41.8829 85.546 42.0276 85.3797 42.157C85.2211 42.2865 85.0322 42.3855 84.8282 42.4616C84.6242 42.5378 84.3976 42.5759 84.1407 42.5759C83.8838 42.5759 83.6572 42.5454 83.4683 42.4845C83.2794 42.4236 83.1283 42.3322 83.0074 42.2103C82.8866 42.0885 82.8035 41.9438 82.743 41.7686C82.6826 41.5935 82.6599 41.3955 82.6599 41.1746C82.6599 40.969 82.675 40.7634 82.7128 40.5578C82.7506 40.3445 82.8034 40.1465 82.8866 39.9485C82.9621 39.7581 83.0603 39.5678 83.1812 39.4002C83.3021 39.2251 83.4381 39.0728 83.5967 38.9509C83.7554 38.8214 83.9443 38.7224 84.1483 38.6463C84.3523 38.5701 84.5789 38.532 84.8358 38.532C85.0927 38.532 85.3193 38.5625 85.5082 38.631C85.697 38.692 85.8482 38.791 85.969 38.9052C86.0899 39.0271 86.1806 39.1717 86.2335 39.3469C86.2864 39.5221 86.3317 39.7201 86.3317 39.9333ZM85.6215 39.979C85.6215 39.8419 85.6064 39.7201 85.5762 39.6135C85.546 39.5068 85.5006 39.4155 85.4326 39.3393C85.3646 39.2631 85.2815 39.2098 85.1757 39.1641C85.07 39.1261 84.9416 39.1032 84.7905 39.1032C84.6242 39.1032 84.4807 39.1337 84.3447 39.1946C84.2087 39.2555 84.0954 39.3317 83.9896 39.4307C83.8838 39.5297 83.7932 39.6439 83.7176 39.781C83.6421 39.9181 83.5741 40.0552 83.5287 40.2075C83.4759 40.3598 83.4381 40.5121 83.4154 40.672C83.3928 40.8319 83.3777 40.9919 83.3777 41.1442C83.3777 41.2813 83.3928 41.4031 83.423 41.5097C83.4532 41.6163 83.4985 41.7153 83.5665 41.7915C83.6345 41.8677 83.7176 41.9286 83.8234 41.9666C83.9292 42.0047 84.0576 42.0276 84.2087 42.0276C84.3749 42.0276 84.526 41.9971 84.6545 41.9362C84.7829 41.8753 84.9038 41.7991 85.0096 41.7001C85.1153 41.6011 85.206 41.4793 85.2815 41.3498C85.3571 41.2127 85.4251 41.0756 85.4704 40.9157C85.5233 40.7634 85.5611 40.6035 85.5837 40.4512C85.6139 40.2836 85.6215 40.1313 85.6215 39.979Z" fill="#ED622B"/>
<path d="M91.0762 38.9661C91.0762 39.0651 91.0686 39.187 91.0611 39.3393C91.0535 39.4916 91.0309 39.6591 91.0006 39.8495C90.9704 40.0399 90.9326 40.2379 90.8797 40.4435C90.8269 40.6492 90.7664 40.8548 90.6833 41.0604C90.6002 41.266 90.502 41.4564 90.3811 41.6392C90.2602 41.822 90.1242 41.9819 89.958 42.1266C89.7918 42.2636 89.6029 42.3779 89.3914 42.4616C89.1723 42.5454 88.9305 42.5835 88.6586 42.5835C88.4168 42.5835 88.2053 42.553 88.039 42.4845C87.8728 42.416 87.7368 42.3246 87.6311 42.2027C87.5253 42.0809 87.4497 41.9362 87.4044 41.7686C87.3591 41.6011 87.3364 41.4107 87.3364 41.2127C87.3364 41.0376 87.3515 40.8548 87.3818 40.6568C87.412 40.4588 87.4649 40.2608 87.5329 40.0628C87.6009 39.8648 87.684 39.6744 87.7897 39.4916C87.8955 39.3088 88.0239 39.1489 88.175 39.0118C88.3261 38.8747 88.4924 38.7605 88.6888 38.6767C88.8777 38.593 89.0967 38.5549 89.3385 38.5549C89.4821 38.5549 89.6105 38.5701 89.7238 38.6082C89.8372 38.6463 89.9429 38.692 90.0336 38.7529C90.1242 38.8138 90.1998 38.8824 90.2602 38.9661C90.3207 39.0499 90.3736 39.1413 90.4038 39.2403C90.4113 39.2098 90.4113 39.1794 90.4113 39.1489C90.4113 39.1185 90.4113 39.0651 90.4113 39.0042C90.4113 38.7834 90.3887 38.5777 90.3433 38.3797C90.298 38.1817 90.2225 38.0142 90.1091 37.8695C90.0034 37.7248 89.8598 37.6106 89.6785 37.5192C89.4972 37.4354 89.2705 37.3897 88.9985 37.3897C88.9154 37.3897 88.8625 37.3821 88.8399 37.3593C88.8172 37.3364 88.8021 37.306 88.8021 37.2679C88.8021 37.2526 88.8021 37.2374 88.8097 37.2146C88.8097 37.1917 88.8172 37.1689 88.8248 37.1384C88.8323 37.1079 88.8399 37.0851 88.8399 37.0546C88.8474 37.0242 88.855 36.9937 88.8625 36.9709C88.8701 36.948 88.8777 36.9176 88.8928 36.8947C88.9003 36.8719 88.9154 36.8566 88.923 36.849C88.9381 36.8338 88.9608 36.8186 88.991 36.8109C89.0212 36.8033 89.0665 36.8033 89.127 36.8033C89.4216 36.8033 89.6936 36.8414 89.9278 36.9252C90.1696 37.0089 90.3736 37.1308 90.5398 37.3059C90.706 37.4811 90.8344 37.702 90.9251 37.9837C91.0308 38.2503 91.0762 38.5777 91.0762 38.9661ZM90.162 40.2608C90.162 39.9028 90.094 39.6211 89.958 39.4231C89.822 39.2251 89.6256 39.1184 89.3687 39.1184C89.195 39.1184 89.0439 39.1565 88.9079 39.2251C88.7794 39.3012 88.6586 39.3926 88.5679 39.5068C88.4772 39.6211 88.3866 39.7581 88.3261 39.9028C88.2581 40.0475 88.2053 40.1998 88.1675 40.3445C88.1297 40.4968 88.0995 40.6339 88.0768 40.7786C88.0617 40.9157 88.0466 41.0299 88.0466 41.1289C88.0466 41.4107 88.1071 41.6239 88.2204 41.7763C88.3337 41.9286 88.515 42.0047 88.7568 42.0047C88.923 42.0047 89.0665 41.9743 89.2025 41.921C89.3385 41.86 89.4518 41.7915 89.5576 41.6925C89.6634 41.5935 89.754 41.4945 89.8296 41.3726C89.9051 41.2508 89.9656 41.1289 90.0185 40.9995C90.0713 40.87 90.1091 40.7405 90.1318 40.6111C90.1469 40.4892 90.162 40.3674 90.162 40.2608Z" fill="#ED622B"/>
<path d="M98.0118 39.8648C98.0118 40.0247 97.9966 40.1998 97.9664 40.3979C97.9362 40.5959 97.8909 40.7939 97.8229 40.9995C97.7549 41.2051 97.6718 41.3955 97.5736 41.5859C97.4753 41.7763 97.3469 41.9438 97.2034 42.0885C97.0598 42.2332 96.8936 42.355 96.7047 42.4464C96.5158 42.5378 96.3043 42.5835 96.0625 42.5835C95.9417 42.5835 95.8283 42.5683 95.7301 42.5454C95.6319 42.5226 95.5412 42.4845 95.4506 42.4464C95.3675 42.4007 95.2919 42.355 95.2164 42.2941C95.1408 42.2332 95.0804 42.1723 95.02 42.0961L94.6724 43.8705C94.6649 43.8934 94.6573 43.9086 94.6498 43.9315C94.6346 43.9467 94.6195 43.9619 94.5893 43.9695C94.5591 43.9771 94.5289 43.9924 94.4835 43.9924C94.4382 44 94.3853 44 94.3173 44C94.2569 44 94.204 44 94.1587 43.9924C94.1133 43.9848 94.0831 43.9771 94.0605 43.9695C94.0378 43.9619 94.0227 43.9467 94.0151 43.9315C94.0076 43.9162 94.0076 43.8934 94.0076 43.8705L95.0351 38.7148C95.0426 38.6691 95.0653 38.6387 95.1182 38.6234C95.1635 38.6006 95.2466 38.593 95.3599 38.593C95.4204 38.593 95.4657 38.593 95.4959 38.6006C95.5337 38.6082 95.5564 38.6082 95.579 38.6234C95.6017 38.6311 95.6168 38.6463 95.6168 38.6615C95.6244 38.6767 95.6244 38.6996 95.6244 38.7224L95.4884 39.4231C95.5261 39.3317 95.5941 39.2403 95.6848 39.1337C95.7755 39.0347 95.8812 38.9357 96.0097 38.8443C96.1381 38.7529 96.2741 38.6844 96.4328 38.6234C96.5914 38.5625 96.7425 38.5397 96.9012 38.5397C97.1052 38.5397 97.2789 38.5778 97.4225 38.6463C97.5585 38.7148 97.6718 38.8138 97.7624 38.9281C97.8455 39.0499 97.9135 39.187 97.9513 39.3469C97.9966 39.5068 98.0118 39.682 98.0118 39.8648ZM97.3091 39.9105C97.3091 39.7962 97.3016 39.682 97.2789 39.583C97.2563 39.484 97.226 39.4002 97.1807 39.3317C97.1354 39.2631 97.0749 39.2022 97.0069 39.1641C96.9389 39.1261 96.8483 39.1032 96.7425 39.1032C96.599 39.1032 96.4478 39.1413 96.2967 39.2251C96.1456 39.3088 96.0021 39.4231 95.8737 39.5678C95.7452 39.7125 95.6244 39.8876 95.5261 40.0932C95.4279 40.2912 95.3524 40.5121 95.307 40.7482L95.1711 41.426C95.2995 41.6163 95.4355 41.761 95.579 41.8524C95.7226 41.9438 95.8888 41.9971 96.0777 41.9971C96.2212 41.9971 96.3496 41.9666 96.4705 41.8981C96.5914 41.8296 96.6896 41.7382 96.7803 41.624C96.8709 41.5097 96.9465 41.3803 97.0145 41.2356C97.0825 41.0909 97.1354 40.9386 97.1807 40.7862C97.226 40.6339 97.2563 40.474 97.2789 40.3217C97.3016 40.1694 97.3091 40.0323 97.3091 39.9105Z" fill="#ED622B"/>
<path d="M102.432 38.6844C102.432 38.7148 102.432 38.7453 102.424 38.7757C102.416 38.8062 102.409 38.8367 102.394 38.8671C102.303 39.1184 102.205 39.3774 102.099 39.6439C101.993 39.9105 101.872 40.1922 101.729 40.4892C101.585 40.7862 101.427 41.0909 101.238 41.4107C101.049 41.7306 100.822 42.0656 100.565 42.416L99.5153 43.8629C99.5001 43.8857 99.4775 43.901 99.4548 43.9238C99.4322 43.9391 99.4019 43.9543 99.3642 43.9695C99.3264 43.9848 99.2886 43.9924 99.2357 43.9924C99.1828 43.9924 99.1299 44 99.0619 44C98.9864 44 98.926 44 98.8806 43.9924C98.8353 43.9848 98.7975 43.9772 98.7748 43.9543C98.7522 43.9391 98.7371 43.9162 98.7446 43.8858C98.7446 43.8553 98.7673 43.8248 98.79 43.7868L99.7797 42.5073L99.1753 38.9052C99.1677 38.8748 99.1677 38.8443 99.1602 38.8138C99.1602 38.7834 99.1526 38.7605 99.1526 38.7453C99.1526 38.7148 99.1602 38.692 99.1677 38.6691C99.1753 38.6463 99.198 38.6311 99.2206 38.6234C99.2508 38.6082 99.281 38.6006 99.3264 38.6006C99.3717 38.593 99.4246 38.593 99.4926 38.593C99.5681 38.593 99.621 38.593 99.6664 38.6006C99.7117 38.6082 99.7419 38.6082 99.7646 38.6234C99.7872 38.6311 99.8024 38.6463 99.8099 38.6691C99.8175 38.692 99.825 38.7148 99.825 38.7377L100.301 41.7458H100.309C100.475 41.5097 100.626 41.266 100.762 41.0223C100.898 40.7786 101.019 40.5273 101.14 40.276C101.253 40.0247 101.359 39.7658 101.457 39.5068C101.555 39.2479 101.646 38.989 101.729 38.7224C101.736 38.6996 101.744 38.6844 101.759 38.6691C101.774 38.6539 101.797 38.6387 101.827 38.631C101.857 38.6234 101.895 38.6158 101.94 38.6082C101.986 38.6006 102.054 38.6006 102.122 38.6006C102.243 38.6006 102.326 38.6082 102.364 38.6234C102.416 38.6311 102.432 38.6539 102.432 38.6844Z" fill="#ED622B"/>
<path d="M105.997 42.3931C105.997 42.416 105.99 42.4312 105.982 42.454C105.975 42.4693 105.952 42.4845 105.929 42.4997C105.899 42.515 105.869 42.5226 105.824 42.5226C105.778 42.5302 105.718 42.5302 105.65 42.5302C105.574 42.5302 105.514 42.5302 105.469 42.5226C105.423 42.515 105.393 42.5074 105.363 42.4997C105.34 42.4921 105.317 42.4769 105.31 42.4616C105.302 42.4464 105.295 42.4312 105.287 42.4084L105.083 41.4336C105.053 41.3041 105.023 41.2051 104.985 41.1137C104.947 41.0299 104.894 40.9614 104.834 40.9081C104.774 40.8548 104.698 40.8167 104.607 40.7938C104.517 40.771 104.418 40.7634 104.298 40.7634H104.01L103.686 42.4236C103.678 42.4388 103.67 42.454 103.655 42.4616C103.64 42.4769 103.618 42.4845 103.587 42.4921C103.557 42.4997 103.519 42.5073 103.474 42.515C103.429 42.5226 103.383 42.5226 103.323 42.5226C103.262 42.5226 103.21 42.5226 103.172 42.515C103.134 42.5073 103.096 42.4997 103.074 42.4921C103.051 42.4845 103.028 42.4693 103.021 42.4616C103.013 42.4464 103.006 42.4312 103.006 42.4236L103.746 38.6767C103.746 38.6615 103.754 38.6463 103.769 38.6387C103.784 38.6234 103.806 38.6158 103.837 38.6082C103.867 38.6006 103.905 38.593 103.95 38.593C103.995 38.5854 104.041 38.5854 104.101 38.5854C104.162 38.5854 104.207 38.5854 104.252 38.593C104.298 38.6006 104.328 38.6006 104.35 38.6082C104.373 38.6158 104.396 38.6234 104.403 38.6387C104.418 38.6539 104.418 38.6615 104.418 38.6767L104.116 40.2227H104.396C104.494 40.2227 104.585 40.2075 104.675 40.1846C104.766 40.1618 104.849 40.1161 104.932 40.0628C105.015 40.0095 105.091 39.9333 105.166 39.8495C105.242 39.7658 105.317 39.6591 105.385 39.5373L105.877 38.7072C105.892 38.6844 105.907 38.6691 105.922 38.6463C105.945 38.6311 105.967 38.6158 106.005 38.6082C106.035 38.6006 106.081 38.593 106.126 38.5854C106.171 38.5777 106.239 38.5778 106.307 38.5778C106.375 38.5778 106.428 38.5777 106.466 38.5854C106.504 38.593 106.534 38.593 106.556 38.6006C106.579 38.6082 106.594 38.6158 106.602 38.6234C106.609 38.6311 106.609 38.6463 106.609 38.6615C106.609 38.6844 106.602 38.7072 106.594 38.7377C106.579 38.7681 106.564 38.8062 106.534 38.8443L105.99 39.7048C105.914 39.8191 105.839 39.9257 105.763 40.0094C105.688 40.0932 105.605 40.1694 105.529 40.2379C105.453 40.2989 105.378 40.3521 105.302 40.3902C105.227 40.4283 105.159 40.4588 105.091 40.4816V40.4892C105.166 40.5121 105.242 40.5502 105.31 40.5959C105.378 40.6416 105.438 40.6949 105.491 40.7634C105.544 40.8319 105.597 40.9081 105.642 40.9995C105.688 41.0909 105.718 41.1899 105.748 41.3117L105.975 42.2637C105.982 42.2941 105.982 42.317 105.99 42.3322C105.997 42.3627 105.997 42.3779 105.997 42.3931Z" fill="#ED622B"/>
<path d="M110.87 39.9333C110.87 40.1389 110.848 40.3445 110.81 40.5502C110.772 40.7558 110.712 40.9614 110.636 41.1594C110.561 41.3574 110.463 41.5402 110.342 41.7077C110.221 41.8829 110.085 42.0276 109.919 42.157C109.76 42.2865 109.571 42.3855 109.367 42.4616C109.163 42.5378 108.936 42.5759 108.68 42.5759C108.423 42.5759 108.196 42.5454 108.007 42.4845C107.818 42.4236 107.667 42.3322 107.546 42.2103C107.425 42.0885 107.342 41.9438 107.282 41.7686C107.221 41.5935 107.199 41.3955 107.199 41.1746C107.199 40.969 107.214 40.7634 107.252 40.5578C107.289 40.3445 107.342 40.1465 107.425 39.9485C107.501 39.7581 107.599 39.5678 107.72 39.4002C107.841 39.2251 107.977 39.0728 108.136 38.9509C108.294 38.8214 108.483 38.7224 108.687 38.6463C108.891 38.5701 109.118 38.532 109.375 38.532C109.631 38.532 109.858 38.5625 110.047 38.631C110.236 38.692 110.387 38.791 110.508 38.9052C110.629 39.0271 110.719 39.1717 110.772 39.3469C110.825 39.5221 110.87 39.7201 110.87 39.9333ZM110.16 39.979C110.16 39.8419 110.145 39.7201 110.115 39.6135C110.085 39.5068 110.039 39.4155 109.971 39.3393C109.903 39.2631 109.82 39.2098 109.715 39.1641C109.609 39.1261 109.48 39.1032 109.329 39.1032C109.163 39.1032 109.019 39.1337 108.883 39.1946C108.748 39.2555 108.634 39.3317 108.528 39.4307C108.423 39.5297 108.332 39.6439 108.256 39.781C108.181 39.9181 108.113 40.0552 108.068 40.2075C108.015 40.3598 107.977 40.5121 107.954 40.672C107.932 40.8319 107.916 40.9919 107.916 41.1442C107.916 41.2813 107.932 41.4031 107.962 41.5097C107.992 41.6163 108.037 41.7153 108.105 41.7915C108.173 41.8677 108.256 41.9286 108.362 41.9666C108.468 42.0047 108.596 42.0276 108.748 42.0276C108.914 42.0276 109.065 41.9971 109.193 41.9362C109.322 41.8753 109.443 41.7991 109.548 41.7001C109.654 41.6011 109.745 41.4793 109.82 41.3498C109.896 41.2127 109.964 41.0756 110.009 40.9157C110.062 40.7634 110.1 40.6035 110.123 40.4512C110.145 40.2989 110.16 40.1313 110.16 39.979Z" fill="#ED622B"/>
<path d="M114.852 42.4007C114.852 42.4236 114.844 42.4388 114.829 42.4616C114.814 42.4769 114.799 42.4921 114.769 42.4997C114.746 42.5074 114.716 42.515 114.671 42.5226C114.633 42.5302 114.58 42.5302 114.527 42.5302C114.474 42.5302 114.429 42.5302 114.391 42.5226C114.353 42.515 114.323 42.5074 114.308 42.4997C114.285 42.4921 114.278 42.4769 114.27 42.4616C114.263 42.4464 114.263 42.4236 114.27 42.4007L114.406 41.7077C114.361 41.7991 114.293 41.8981 114.202 41.9971C114.112 42.0961 113.998 42.1951 113.87 42.2789C113.741 42.3627 113.605 42.4388 113.454 42.4921C113.303 42.5454 113.152 42.5759 112.993 42.5759C112.812 42.5759 112.654 42.5531 112.525 42.4997C112.397 42.4464 112.298 42.3779 112.223 42.2941C112.147 42.2027 112.087 42.1037 112.057 41.9819C112.026 41.86 112.004 41.7306 112.004 41.5859C112.004 41.4945 112.011 41.4031 112.019 41.3117C112.034 41.2203 112.049 41.1213 112.064 41.03L112.518 38.7148C112.525 38.692 112.533 38.6767 112.548 38.6615C112.563 38.6463 112.586 38.6311 112.608 38.6234C112.638 38.6158 112.676 38.6082 112.722 38.6006C112.767 38.593 112.82 38.593 112.888 38.593C112.956 38.593 113.009 38.593 113.046 38.6006C113.092 38.6082 113.122 38.6158 113.145 38.6234C113.167 38.6311 113.182 38.6463 113.19 38.6615C113.197 38.6767 113.197 38.692 113.197 38.7148L112.752 40.9995C112.737 41.068 112.722 41.1442 112.714 41.2203C112.706 41.2965 112.699 41.3726 112.699 41.4564C112.699 41.5402 112.706 41.6163 112.722 41.6773C112.737 41.7458 112.759 41.7991 112.797 41.8524C112.835 41.8981 112.88 41.9362 112.941 41.9666C113.001 41.9971 113.069 42.0047 113.152 42.0047C113.296 42.0047 113.439 41.9667 113.59 41.8829C113.741 41.7991 113.877 41.6849 114.013 41.5402C114.142 41.3955 114.263 41.2203 114.361 41.0147C114.459 40.8091 114.535 40.5882 114.588 40.3522L114.912 38.7224C114.912 38.6996 114.928 38.6844 114.943 38.6691C114.958 38.6539 114.98 38.6387 115.011 38.631C115.041 38.6234 115.079 38.6158 115.124 38.6082C115.169 38.6006 115.222 38.6006 115.29 38.6006C115.358 38.6006 115.411 38.6006 115.449 38.6082C115.494 38.6158 115.524 38.6234 115.547 38.631C115.57 38.6387 115.585 38.6539 115.592 38.6691C115.6 38.6844 115.6 38.6996 115.6 38.7224L114.852 42.4007ZM115.57 36.948C115.57 36.9937 115.562 37.0623 115.547 37.1384C115.532 37.2146 115.502 37.2983 115.456 37.3821C115.411 37.4659 115.358 37.5496 115.283 37.641C115.215 37.7248 115.124 37.8086 115.018 37.8771C114.912 37.9457 114.792 38.0066 114.64 38.0447C114.497 38.0903 114.331 38.1056 114.142 38.1056C113.945 38.1056 113.772 38.0827 113.636 38.037C113.5 37.9913 113.379 37.9304 113.296 37.8543C113.205 37.7781 113.145 37.6867 113.099 37.5801C113.062 37.4735 113.039 37.3669 113.039 37.245C113.039 37.207 113.039 37.1765 113.046 37.1384C113.046 37.1003 113.054 37.0699 113.061 37.0318C113.069 37.0013 113.077 36.9709 113.077 36.9404C113.084 36.9175 113.092 36.8947 113.099 36.8871C113.122 36.8643 113.152 36.8566 113.197 36.8414C113.243 36.8338 113.311 36.8262 113.401 36.8262C113.462 36.8262 113.507 36.8262 113.545 36.8338C113.583 36.8414 113.605 36.849 113.628 36.8566C113.651 36.8643 113.658 36.8795 113.666 36.9023C113.673 36.9176 113.673 36.9404 113.673 36.9632C113.673 36.9861 113.673 37.0166 113.666 37.0394C113.658 37.0699 113.658 37.1079 113.658 37.1536C113.658 37.2831 113.696 37.3897 113.779 37.4735C113.855 37.5573 113.998 37.603 114.187 37.603C114.285 37.603 114.369 37.5877 114.459 37.5649C114.542 37.542 114.618 37.4963 114.686 37.4506C114.754 37.405 114.807 37.3364 114.852 37.2526C114.897 37.1765 114.928 37.0851 114.95 36.9785C114.958 36.9556 114.965 36.9328 114.98 36.91C114.996 36.8871 115.011 36.8719 115.033 36.8643C115.056 36.849 115.086 36.8414 115.132 36.8338C115.169 36.8262 115.23 36.8262 115.298 36.8262C115.358 36.8262 115.411 36.8262 115.449 36.8338C115.487 36.8414 115.517 36.849 115.532 36.8566C115.555 36.8643 115.562 36.8795 115.57 36.8947C115.57 36.9099 115.57 36.9252 115.57 36.948Z" fill="#ED622B"/>
</svg>
