<svg width="24" height="20" viewBox="0 0 24 20" fill="none" xmlns="http://www.w3.org/2000/svg">
<path d="M20 3.3335H4C2.9 3.3335 2 4.0835 2 5.00016V15.0002C2 15.9168 2.9 16.6668 4 16.6668H20C21.1 16.6668 22 15.9168 22 15.0002V5.00016C22 4.0835 21.1 3.3335 20 3.3335ZM19.6 6.87516L13.06 10.2835C12.41 10.6252 11.59 10.6252 10.94 10.2835L4.4 6.87516C4.29973 6.82825 4.21192 6.76488 4.14189 6.68887C4.07186 6.61287 4.02106 6.52581 3.99258 6.43297C3.96409 6.34013 3.9585 6.24344 3.97616 6.14875C3.99381 6.05406 4.03434 5.96334 4.09528 5.88208C4.15623 5.80082 4.23632 5.73071 4.33073 5.67599C4.42513 5.62127 4.53187 5.58309 4.6445 5.56374C4.75712 5.5444 4.87328 5.5443 4.98595 5.56345C5.09863 5.5826 5.20546 5.62061 5.3 5.67516L12 9.16683L18.7 5.67516C18.7945 5.62061 18.9014 5.5826 19.014 5.56345C19.1267 5.5443 19.2429 5.5444 19.3555 5.56374C19.4681 5.58309 19.5749 5.62127 19.6693 5.67599C19.7637 5.73071 19.8438 5.80082 19.9047 5.88208C19.9657 5.96334 20.0062 6.05406 20.0238 6.14875C20.0415 6.24344 20.0359 6.34013 20.0074 6.43297C19.9789 6.52581 19.9281 6.61287 19.8581 6.68887C19.7881 6.76488 19.7003 6.82825 19.6 6.87516Z" fill="#93989D"/>
</svg>
