<svg width="24" height="24" viewBox="0 0 24 24" fill="none" xmlns="http://www.w3.org/2000/svg">
<path fill-rule="evenodd" clip-rule="evenodd" d="M6.37125 4.31479C7.86926 2.83176 9.89206 1.99989 12 2C14.1079 1.99989 16.1308 2.83176 17.6288 4.31479C19.1268 5.79782 19.9789 7.81216 20 9.92C20 15.4 13 21.5 12.65 21.76C12.4689 21.9149 12.2384 22.0001 12 22.0001C11.7616 22.0001 11.5311 21.9149 11.35 21.76L11.3484 21.7586C11.0255 21.4788 4 15.3905 4 9.92C4.02107 7.81216 4.87323 5.79782 6.37125 4.31479ZM10.0555 12.4101C10.6311 12.7947 11.3078 13 12 13C12.9283 13 13.8185 12.6313 14.4749 11.9749C15.1313 11.3185 15.5 10.4283 15.5 9.5C15.5 8.80777 15.2947 8.13108 14.9101 7.5555C14.5256 6.97993 13.9789 6.53133 13.3394 6.26642C12.6998 6.00151 11.9961 5.9322 11.3172 6.06725C10.6382 6.2023 10.0146 6.53564 9.52513 7.02513C9.03564 7.51461 8.7023 8.13825 8.56725 8.81718C8.43221 9.49612 8.50151 10.1999 8.76642 10.8394C9.03133 11.4789 9.47993 12.0256 10.0555 12.4101ZM13.5 9.5C13.5 10.3284 12.8284 11 12 11C11.1716 11 10.5 10.3284 10.5 9.5C10.5 8.67157 11.1716 8 12 8C12.8284 8 13.5 8.67157 13.5 9.5Z" fill="#93989D"/>
</svg>
