<svg width="32" height="32" viewBox="0 0 32 32" fill="none" xmlns="http://www.w3.org/2000/svg">
<path d="M16 2C13.2311 2 10.5243 2.82109 8.22202 4.35943C5.91973 5.89777 4.12532 8.08427 3.06569 10.6424C2.00607 13.2006 1.72882 16.0155 2.26901 18.7313C2.80921 21.447 4.14258 23.9416 6.10051 25.8995C8.05845 27.8574 10.553 29.1908 13.2687 29.731C15.9845 30.2712 18.7994 29.9939 21.3576 28.9343C23.9157 27.8747 26.1022 26.0803 27.6406 23.778C29.1789 21.4757 30 18.7689 30 16C30 12.287 28.525 8.72601 25.8995 6.1005C23.274 3.475 19.713 2 16 2ZM23.48 16.88L12.48 22.88C12.328 22.9678 12.1555 23.014 11.98 23.014C11.8045 23.014 11.632 22.9678 11.48 22.88C11.3296 22.7885 11.2061 22.659 11.1218 22.5045C11.0375 22.35 10.9955 22.1759 11 22V10C11 9.82646 11.0452 9.65591 11.1311 9.50512C11.2171 9.35434 11.3407 9.22851 11.49 9.14C11.642 9.05223 11.8145 9.00603 11.99 9.00603C12.1655 9.00603 12.338 9.05223 12.49 9.14L23.49 15.14C23.6488 15.2257 23.7814 15.3527 23.8738 15.5076C23.9662 15.6626 24.015 15.8396 24.015 16.02C24.015 16.2004 23.9662 16.3774 23.8738 16.5324C23.7814 16.6873 23.6488 16.8143 23.49 16.9L23.48 16.88Z" fill="white"/>
</svg>
