<svg width="81" height="36" viewBox="0 0 81 36" fill="none" xmlns="http://www.w3.org/2000/svg">
<g clip-path="url(#clip0)">
<path d="M32.8499 34.4318C32.6977 34.0045 32.4218 33.7131 32.222 33.3344C31.7367 32.6837 31.1658 32.1205 30.5949 31.5572C30.3951 31.4892 30.3095 31.295 30.1192 31.2173C29.9955 31.0522 29.7957 30.9648 29.6339 30.8385C29.3104 30.5861 28.9584 30.3724 28.5968 30.1587C27.9118 29.712 27.065 29.4304 26.2277 29.139C25.3238 28.9157 24.3723 28.7506 23.3828 28.6146C22.4027 28.469 21.4227 28.333 20.6806 27.9348C20.2524 27.8086 19.9384 27.5658 19.5673 27.3716C19.2248 27.1385 18.8537 26.9443 18.5683 26.6529C18.2162 26.4393 17.9974 26.0799 17.7215 25.7886C17.6263 25.5944 17.4646 25.4778 17.3885 25.2642C17.2933 25.2253 17.2648 25.1088 17.2077 25.0408C17.1411 24.9631 17.1411 24.8077 17.0269 24.7786C16.9698 25.1768 16.9888 25.6526 17.0269 26.0605C17.0745 26.2353 17.0935 26.449 17.1411 26.6238C17.1696 26.7792 17.3123 27.0317 17.2553 27.1482C14.2867 26.9928 12.1173 26.0314 10.2334 24.7689C9.30093 24.1377 8.50169 23.3705 7.75954 22.545C7.43604 22.0885 7.08399 21.6515 6.79855 21.1465C6.50359 20.6513 6.25621 20.088 5.98979 19.5636C5.55212 18.4273 5.14298 17.262 4.99075 15.8344C4.79094 14.5039 4.83851 12.8044 5.13347 11.5711C5.23813 10.8913 5.45697 10.3183 5.64726 9.7259C5.77095 9.45398 5.90416 9.18206 6.01834 8.90042C6.18009 8.66735 6.26572 8.34687 6.46553 8.14293C7.00787 7.10381 7.81663 6.3269 8.64441 5.57912C9.53879 4.90903 10.5569 4.36519 11.7843 4.035C12.9641 3.76308 14.5721 3.71452 15.8471 3.99615C18.4351 4.53999 20.3856 5.72479 22.0221 7.23977C23.6777 8.72562 24.9527 10.6096 25.828 12.9015C26.7319 15.0769 27.0459 18.4662 26.2372 20.9329C25.9042 20.7387 25.5711 20.5541 25.2381 20.3696C24.8385 20.2531 24.4484 20.1171 23.9822 20.0686C23.4208 20.0589 22.869 20.0686 22.5074 20.2531C23.24 20.1754 23.8299 20.3793 24.2867 20.5541C24.5531 20.661 24.7053 20.7289 24.9146 20.8552C25.3238 21.098 25.6853 21.3213 25.9898 21.6515C26.8556 22.4284 27.4741 23.4579 27.7691 24.8175C27.7691 24.8563 27.8166 24.8466 27.8071 24.7786C27.8452 24.7689 27.8642 24.7398 27.8832 24.7009C27.9308 24.6427 27.9879 24.5844 28.0355 24.5164C28.1306 24.3999 28.2258 24.2833 28.2924 24.1377C28.4922 23.8949 28.6539 23.623 28.8062 23.3413C29.1582 22.8169 29.4246 22.2148 29.7291 21.6418C30.2524 20.4182 30.6806 19.0974 30.947 17.6019C31.4798 14.2806 30.8423 11.1341 29.7291 8.81302C28.5873 6.47257 26.9888 4.59826 24.9241 3.1901C22.8404 1.79166 20.4046 0.762245 17.0554 0.665131C17.0364 0.597151 17.0079 0.674842 16.9413 0.665131C15.1715 0.606862 13.7443 0.859359 12.3266 1.22839C11.6701 1.45176 10.985 1.64599 10.4046 1.94704C9.7386 2.1704 9.20578 2.53944 8.59684 2.81136C8.378 3.02501 8.04498 3.13183 7.81663 3.33577C7.52167 3.48145 7.30283 3.71452 7.00787 3.86019C6.53213 4.28749 6.02785 4.66624 5.56163 5.10326C5.10492 5.53056 4.7053 6.01613 4.26762 6.46286C4.20102 6.61824 4.08684 6.72506 3.97267 6.8416C3.89655 6.98727 3.8014 7.11352 3.67771 7.22035C3.63014 7.39515 3.4779 7.46313 3.42081 7.63794C3.29712 7.73505 3.26858 7.92928 3.12585 8.01669C3.00216 8.32745 2.78332 8.55081 2.6406 8.84216C2.46934 9.12379 2.33613 9.43455 2.16487 9.70647C1.89845 10.3377 1.61301 10.9495 1.39417 11.6293C1.16582 12.2897 0.975522 12.9889 0.842315 13.7464C0.699594 14.4554 0.566387 15.3779 0.585417 16.1257C0.490269 16.3976 0.566387 16.9026 0.585417 17.2231C0.585417 17.2814 0.547358 17.3008 0.547358 17.3397C0.547358 17.699 0.642505 18.136 0.661535 18.3594C0.737653 19.1848 0.880374 19.952 1.10873 20.6221C1.25145 21.3699 1.55592 21.9526 1.77476 22.6227C2.10778 23.1859 2.33613 23.856 2.73575 24.361C3.03071 24.9534 3.44936 25.4196 3.84898 25.9051C4.27714 26.3713 4.7053 26.8472 5.2191 27.2259C6.16106 28.0611 7.26477 28.7312 8.47314 29.3041C10.7281 30.421 14.0964 31.1493 17.122 30.9648C17.8927 30.858 18.673 30.7609 19.377 30.5861C20.024 30.3433 20.7757 30.1976 21.5559 30.1005C23.3352 29.9839 24.8766 30.149 26.2467 30.5569C27.6358 30.9357 28.8347 31.5086 29.8718 32.2564C30.4237 32.5866 30.8804 33.0139 31.3466 33.4218C31.8223 33.8394 32.2029 34.3541 32.6406 34.8202C32.6977 34.995 32.8119 35.1213 32.8975 35.2767C33.0117 35.4029 32.9546 35.6943 33.2305 35.6554C33.4018 35.4806 33.202 35.2281 33.1925 35.0145C33.0212 34.8299 32.9831 34.5872 32.8499 34.4318Z" fill="#FCB316"/>
<path d="M25.9424 24.0987C25.9044 24.0987 25.8949 24.1278 25.8663 24.1375C25.7997 24.2832 25.8283 24.5163 25.8663 24.6619C26.0661 25.0795 26.1327 25.6234 26.5704 25.7982C26.7797 25.7302 26.7607 25.4194 26.7512 25.1184C26.6561 24.7493 26.5228 24.4192 26.304 24.1764C26.1518 24.1181 26.0471 24.021 25.9424 24.0987ZM23.3544 25.1572C23.3544 25.1378 23.3259 25.1184 23.3164 25.1572C22.9548 25.1087 22.8311 25.3126 22.6504 25.4583C22.3364 26.3032 22.8407 27.1286 23.7255 27.1189C24.0776 27.0315 24.2964 26.7984 24.3535 26.4003C24.3059 25.6913 24.011 25.2349 23.3544 25.1572Z" fill="#FCB316"/>
<path d="M44.6864 22.4672C44.8291 23.079 45.1336 23.516 45.4761 23.9239C45.8186 24.3318 46.2183 24.6717 46.7035 24.9242C47.1602 25.2155 47.655 25.4583 48.2259 25.6234C48.5018 25.7205 48.7682 25.8371 49.1107 25.8759C49.3486 26.0119 49.6341 26.0799 49.6531 26.4295C49.6436 26.8471 49.3676 27.0024 49.0156 27.0801C48.6635 27.0024 48.2259 27.0121 47.9309 26.8762C47.1888 26.7888 46.5893 26.546 45.9614 26.3226C44.7625 25.8468 43.7539 25.1573 42.9166 24.3124C42.7454 24.021 42.5075 23.788 42.3267 23.5063C42.1459 23.2247 42.0223 22.8848 41.832 22.6032C40.3667 22.4089 39.3676 21.7291 38.4923 20.9425C37.6835 20.0005 37.0365 18.874 36.7701 17.3784C36.4561 15.9411 36.5513 14.1445 36.9223 12.7558C37.7311 10.0657 39.4247 8.2788 42.6217 8.03601C43.5066 8.06515 44.2772 8.17197 44.9813 8.44389C45.6949 8.7061 46.3705 9.19167 46.9033 9.69667C46.9509 9.73551 46.9699 9.74522 46.9985 9.79378C47.1126 9.95887 47.3886 10.1919 47.5408 10.3959C47.5694 10.4347 47.5598 10.5027 47.5884 10.5513C47.6455 10.6387 47.7311 10.6775 47.7882 10.7552C47.8167 10.8038 47.8072 10.862 47.8358 10.9009C47.8738 10.9592 47.9214 11.0466 47.9785 11.1534C47.9975 11.1922 48.0641 11.2214 48.0736 11.2505C48.1593 11.4156 48.1973 11.6195 48.2734 11.804C48.3496 11.9983 48.4542 12.1634 48.5208 12.3576C48.7111 12.9306 48.8348 13.6104 48.9109 14.3096C49.1012 16.3296 48.7111 18.1359 47.9785 19.4761C47.636 20.1753 47.1602 20.7483 46.5988 21.2338C46.0851 21.7874 45.381 22.1176 44.6864 22.4672ZM42.3267 9.82291C41.8986 9.85205 41.6417 10.056 41.2896 10.1725C41.0613 10.3862 40.7758 10.5513 40.6046 10.8232C40.3191 10.9883 40.243 11.3573 40.0146 11.571C39.8243 12.0565 39.6436 12.6004 39.5199 13.2316C39.4057 13.8532 39.3296 14.5524 39.3201 15.2419C39.3106 16.9705 39.6721 18.6895 40.3477 19.7092C40.7473 20.2044 41.2325 20.6123 41.8224 20.9134C42.165 20.9425 42.4314 21.059 42.8025 21.0688C43.0118 20.9911 43.3543 21.0688 43.4875 20.9134C43.792 20.9328 43.8586 20.7289 44.125 20.7094C44.2677 20.5638 44.42 20.4472 44.6198 20.3598C44.8006 20.1559 44.9718 19.9519 45.1621 19.7577C45.2573 19.612 45.3144 19.4081 45.4571 19.3013C46.3134 17.6309 46.4086 14.5718 45.8472 12.6295C45.6379 11.9206 45.3429 11.3476 45.0099 10.8717C44.6483 10.493 44.2202 10.1725 43.7349 9.92003C43.3448 9.83263 42.9737 9.7258 42.4599 9.77436C42.4314 9.77436 42.4028 9.78407 42.4124 9.82291C42.3933 9.82291 42.3648 9.82291 42.3267 9.82291ZM52.7073 8.41476C53.478 8.44389 54.3819 8.34678 55.067 8.46331C55.2192 8.7061 55.1621 8.99744 55.1621 9.26936C55.2192 12.95 55.1621 16.9025 55.1621 20.6609C55.1621 20.9619 55.1716 21.2727 55.1621 21.564C55.1526 21.8165 55.2192 22.0885 55.067 22.3215C54.7244 22.4089 54.2297 22.3701 53.792 22.3701C53.3258 22.3701 52.8691 22.4381 52.5646 22.273C52.479 17.8251 52.479 13.0277 52.5646 8.57014C52.5836 8.49245 52.6312 8.44389 52.7073 8.41476ZM58.6065 8.41476H60.9185C61.1279 8.7061 61.1945 9.14311 61.2611 9.57042C61.9556 12.2702 62.6407 14.9797 63.2782 17.7474C63.4304 17.7669 63.3829 17.5823 63.4304 17.4949C63.497 17.427 63.459 17.2619 63.5256 17.1939C63.5541 16.9705 63.6873 16.854 63.6778 16.5918C63.8491 16.2519 63.9062 15.7857 64.0679 15.4361C64.2677 14.6204 64.5341 13.8629 64.7625 13.0762C64.9813 12.2605 65.2763 11.5224 65.4476 10.6678C65.7711 9.9783 65.8472 9.03629 66.2373 8.41476H67.2173C67.5694 9.09456 67.7026 9.99772 68.007 10.7261C68.2068 11.5418 68.4828 12.2799 68.6921 13.086C69.1773 14.6495 69.6816 16.1936 70.1193 17.8057C70.3191 17.5047 70.3191 16.9997 70.4618 16.6501C70.5475 16.2519 70.6236 15.844 70.7568 15.4944C71.1374 13.9017 71.4989 12.2993 71.9366 10.7746C72.0984 9.9783 72.2601 9.16254 72.5265 8.46331C73.0974 8.37591 73.9728 8.37591 74.5437 8.46331C74.5912 9.05571 74.3248 9.69667 74.1536 10.2211C74.0584 10.862 73.8301 11.3573 73.7064 11.9789C73.3543 13.1151 73.0879 14.3193 72.7263 15.4458C72.4504 16.6501 72.0793 17.7572 71.7939 18.9614C71.6036 19.5149 71.4704 20.1267 71.2991 20.7191C71.1088 21.263 71.0422 21.9331 70.7568 22.3798H69.3772C69.0251 21.7486 68.9014 20.8939 68.5874 20.2239C67.9024 18.0097 67.1412 15.8828 66.4752 13.6492C66.2468 13.892 66.2468 14.3873 66.0851 14.6981C65.9804 15.0768 65.8757 15.4555 65.7425 15.8052C65.5522 16.5724 65.2668 17.223 65.105 18.0097C64.8291 18.6992 64.6293 19.4664 64.42 20.2239C64.1345 20.8842 64.0299 21.7291 63.6778 22.3312C63.3163 22.4478 62.7454 22.3507 62.2982 22.3798C61.9557 21.9816 61.9176 21.263 61.7083 20.7191C61.5465 20.1559 61.4323 19.5343 61.223 19.0099C60.9566 17.7863 60.557 16.7083 60.2906 15.4944C59.9385 14.3679 59.6341 13.1928 59.3105 12.0274C59.1298 11.4739 58.9966 10.8815 58.8158 10.3182C58.7302 9.71609 58.3305 9.17225 58.4733 8.51187C58.4923 8.46331 58.5494 8.43418 58.6065 8.41476ZM78.0261 8.41476C78.7968 8.44389 79.6911 8.34678 80.3857 8.46331C80.557 8.98773 80.4809 9.55099 80.4809 10.1143V20.6512C80.4809 21.2241 80.5475 21.7777 80.3857 22.3118C79.8529 22.3701 79.0727 22.3992 78.4162 22.3604C78.2259 22.3507 77.9975 22.4089 77.8738 22.2633C77.7026 21.7388 77.7787 21.1853 77.7787 20.6026V10.1725C77.7787 9.54128 77.7216 8.92946 77.8738 8.51187C77.9119 8.46331 77.969 8.43418 78.0261 8.41476Z" fill="#0269B3"/>
</g>
<defs>
<clipPath id="clip0">
<rect width="80" height="35" fill="white" transform="translate(0.5 0.645569)"/>
</clipPath>
</defs>
</svg>
