<svg width="89" height="56" viewBox="0 0 89 56" fill="none" xmlns="http://www.w3.org/2000/svg">
<g filter="url(#filter0_d)">
<rect width="68" height="36" rx="18" transform="matrix(1 0 0 -1 10.5 46)" fill="white"/>
<path d="M26.9952 27.9492C26.9943 27.7956 27.0238 27.6434 27.0818 27.5013C27.1399 27.3591 27.2254 27.2299 27.3336 27.1208L32.0002 22.4542C32.109 22.3454 32.2381 22.2591 32.3803 22.2002C32.5224 22.1414 32.6747 22.1111 32.8286 22.1111C32.9824 22.1111 33.1347 22.1414 33.2769 22.2002C33.419 22.2591 33.5481 22.3454 33.6569 22.4542C33.7657 22.563 33.852 22.6921 33.9108 22.8342C33.9697 22.9763 34 23.1287 34 23.2825C34 23.4363 33.9697 23.5887 33.9108 23.7308C33.852 23.8729 33.7657 24.0021 33.6569 24.1108L29.7952 27.9492L33.5052 31.7992C33.6246 31.9065 33.7205 32.0373 33.787 32.1834C33.8534 32.3295 33.8891 32.4877 33.8916 32.6482C33.8942 32.8086 33.8636 32.9679 33.8017 33.116C33.7399 33.2642 33.6482 33.3979 33.5323 33.509C33.4164 33.62 33.2789 33.706 33.1283 33.7614C32.9777 33.8169 32.8172 33.8407 32.657 33.8313C32.4968 33.822 32.3402 33.7796 32.1971 33.707C32.054 33.6344 31.9274 33.533 31.8252 33.4092L27.3219 28.7425C27.1162 28.5292 26.9994 28.2455 26.9952 27.9492Z" fill="#ED622B"/>
<path d="M62 27.9492C62.0009 27.7956 61.9714 27.6434 61.9134 27.5013C61.8553 27.3591 61.7698 27.2299 61.6616 27.1208L56.995 22.4542C56.8862 22.3454 56.7571 22.2591 56.6149 22.2002C56.4728 22.1414 56.3205 22.1111 56.1666 22.1111C56.0128 22.1111 55.8605 22.1414 55.7184 22.2002C55.5762 22.2591 55.4471 22.3454 55.3383 22.4542C55.2295 22.563 55.1432 22.6921 55.0844 22.8342C55.0255 22.9763 54.9952 23.1287 54.9952 23.2825C54.9952 23.4363 55.0255 23.5887 55.0844 23.7308C55.1432 23.8729 55.2295 24.0021 55.3383 24.1108L59.2 27.9492L55.49 31.7992C55.3706 31.9065 55.2747 32.0373 55.2082 32.1834C55.1418 32.3295 55.1061 32.4877 55.1036 32.6482C55.1011 32.8086 55.1316 32.9679 55.1935 33.116C55.2553 33.2642 55.347 33.3979 55.4629 33.509C55.5788 33.62 55.7163 33.706 55.8669 33.7614C56.0175 33.8169 56.178 33.8407 56.3382 33.8313C56.4984 33.822 56.655 33.7796 56.7981 33.707C56.9412 33.6344 57.0678 33.533 57.17 33.4092L61.6733 28.7425C61.879 28.5292 61.9958 28.2455 62 27.9492Z" fill="#ED622B"/>
<rect x="0.5" y="-0.5" width="67" height="35" rx="17.5" transform="matrix(1 0 0 -1 10.5 45)" stroke="#F7F9FA"/>
</g>
<defs>
<filter id="filter0_d" x="0.5" y="0" width="88" height="56" filterUnits="userSpaceOnUse" color-interpolation-filters="sRGB">
<feFlood flood-opacity="0" result="BackgroundImageFix"/>
<feColorMatrix in="SourceAlpha" type="matrix" values="0 0 0 0 0 0 0 0 0 0 0 0 0 0 0 0 0 0 127 0"/>
<feOffset/>
<feGaussianBlur stdDeviation="5"/>
<feColorMatrix type="matrix" values="0 0 0 0 0.358854 0 0 0 0 0.40026 0 0 0 0 0.441667 0 0 0 0.15 0"/>
<feBlend mode="normal" in2="BackgroundImageFix" result="effect1_dropShadow"/>
<feBlend mode="normal" in="SourceGraphic" in2="effect1_dropShadow" result="shape"/>
</filter>
</defs>
</svg>
