<svg width="61" height="60" viewBox="0 0 61 60" fill="none" xmlns="http://www.w3.org/2000/svg">
<path d="M23 30.1089C22.9981 30.4379 23.0612 30.764 23.1856 31.0686C23.31 31.3732 23.4933 31.6503 23.725 31.8839L33.725 41.8839C33.9581 42.1169 34.2349 42.3019 34.5394 42.428C34.844 42.5542 35.1704 42.6191 35.5 42.6191C35.8297 42.6191 36.1561 42.5542 36.4607 42.428C36.7652 42.3019 37.0419 42.117 37.275 41.8839C37.5081 41.6508 37.693 41.374 37.8192 41.0695C37.9453 40.7649 38.0103 40.4385 38.0103 40.1089C38.0103 39.7792 37.9453 39.4528 37.8192 39.1482C37.693 38.8437 37.5081 38.567 37.275 38.3339L29 30.1089L36.95 21.8589C37.2058 21.6289 37.4113 21.3486 37.5538 21.0356C37.6962 20.7225 37.7726 20.3835 37.778 20.0396C37.7835 19.6957 37.7179 19.3544 37.5854 19.037C37.4529 18.7196 37.2564 18.433 37.0081 18.195C36.7598 17.9571 36.465 17.7729 36.1423 17.654C35.8196 17.5352 35.4758 17.4842 35.1324 17.5043C34.7891 17.5243 34.4536 17.615 34.1469 17.7707C33.8402 17.9263 33.5689 18.1436 33.35 18.4089L23.7 28.4089C23.2593 28.866 23.009 29.4738 23 30.1089Z" fill="#DEE1E5"/>
</svg>
