<svg width="140" height="140" viewBox="0 0 140 140" fill="none" xmlns="http://www.w3.org/2000/svg">
<path fill-rule="evenodd" clip-rule="evenodd" d="M35.0007 35C28.5573 35 23.334 40.2233 23.334 46.6667V93.3333C23.334 99.7767 28.5573 105 35.0007 105H105.001C111.444 105 116.667 99.7767 116.667 93.3333V46.6667C116.667 40.2233 111.444 35 105.001 35H35.0007ZM104.567 48.5079C103.619 46.806 101.423 46.1693 99.6628 47.0857L70.0006 62.5251L40.3385 47.0857C38.5779 46.1693 36.3821 46.806 35.4341 48.5079C34.4861 50.2098 35.1448 52.3324 36.9054 53.2488L68.2841 69.5817C69.3557 70.1394 70.6456 70.1394 71.7172 69.5817L103.096 53.2488C104.856 52.3324 105.515 50.2098 104.567 48.5079Z" fill="#5AE0B6"/>
</svg>
