<svg width="40" height="40" viewBox="0 0 40 40" fill="none" xmlns="http://www.w3.org/2000/svg">
<path d="M0 12C0 5.37258 5.37258 0 12 0H28C34.6274 0 40 5.37258 40 12V28C40 34.6274 34.6274 40 28 40H12C5.37258 40 0 34.6274 0 28V12Z" fill="#F7F9FA"/>
<path d="M16 20.058C15.999 20.2335 16.0326 20.4074 16.099 20.5699C16.1653 20.7323 16.2631 20.8801 16.3867 21.0046L21.72 26.338C21.8443 26.4623 21.9919 26.5609 22.1544 26.6282C22.3168 26.6955 22.4909 26.7301 22.6667 26.7301C22.8425 26.7301 23.0166 26.6955 23.179 26.6282C23.3415 26.5609 23.489 26.4623 23.6134 26.338C23.7377 26.2137 23.8363 26.0661 23.9036 25.9036C23.9709 25.7412 24.0055 25.5671 24.0055 25.3913C24.0055 25.2155 23.9709 25.0414 23.9036 24.879C23.8363 24.7165 23.7377 24.569 23.6134 24.4446L19.2 20.058L23.44 15.658C23.5764 15.5353 23.686 15.3858 23.762 15.2189C23.838 15.0519 23.8787 14.8711 23.8816 14.6877C23.8845 14.5043 23.8495 14.3223 23.7789 14.153C23.7082 13.9837 23.6034 13.8308 23.471 13.7039C23.3385 13.577 23.1814 13.4788 23.0092 13.4154C22.8371 13.352 22.6537 13.3248 22.4706 13.3355C22.2875 13.3462 22.1086 13.3946 21.945 13.4776C21.7814 13.5606 21.6368 13.6765 21.52 13.818L16.3734 19.1513C16.1383 19.3951 16.0048 19.7193 16 20.058Z" fill="#132333"/>
</svg>
