<svg width="48" height="48" viewBox="0 0 48 48" fill="none" xmlns="http://www.w3.org/2000/svg">
<path opacity="0.99" d="M20.6261 32.188C20.3631 32.1885 20.1026 32.137 19.8595 32.0364C19.6165 31.9359 19.3958 31.7882 19.2101 31.602L13.5861 25.976C13.2218 25.5988 13.0202 25.0936 13.0247 24.5692C13.0293 24.0448 13.2396 23.5432 13.6104 23.1723C13.9813 22.8015 14.4829 22.5912 15.0073 22.5866C15.5317 22.5821 16.0369 22.7837 16.4141 23.148L20.6241 27.36L31.5861 16.4C31.9647 16.0444 32.4669 15.8501 32.9862 15.8582C33.5056 15.8662 34.0015 16.076 34.3689 16.4432C34.7363 16.8104 34.9465 17.3061 34.9549 17.8254C34.9634 18.3448 34.7694 18.8471 34.4141 19.226L22.0381 31.602C21.8526 31.788 21.6322 31.9355 21.3895 32.0361C21.1469 32.1366 20.8868 32.1882 20.6241 32.188H20.6261Z" fill="#5AE0B6"/>
<path opacity="0.5" d="M24 4C20.0444 4 16.1776 5.17298 12.8886 7.37061C9.59962 9.56824 7.03617 12.6918 5.52242 16.3463C4.00867 20.0009 3.6126 24.0222 4.3843 27.9018C5.15601 31.7814 7.06082 35.3451 9.85787 38.1421C12.6549 40.9392 16.2186 42.844 20.0982 43.6157C23.9778 44.3874 27.9992 43.9913 31.6537 42.4776C35.3082 40.9638 38.4318 38.4004 40.6294 35.1114C42.827 31.8224 44 27.9556 44 24C43.9942 18.6975 41.8852 13.6138 38.1357 9.8643C34.3862 6.11483 29.3026 4.00582 24 4ZM34.414 19.226L22.038 31.602C21.663 31.9769 21.1543 32.1876 20.624 32.1876C20.0937 32.1876 19.5851 31.9769 19.21 31.602L13.586 25.976C13.2217 25.5988 13.0201 25.0936 13.0247 24.5692C13.0292 24.0448 13.2396 23.5432 13.6104 23.1724C13.9812 22.8015 14.4828 22.5912 15.0072 22.5867C15.5316 22.5821 16.0368 22.7837 16.414 23.148L20.624 27.36L31.586 16.4C31.9647 16.0444 32.4668 15.8501 32.9862 15.8582C33.5055 15.8662 34.0014 16.0761 34.3688 16.4432C34.7362 16.8104 34.9464 17.3061 34.9548 17.8255C34.9633 18.3448 34.7693 18.8471 34.414 19.226Z" fill="#5AE0B6"/>
</svg>
