<svg width="259" height="279" viewBox="0 0 259 279" fill="none" xmlns="http://www.w3.org/2000/svg">
<g opacity="0.5">
<path d="M240.945 116.487L184.591 207.165C174.793 222.906 162.988 234.666 149.391 242.272C135.727 249.917 121.155 253.302 106.104 252.311C91.1056 251.334 76.4359 246.37 62.4905 237.64C48.1101 228.622 37.04 217.448 29.6625 204.394C22.1542 191.19 18.8367 176.584 19.6238 160.896C20.3966 145.263 25.8312 129.443 35.5616 113.741L91.9154 23.0627C97.7372 13.6602 110.071 10.7666 119.439 16.6056C128.754 22.4303 131.564 34.8919 125.742 44.2943L68.2586 136.851C59.533 150.928 56.6019 164.204 59.5658 176.305C62.5154 188.46 70.0835 198.466 82.1823 206.012C94.1749 213.53 105.957 215.883 118.248 213.15C130.312 210.414 140.842 201.929 149.621 187.866L207.104 95.3091C212.926 85.9067 225.313 83.0271 234.628 88.8519C244.01 94.6373 246.767 107.085 240.945 116.487Z" fill="#5AE0B6"/>
<path d="M102.299 192.347C119.287 196.899 136.778 186.708 141.367 169.584C145.955 152.46 135.903 134.888 118.915 130.337C101.927 125.785 84.4362 135.976 79.8479 153.1C75.2596 170.224 85.3115 187.796 102.299 192.347Z" fill="#ED622B"/>
</g>
</svg>
