<svg width="120" height="120" viewBox="0 0 120 120" fill="none" xmlns="http://www.w3.org/2000/svg">
<path fill-rule="evenodd" clip-rule="evenodd" d="M30 30C24.4772 30 20 34.4772 20 40V80C20 85.5228 24.4772 90 30 90H90C95.5229 90 100 85.5228 100 80V40C100 34.4772 95.5229 30 90 30H30ZM89.6285 41.5782C88.8159 40.1195 86.9338 39.5737 85.4247 40.3592L60 53.5929L34.5753 40.3592C33.0662 39.5737 31.1841 40.1195 30.3715 41.5782C29.559 43.037 30.1236 44.8563 31.6327 45.6418L58.5287 59.6414C59.4472 60.1195 60.5528 60.1195 61.4713 59.6414L88.3673 45.6418C89.8764 44.8563 90.441 43.037 89.6285 41.5782Z" fill="#DEE1E5"/>
</svg>
