<svg width="60" height="60" viewBox="0 0 60 60" fill="none" xmlns="http://www.w3.org/2000/svg">
<path opacity="0.3" d="M30 27.5C24.4772 27.5 20 23.0228 20 17.5C20 11.9772 24.4772 7.5 30 7.5C35.5228 7.5 40 11.9772 40 17.5C40 23.0228 35.5228 27.5 30 27.5Z" fill="#5AE0B6"/>
<path d="M7.50163 50.498C8.47065 38.5663 18.1548 32.5 29.9584 32.5C41.928 32.5 51.7622 38.233 52.4948 50.5C52.524 50.9887 52.4948 52.5 50.6168 52.5C41.3528 52.5 27.5868 52.5 9.31876 52.5C8.69178 52.5 7.44885 51.1479 7.50163 50.498Z" fill="#5AE0B6"/>
</svg>
