<svg width="24" height="24" viewBox="0 0 24 24" fill="none" xmlns="http://www.w3.org/2000/svg">
<path d="M19.338 17.6894C18.9114 16.679 18.2924 15.7612 17.5154 14.9872C16.7407 14.2109 15.8231 13.592 14.8131 13.1646C14.8041 13.1601 14.795 13.1578 14.786 13.1533C16.1948 12.1357 17.1106 10.4781 17.1106 8.60804C17.1106 5.51005 14.6006 3 11.5026 3C8.40458 3 5.89453 5.51005 5.89453 8.60804C5.89453 10.4781 6.81036 12.1357 8.21915 13.1555C8.21011 13.16 8.20106 13.1623 8.19202 13.1668C7.17895 13.5942 6.26991 14.207 5.48976 14.9894C4.71347 15.7641 4.09454 16.6817 3.66714 17.6917C3.24727 18.6805 3.02082 19.7406 3.00006 20.8146C2.99945 20.8387 3.00369 20.8627 3.01251 20.8852C3.02133 20.9077 3.03456 20.9281 3.05142 20.9454C3.06828 20.9627 3.08842 20.9764 3.11067 20.9858C3.13292 20.9952 3.15682 21 3.18096 21H4.53774C4.63724 21 4.71639 20.9209 4.71865 20.8236C4.76388 19.0779 5.46488 17.443 6.70408 16.2038C7.98624 14.9216 9.689 14.2161 11.5026 14.2161C13.3161 14.2161 15.0189 14.9216 16.3011 16.2038C17.5403 17.443 18.2413 19.0779 18.2865 20.8236C18.2887 20.9231 18.3679 21 18.4674 21H19.8242C19.8483 21 19.8722 20.9952 19.8945 20.9858C19.9167 20.9764 19.9369 20.9627 19.9537 20.9454C19.9706 20.9281 19.9838 20.9077 19.9926 20.8852C20.0015 20.8627 20.0057 20.8387 20.0051 20.8146C19.9825 19.7337 19.7586 18.6822 19.338 17.6894ZM11.5026 12.4975C10.4646 12.4975 9.48774 12.0927 8.75282 11.3578C8.0179 10.6229 7.61312 9.64598 7.61312 8.60804C7.61312 7.5701 8.0179 6.59322 8.75282 5.85829C9.48774 5.12337 10.4646 4.71859 11.5026 4.71859C12.5405 4.71859 13.5174 5.12337 14.2523 5.85829C14.9872 6.59322 15.392 7.5701 15.392 8.60804C15.392 9.64598 14.9872 10.6229 14.2523 11.3578C13.5174 12.0927 12.5405 12.4975 11.5026 12.4975Z" fill="#ED622B"/>
</svg>
