<svg width="26" height="26" viewBox="0 0 26 26" fill="none" xmlns="http://www.w3.org/2000/svg">
<path d="M22.3029 8.36784C22.4391 7.91533 22.3029 7.5835 21.6587 7.5835H19.5246C18.9816 7.5835 18.7335 7.87057 18.5972 8.18586C18.5972 8.18586 17.5122 10.8318 15.9746 12.5474C15.4783 13.0466 15.2516 13.2043 14.9811 13.2043C14.8458 13.2043 14.6492 13.0466 14.6492 12.5941V8.36784C14.6492 7.82483 14.4926 7.5835 14.0401 7.5835H10.6867C10.348 7.5835 10.1436 7.83456 10.1436 8.07395C10.1436 8.58777 10.9124 8.70649 10.9912 10.1545V13.2958C10.9912 13.9838 10.8677 14.1093 10.5952 14.1093C9.87215 14.1093 8.11273 11.4536 7.06856 8.41358C6.86518 7.82289 6.65985 7.58447 6.11489 7.58447H3.98179C3.37164 7.58447 3.25 7.87154 3.25 8.18684C3.25 8.7532 3.97304 11.5558 6.618 15.2625C8.38131 17.7936 10.8638 19.1657 13.1253 19.1657C14.4809 19.1657 14.6483 18.8611 14.6483 18.3356V16.4224C14.6483 15.8133 14.7777 15.6906 15.2068 15.6906C15.5221 15.6906 16.0651 15.8502 17.3312 17.0696C18.7773 18.5156 19.0166 19.1647 19.8292 19.1647H21.9623C22.5715 19.1647 22.8761 18.8601 22.7009 18.2587C22.5092 17.6603 21.8183 16.7893 20.9016 15.7588C20.4034 15.171 19.6589 14.5385 19.4322 14.2222C19.1159 13.8144 19.2074 13.6344 19.4322 13.2724C19.4331 13.2734 22.0324 9.61247 22.3029 8.36784Z" fill="#132333"/>
</svg>
