<svg viewBox="0 0 16 16" fill="none" xmlns="http://www.w3.org/2000/svg">
<path d="M1.33599 14.6667L2.23732 11.3547C1.64341 10.3366 1.33139 9.17866 1.33332 8C1.33332 4.318 4.31799 1.33333 7.99999 1.33333C11.682 1.33333 14.6667 4.318 14.6667 8C14.6667 11.682 11.682 14.6667 7.99999 14.6667C6.82184 14.6686 5.66443 14.3568 4.64665 13.7633L1.33599 14.6667ZM5.59399 4.872C5.5079 4.87734 5.42377 4.90002 5.34666 4.93867C5.27434 4.97962 5.20832 5.03082 5.15065 5.09067C5.07065 5.166 5.02532 5.23133 4.97666 5.29467C4.73026 5.61533 4.59773 6.00894 4.59999 6.41333C4.60132 6.74 4.68666 7.058 4.81999 7.35533C5.09265 7.95667 5.54132 8.59333 6.13399 9.18333C6.27666 9.32533 6.41599 9.468 6.56599 9.60067C7.30158 10.2483 8.17816 10.7154 9.12599 10.9647L9.50532 11.0227C9.62866 11.0293 9.75199 11.02 9.87599 11.014C10.0701 11.004 10.2597 10.9514 10.4313 10.86C10.5186 10.815 10.6038 10.7661 10.6867 10.7133C10.6867 10.7133 10.7153 10.6947 10.77 10.6533C10.86 10.5867 10.9153 10.5393 10.99 10.4613C11.0453 10.404 11.0933 10.3367 11.13 10.26C11.182 10.1513 11.234 9.944 11.2553 9.77133C11.2713 9.63933 11.2667 9.56733 11.2647 9.52267C11.262 9.45133 11.2027 9.37733 11.138 9.346L10.75 9.172C10.75 9.172 10.17 8.91933 9.81599 8.758C9.77866 8.74173 9.73866 8.73246 9.69799 8.73067C9.65238 8.72598 9.60629 8.73111 9.56282 8.74572C9.51936 8.76032 9.47952 8.78406 9.44599 8.81533V8.814C9.44265 8.814 9.39799 8.852 8.91599 9.436C8.88832 9.47317 8.85022 9.50127 8.80652 9.5167C8.76283 9.53214 8.71553 9.53421 8.67065 9.52267C8.62722 9.51105 8.58466 9.49635 8.54332 9.47867C8.46065 9.444 8.43199 9.43067 8.37532 9.406L8.37199 9.40467C7.99059 9.23815 7.63747 9.01323 7.32532 8.738C7.24132 8.66467 7.16332 8.58467 7.08332 8.50733C6.82104 8.25616 6.59246 7.97201 6.40332 7.662L6.36399 7.59867C6.33574 7.55611 6.31289 7.5102 6.29599 7.462C6.27066 7.364 6.33666 7.28533 6.33666 7.28533C6.33666 7.28533 6.49865 7.108 6.57399 7.012C6.63671 6.93221 6.69524 6.84921 6.74932 6.76333C6.82799 6.63667 6.85265 6.50667 6.81132 6.406C6.62465 5.95 6.43132 5.496 6.23266 5.04533C6.19332 4.956 6.07666 4.892 5.97065 4.87933C5.93466 4.87533 5.89865 4.87133 5.86265 4.86867C5.77313 4.86422 5.68341 4.86511 5.59399 4.87133V4.872Z" fill="#5AE0B6"/>
</svg>
